{
.appVersion = "1075";
DisplayStrings = (
"32px\012\012Ay Aw Av *A*' AY AW AV AT F. F, FA Ly L' L/quotedblleft L/quoteright LY LW LV LT P. P, PA Ry RY RW RV RT Ty Tw Tu T; Ts Tr T. To Ti T- Te T, T: Tc Ta TA Vy Vu V; Vr V. Vo Vi V- Ve V, V: Va VA Wy Wu W; Wr W. Wo Wi W- We W, W: Wa WA Yv Yu Y; Yq Y. Yp Yo Yi Y- Ye Y, Y: Yanon AYAHOH\012f' ff `` 't 's '' rz ry rx rw rv ru rt rr r' rq r. ro rn rm r- rh rg rf re rd r, rc v. v, w. w, y. y, n. r.n  n.v. nw.n n.y.n n-n o-o\012\012nnannbnncnndnnenn\012nnfnngnnhnninnjnn\012nnknnlnnmnnoonnpnn\012nnqnnrnnsnntnnunn\012nnvnnwnnxnnynnznn\012\012ooaooboocoodooeoo\012oofoogoohooioojoo\012ookooloomoonoopoo\012ooqooroosootoouoo\012oovoowooxooyoozoo\012\012nnAnnBnnCnn\012nnDnnEnnFnnGnnHnn\012nnInnJnnKnnLnnMnn\012nnNnnOnnPnnQnnRnn\012nnSnnTnnUnnVnnWnn\012nnXnnYnnZnn\012\012ooAooBooCoo\012ooDooEooFooGooHoo\012ooIooJooKooLooMoo\012ooNooOooPooQooRoo\012ooSooTooUooVooWoo\012ooXooYooZoo\012\012H H A H H T H H V H H W H H Y H H\012O O A O O T O O V O O W O O Y O O\012\012HAHBHCHDHEHFH\012HGHIHJHKHLHMHNH\012HNHOHPHQHRHSHTH\012HUHVHWHXHYHZH\012\012OAOBOCODOEOFO\012OGOHOIOJOKOLOMO\012ONOPOQOROSOTO\012OUOVOWOXOYOZO",

glyphs = (
{
glyphname = A;
lastChange = "2018-01-16 00:26:46 +0000";
layers = (
{
anchors = (
{
name = bottom;
position = "{272, 0}";
},
{
name = ogonek;
position = "{563, 5}";
},
{
name = top;
position = "{262, 750}";
}
);
background = {
paths = (
{
closed = 1;
nodes = (
"139 0 LINE",
"171 161 LINE",
"348 161 LINE",
"385 -13 LINE",
"537 2 LINE",
"373 754 LINE",
"165 737 LINE",
"8 0 LINE"
);
},
{
closed = 1;
nodes = (
"254 640 LINE",
"323 281 LINE",
"198 281 LINE"
);
}
);
};
guideLines = (
{
angle = 7;
position = "{383, -9}";
showMeasurement = 1;
},
{
angle = -78.4216;
position = "{245, 615}";
},
{
angle = 7;
position = "{170, 740}";
}
);
layerId = "849A9C4C-BF7C-40C5-8614-1FD725A2A379";
paths = (
{
closed = 1;
nodes = (
"161 137 LINE",
"354 137 LINE",
"354 259 LINE",
"161 259 LINE"
);
},
{
closed = 1;
nodes = (
"385 -14 LINE",
"522 3 LINE",
"349 762 LINE",
"168 741 LINE",
"15 0 LINE",
"157 0 LINE",
"194 220 LINE",
"187 224 LINE",
"248 554 LINE SMOOTH",
"252 578 OFFCURVE",
"256 601 OFFCURVE",
"260 623 CURVE",
"264 601 OFFCURVE",
"269 578 OFFCURVE",
"273 555 CURVE SMOOTH",
"338 224 LINE",
"330 219 LINE"
);
}
);
width = 537;
}
);
leftKerningGroup = A;
rightKerningGroup = A;
unicode = 0041;
},
{
glyphname = Aringacute;
lastChange = "2017-10-20 00:22:06 +0000";
layers = (
{
background = {
components = (
{
name = acutecomb;
transform = "{1, 0, 0, 1, 194, 499}";
}
);
};
components = (
{
name = A;
},
{
name = ring;
transform = "{1, 0, 0, 1, 66, 187}";
}
);
layerId = "849A9C4C-BF7C-40C5-8614-1FD725A2A379";
paths = (
{
closed = 1;
nodes = (
"502 1112 LINE",
"399 1207 LINE",
"289 1008 LINE",
"321 981 LINE"
);
}
);
width = 528;
}
);
leftKerningGroup = A;
rightKerningGroup = A;
unicode = 01FA;
},
{
glyphname = AE;
lastChange = "2018-01-16 00:26:50 +0000";
layers = (
{
anchors = (
{
name = bottom;
position = "{341, 0}";
},
{
name = top;
position = "{431, 750}";
}
);
background = {
components = (
{
name = E;
transform = "{1, 0, 0, 1, 283, 0}";
}
);
};
guideLines = (
{
angle = 168;
position = "{169, 0}";
},
{
angle = 160;
position = "{186, -53}";
}
);
layerId = "849A9C4C-BF7C-40C5-8614-1FD725A2A379";
paths = (
{
closed = 1;
nodes = (
"160 0 LINE",
"208 161 LINE",
"347 161 LINE",
"346 0 LINE",
"722 0 LINE",
"737 122 LINE",
"494 122 LINE",
"494 315 LINE",
"654 315 LINE",
"669 433 LINE",
"494 433 LINE",
"494 633 LINE",
"716 633 LINE",
"730 750 LINE",
"260 750 LINE",
"10 0 LINE"
);
},
{
closed = 1;
nodes = (
"347 630 LINE",
"346 277 LINE",
"241 277 LINE"
);
}
);
width = 762;
}
);
leftKerningGroup = AE;
rightKerningGroup = KINDAOPEN;
rightMetricsKey = E;
unicode = 00C6;
},
{
glyphname = B;
lastChange = "2017-10-26 20:09:12 +0000";
layers = (
{
anchors = (
{
name = bottom;
position = "{266, 0}";
},
{
name = top;
position = "{266, 750}";
}
);
background = {
components = (
{
name = R;
transform = "{1, 0, 0, 1, -4, 0}";
},
{
name = H;
transform = "{1, 0, 0, 1, -4, 0}";
}
);
};
layerId = "849A9C4C-BF7C-40C5-8614-1FD725A2A379";
paths = (
{
closed = 1;
nodes = (
"246 0 LINE SMOOTH",
"417 0 OFFCURVE",
"510 72 OFFCURVE",
"510 213 CURVE SMOOTH",
"510 311 OFFCURVE",
"475 356 OFFCURVE",
"398 382 CURVE",
"463 412 OFFCURVE",
"493 478 OFFCURVE",
"493 548 CURVE SMOOTH",
"493 678 OFFCURVE",
"421 750 OFFCURVE",
"244 750 CURVE SMOOTH",
"60 750 LINE",
"60 0 LINE"
);
},
{
closed = 1;
nodes = (
"207 322 LINE",
"246 322 LINE SMOOTH",
"316 322 OFFCURVE",
"360 297 OFFCURVE",
"360 223 CURVE SMOOTH",
"360 145 OFFCURVE",
"316 116 OFFCURVE",
"246 116 CURVE SMOOTH",
"207 116 LINE"
);
},
{
closed = 1;
nodes = (
"207 634 LINE",
"244 634 LINE SMOOTH",
"309 634 OFFCURVE",
"349 607 OFFCURVE",
"349 537 CURVE SMOOTH",
"349 472 OFFCURVE",
"305 435 OFFCURVE",
"255 435 CURVE SMOOTH",
"207 435 LINE"
);
}
);
width = 535;
}
);
leftKerningGroup = STRAIGHT;
leftMetricsKey = H;
rightKerningGroup = SMALL;
unicode = 0042;
},
{
glyphname = C;
lastChange = "2018-01-16 00:14:02 +0000";
layers = (
{
anchors = (
{
name = bottom;
position = "{285, 0}";
},
{
name = top;
position = "{272, 752}";
}
);
background = {
components = (
{
name = O;
transform = "{1, 0, 0, 1, -1, 0}";
}
);
};
guideLines = (
{
position = "{372, 445}";
},
{
angle = 173.7516;
position = "{508, 240}";
},
{
angle = 12;
position = "{504, 510}";
},
{
position = "{167, 252}";
}
);
layerId = "849A9C4C-BF7C-40C5-8614-1FD725A2A379";
paths = (
{
closed = 1;
nodes = (
"434 -15 OFFCURVE",
"499 109 OFFCURVE",
"508 240 CURVE",
"371 255 LINE",
"366 187 OFFCURVE",
"348 108 OFFCURVE",
"286 108 CURVE SMOOTH",
"214 108 OFFCURVE",
"190 203 OFFCURVE",
"190 375 CURVE SMOOTH",
"190 543 OFFCURVE",
"216 642 OFFCURVE",
"287 642 CURVE SMOOTH",
"347 642 OFFCURVE",
"365 549 OFFCURVE",
"369 481 CURVE",
"508 510 LINE",
"501 646 OFFCURVE",
"429 765 OFFCURVE",
"288 765 CURVE SMOOTH",
"115 765 OFFCURVE",
"35 628 OFFCURVE",
"35 375 CURVE SMOOTH",
"35 144 OFFCURVE",
"113 -15 OFFCURVE",
"286 -15 CURVE SMOOTH"
);
}
);
width = 528;
}
);
leftKerningGroup = ROUND;
leftMetricsKey = O;
rightKerningGroup = ROPEN;
unicode = 0043;
},
{
glyphname = D;
lastChange = "2017-11-02 17:29:19 +0000";
layers = (
{
anchors = (
{
name = bottom;
position = "{267, 0}";
},
{
name = center;
position = "{267, 375}";
},
{
name = top;
position = "{224, 750}";
}
);
background = {
components = (
{
name = O;
transform = "{1, 0, 0, 1, -18, 1}";
},
{
name = H;
transform = "{1, 0, 0, 1, -4, 0}";
}
);
};
layerId = "849A9C4C-BF7C-40C5-8614-1FD725A2A379";
paths = (
{
closed = 1;
nodes = (
"219 0 LINE SMOOTH",
"421 0 OFFCURVE",
"520 182 OFFCURVE",
"520 375 CURVE SMOOTH",
"520 627 OFFCURVE",
"415 750 OFFCURVE",
"219 750 CURVE SMOOTH",
"60 750 LINE",
"60 0 LINE"
);
},
{
closed = 1;
nodes = (
"207 633 LINE",
"219 633 LINE SMOOTH",
"319 633 OFFCURVE",
"365 546 OFFCURVE",
"365 375 CURVE SMOOTH",
"365 227 OFFCURVE",
"330 120 OFFCURVE",
"223 120 CURVE SMOOTH",
"207 120 LINE"
);
}
);
width = 555;
}
);
leftKerningGroup = STRAIGHT;
leftMetricsKey = H;
rightKerningGroup = ROUND;
rightMetricsKey = O;
unicode = 0044;
},
{
glyphname = Eth;
lastChange = "2017-11-02 17:31:43 +0000";
layers = (
{
anchors = (
{
name = bottom;
position = "{271, 0}";
},
{
name = center;
position = "{271, 375}";
},
{
name = top;
position = "{228, 750}";
}
);
layerId = "849A9C4C-BF7C-40C5-8614-1FD725A2A379";
paths = (
{
closed = 1;
nodes = (
"297 330 LINE",
"297 420 LINE",
"14 420 LINE",
"14 330 LINE"
);
},
{
closed = 1;
nodes = (
"223 0 LINE SMOOTH",
"425 0 OFFCURVE",
"523 182 OFFCURVE",
"523 376 CURVE SMOOTH",
"523 627 OFFCURVE",
"419 750 OFFCURVE",
"223 750 CURVE SMOOTH",
"64 750 LINE",
"64 0 LINE"
);
},
{
closed = 1;
nodes = (
"207 633 LINE",
"225 633 LINE SMOOTH",
"323 633 OFFCURVE",
"369 546 OFFCURVE",
"369 376 CURVE SMOOTH",
"369 227 OFFCURVE",
"334 120 OFFCURVE",
"229 120 CURVE SMOOTH",
"207 120 LINE"
);
}
);
width = 558;
}
);
rightMetricsKey = D;
unicode = 00D0;
},
{
glyphname = E;
lastChange = "2018-01-15 23:22:25 +0000";
layers = (
{
anchors = (
{
name = bottom;
position = "{232, 0}";
},
{
name = ogonek;
position = "{449, 0}";
},
{
name = top;
position = "{232, 750}";
},
{
name = topleft;
position = "{0, 750}";
}
);
background = {
components = (
{
name = E.ori;
transform = "{1, 0, 0, 1, -10, 0}";
},
{
name = F;
transform = "{1, 0, 0, 1, -10, 0}";
}
);
};
guideLines = (
{
position = "{437, 622}";
},
{
position = "{395, 446}";
},
{
angle = 83;
position = "{421, 750}";
}
);
layerId = "849A9C4C-BF7C-40C5-8614-1FD725A2A379";
paths = (
{
closed = 1;
nodes = (
"449 0 LINE",
"463 122 LINE",
"207 122 LINE",
"207 326 LINE",
"382 326 LINE",
"397 446 LINE",
"207 446 LINE",
"207 628 LINE",
"443 628 LINE",
"458 750 LINE",
"60 750 LINE",
"60 0 LINE"
);
}
);
width = 488;
}
);
leftKerningGroup = STRAIGHT;
leftMetricsKey = H;
rightKerningGroup = KINDAOPEN;
unicode = 0045;
},
{
glyphname = F;
lastChange = "2017-10-20 00:22:34 +0000";
layers = (
{
anchors = (
{
name = bottom;
position = "{220, 0}";
},
{
name = top;
position = "{220, 750}";
}
);
background = {
components = (
{
name = E;
}
);
};
guideLines = (
{
position = "{-3, 438}";
},
{
angle = 83;
position = "{414, 750}";
},
{
angle = 3;
position = "{207, 0}";
}
);
layerId = "849A9C4C-BF7C-40C5-8614-1FD725A2A379";
paths = (
{
closed = 1;
nodes = (
"207 0 LINE",
"207 313 LINE",
"379 313 LINE",
"394 435 LINE",
"207 435 LINE",
"207 628 LINE",
"435 628 LINE",
"450 750 LINE",
"60 750 LINE",
"60 0 LINE"
);
}
);
width = 460;
}
);
leftKerningGroup = STRAIGHT;
leftMetricsKey = H;
rightKerningGroup = KINDAOPEN;
unicode = 0046;
},
{
glyphname = G;
lastChange = "2018-01-16 00:26:36 +0000";
layers = (
{
anchors = (
{
name = bottom;
position = "{273, 0}";
},
{
name = top;
position = "{284, 753}";
}
);
background = {
components = (
{
name = C;
transform = "{1, 0, 0, 1, -1, 0}";
}
);
};
guideLines = (
{
angle = 83;
position = "{297, 375}";
},
{
angle = 7;
position = "{440, -12}";
}
);
layerId = "849A9C4C-BF7C-40C5-8614-1FD725A2A379";
paths = (
{
closed = 1;
nodes = (
"341 -14 OFFCURVE",
"397 30 OFFCURVE",
"423 80 CURVE",
"442 -17 LINE",
"510 -8 LINE",
"510 374 LINE",
"299 374 LINE",
"285 262 LINE",
"378 262 LINE",
"378 228 LINE SMOOTH",
"378 178 OFFCURVE",
"355 107 OFFCURVE",
"288 107 CURVE SMOOTH",
"197 107 OFFCURVE",
"183 238 OFFCURVE",
"183 361 CURVE SMOOTH",
"183 509 OFFCURVE",
"200 641 OFFCURVE",
"285 641 CURVE SMOOTH",
"348 641 OFFCURVE",
"366 569 OFFCURVE",
"372 493 CURVE",
"504 521 LINE",
"496 662 OFFCURVE",
"427 764 OFFCURVE",
"290 764 CURVE SMOOTH",
"109 764 OFFCURVE",
"35 609 OFFCURVE",
"35 363 CURVE SMOOTH",
"35 114 OFFCURVE",
"124 -14 OFFCURVE",
"268 -14 CURVE SMOOTH"
);
}
);
width = 550;
}
);
leftKerningGroup = ROUND;
leftMetricsKey = C;
rightKerningGroup = ROPEN;
unicode = 0047;
},
{
glyphname = H;
lastChange = "2017-10-27 14:03:36 +0000";
layers = (
{
anchors = (
{
name = bottom;
position = "{282, 0}";
},
{
name = center;
position = "{282, 375}";
},
{
name = top;
position = "{282, 750}";
},
{
name = topleft;
position = "{5, 750}";
}
);
background = {
paths = (
{
closed = 1;
nodes = (
"212 6 LINE",
"212 312 LINE",
"352 312 LINE",
"352 -6 LINE",
"499 6 LINE",
"499 750 LINE",
"352 738 LINE",
"352 446 LINE",
"212 446 LINE",
"212 750 LINE",
"65 738 LINE",
"65 -6 LINE"
);
}
);
};
guideLines = (
{
position = "{-258, 761}";
},
{
angle = 3;
position = "{509, 0}";
},
{
angle = 3;
position = "{202, 0}";
},
{
angle = 7;
position = "{202, 754}";
},
{
angle = 7;
position = "{509, 754}";
}
);
layerId = "849A9C4C-BF7C-40C5-8614-1FD725A2A379";
paths = (
{
closed = 1;
nodes = (
"207 0 LINE",
"207 304 LINE",
"365 304 LINE",
"365 0 LINE",
"512 0 LINE",
"512 750 LINE",
"365 750 LINE",
"365 426 LINE",
"207 426 LINE",
"207 750 LINE",
"60 750 LINE",
"60 0 LINE"
);
}
);
width = 572;
}
);
leftKerningGroup = STRAIGHT;
rightKerningGroup = STRAIGHT;
unicode = 0048;
},
{
glyphname = Hbar;
lastChange = "2017-10-20 00:23:06 +0000";
layers = (
{
background = {
components = (
{
name = H;
transform = "{1, 0, 0, 1, 12, 0}";
}
);
};
components = (
{
name = H;
transform = "{1, 0, 0, 1, 2, 0}";
}
);
guideLines = (
{
angle = 83;
position = "{575, 656}";
}
);
layerId = "849A9C4C-BF7C-40C5-8614-1FD725A2A379";
paths = (
{
closed = 1;
nodes = (
"562 567 LINE",
"573 656 LINE",
"15 656 LINE",
"15 567 LINE"
);
}
);
width = 598;
}
);
leftKerningGroup = STRAIGHT;
rightKerningGroup = STRAIGHT;
unicode = 0126;
},
{
glyphname = I;
lastChange = "2018-01-15 23:29:17 +0000";
layers = (
{
anchors = (
{
name = bottom;
position = "{138, 0}";
},
{
name = ogonek;
position = "{286, 5}";
},
{
name = top;
position = "{138, 750}";
},
{
name = topleft;
position = "{4, 750}";
}
);
background = {
paths = (
{
closed = 1;
nodes = (
"211 6 LINE",
"211 750 LINE",
"64 738 LINE",
"64 -6 LINE"
);
}
);
};
guideLines = (
{
angle = 7;
position = "{211, 757}";
}
);
layerId = "849A9C4C-BF7C-40C5-8614-1FD725A2A379";
paths = (
{
closed = 1;
nodes = (
"211 0 LINE",
"211 750 LINE",
"64 750 LINE",
"64 0 LINE"
);
}
);
width = 275;
}
);
leftKerningGroup = STRAIGHT;
rightKerningGroup = STRAIGHT;
unicode = 0049;
},
{
glyphname = IJ;
lastChange = "2017-10-20 00:22:54 +0000";
layers = (
{
anchors = (
{
name = bottom;
position = "{141, 0}";
},
{
name = ogonek;
position = "{289, 5}";
},
{
name = top;
position = "{141, 750}";
},
{
name = topleft;
position = "{7, 750}";
}
);
layerId = "849A9C4C-BF7C-40C5-8614-1FD725A2A379";
paths = (
{
closed = 1;
nodes = (
"214 247 LINE",
"214 750 LINE",
"67 750 LINE",
"67 247 LINE"
);
},
{
closed = 1;
nodes = (
"417 -14 OFFCURVE",
"500 83 OFFCURVE",
"500 235 CURVE SMOOTH",
"500 750 LINE",
"353 750 LINE",
"353 262 LINE SMOOTH",
"353 169 OFFCURVE",
"318 117 OFFCURVE",
"232 117 CURVE SMOOTH",
"176 117 OFFCURVE",
"124 130 OFFCURVE",
"81 150 CURVE",
"54 23 LINE",
"113 -3 OFFCURVE",
"166 -14 OFFCURVE",
"247 -14 CURVE SMOOTH"
);
}
);
width = 560;
}
);
leftKerningGroup = STRAIGHT;
rightKerningGroup = STRAIGHT;
unicode = 0132;
},
{
glyphname = J;
lastChange = "2018-01-16 00:25:28 +0000";
layers = (
{
anchors = (
{
name = bottom;
position = "{188, 0}";
},
{
name = top;
position = "{219, 750}";
}
);
guideLines = (
{
angle = 83;
position = "{14, 2}";
},
{
angle = 7;
position = "{288, 758}";
}
);
layerId = "849A9C4C-BF7C-40C5-8614-1FD725A2A379";
paths = (
{
closed = 1;
nodes = (
"233 -14 OFFCURVE",
"288 60 OFFCURVE",
"288 176 CURVE SMOOTH",
"288 750 LINE",
"142 750 LINE",
"142 192 LINE SMOOTH",
"142 140 OFFCURVE",
"133 110 OFFCURVE",
"85 110 CURVE SMOOTH",
"63 110 OFFCURVE",
"48 114 OFFCURVE",
"29 124 CURVE",
"14 5 LINE",
"48 -10 OFFCURVE",
"76 -14 OFFCURVE",
"116 -14 CURVE SMOOTH"
);
}
);
width = 343;
}
);
leftKerningGroup = J;
rightKerningGroup = STRAIGHT;
rightMetricsKey = U;
unicode = 004A;
},
{
glyphname = K;
lastChange = "2017-11-02 19:30:12 +0000";
layers = (
{
anchors = (
{
name = bottom;
position = "{271, 0}";
},
{
name = top;
position = "{271, 750}";
}
);
background = {
components = (
{
name = R;
transform = "{1, 0, 0, 1, -10, 0}";
}
);
};
guideLines = (
{
angle = 158;
position = "{393, 764}";
},
{
angle = 60.6558;
position = "{263, 335}";
},
{
angle = 20;
position = "{392, -19}";
}
);
layerId = "849A9C4C-BF7C-40C5-8614-1FD725A2A379";
paths = (
{
closed = 1;
nodes = (
"514 716 LINE",
"392 765 LINE",
"207 392 LINE",
"207 750 LINE",
"60 750 LINE",
"60 0 LINE",
"207 0 LINE",
"207 217 LINE",
"263 315 LINE",
"301 300 LINE"
);
},
{
closed = 1;
nodes = (
"392 -16 LINE",
"527 33 LINE",
"338 444 LINE",
"241 328 LINE"
);
}
);
width = 542;
}
);
leftKerningGroup = STRAIGHT;
leftMetricsKey = H;
rightKerningGroup = VOID;
unicode = 004B;
},
{
glyphname = L;
lastChange = "2018-01-16 00:13:41 +0000";
layers = (
{
anchors = (
{
name = bottom;
position = "{224, 0}";
},
{
name = center;
position = "{355, 417}";
},
{
name = top;
position = "{114, 750}";
},
{
name = topright;
position = "{449, 750}";
}
);
guideLines = (
{
angle = 7;
position = "{206, 750}";
},
{
angle = 83;
position = "{452, 123}";
}
);
layerId = "849A9C4C-BF7C-40C5-8614-1FD725A2A379";
paths = (
{
closed = 1;
nodes = (
"434 0 LINE",
"449 123 LINE",
"206 123 LINE",
"206 750 LINE",
"60 750 LINE",
"60 0 LINE"
);
}
);
width = 457;
}
);
leftKerningGroup = STRAIGHT;
leftMetricsKey = H;
rightKerningGroup = L;
unicode = 004C;
},
{
glyphname = Lslash;
lastChange = "2017-10-20 00:36:01 +0000";
layers = (
{
background = {
paths = (
{
closed = 1;
nodes = (
"455 0 LINE",
"478 117 LINE",
"224 117 LINE",
"224 360 LINE",
"329 375 LINE",
"329 491 LINE",
"224 476 LINE",
"224 750 LINE",
"78 738 LINE",
"78 455 LINE",
"1 444 LINE",
"1 328 LINE",
"78 339 LINE",
"78 0 LINE"
);
}
);
};
components = (
{
name = L;
transform = "{1, 0, 0, 1, 8, 0}";
}
);
layerId = "849A9C4C-BF7C-40C5-8614-1FD725A2A379";
paths = (
{
closed = 1;
nodes = (
"346 373 LINE",
"327 486 LINE",
"-4 380 LINE",
"15 267 LINE"
);
}
);
width = 483;
}
);
leftKerningGroup = STRAIGHT;
rightKerningGroup = KINDAOPEN;
unicode = 0141;
},
{
glyphname = M;
lastChange = "2018-01-15 23:22:37 +0000";
layers = (
{
anchors = (
{
name = bottom;
position = "{392, 0}";
},
{
name = top;
position = "{392, 750}";
}
);
background = {
paths = (
{
closed = 1;
nodes = (
"719 6 LINE",
"719 744 LINE",
"523 732 LINE",
"404 285 LINE",
"280 749 LINE",
"65 743 LINE",
"65 0 LINE",
"186 6 LINE",
"186 559 LINE",
"337 0 LINE",
"427 0 LINE",
"567 557 LINE",
"567 -6 LINE"
);
}
);
};
guideLines = (
{
angle = 7;
position = "{249, 758}";
},
{
angle = 7;
position = "{334, -4}";
},
{
angle = 7;
position = "{62, 768}";
}
);
layerId = "849A9C4C-BF7C-40C5-8614-1FD725A2A379";
paths = (
{
closed = 1;
nodes = (
"702 0 LINE",
"702 750 LINE",
"512 750 LINE",
"388 243 LINE",
"254 762 LINE",
"60 739 LINE",
"60 0 LINE",
"187 1 LINE",
"187 516 LINE",
"186 565 LINE",
"332 -4 LINE",
"432 8 LINE",
"569 566 LINE",
"567 520 LINE",
"567 0 LINE"
);
}
);
width = 762;
}
);
leftKerningGroup = STRAIGHT;
leftMetricsKey = H;
rightKerningGroup = STRAIGHT;
rightMetricsKey = H;
unicode = 004D;
},
{
glyphname = N;
lastChange = "2017-10-20 00:23:20 +0000";
layers = (
{
anchors = (
{
name = bottom;
position = "{293, 0}";
},
{
name = top;
position = "{293, 750}";
}
);
guideLines = (
{
angle = 7;
position = "{535, 7}";
showMeasurement = 1;
},
{
angle = 7;
position = "{59, 744}";
showMeasurement = 1;
}
);
layerId = "849A9C4C-BF7C-40C5-8614-1FD725A2A379";
paths = (
{
closed = 1;
nodes = (
"533 7 LINE",
"533 752 LINE",
"403 752 LINE",
"403 326 LINE",
"403 303 LINE",
"193 760 LINE",
"60 744 LINE",
"60 0 LINE",
"190 0 LINE",
"190 442 LINE",
"190 470 LINE",
"410 -9 LINE"
);
}
);
width = 593;
}
);
leftKerningGroup = STRAIGHT;
leftMetricsKey = H;
rightKerningGroup = STRAIGHT;
rightMetricsKey = H;
unicode = 004E;
},
{
glyphname = Eng;
lastChange = "2017-10-20 00:35:04 +0000";
layers = (
{
anchors = (
{
name = bottom;
position = "{303, 0}";
},
{
name = top;
position = "{303, 750}";
}
);
layerId = "849A9C4C-BF7C-40C5-8614-1FD725A2A379";
paths = (
{
closed = 1;
nodes = (
"415 326 LINE",
"417 296 LINE",
"206 758 LINE",
"69 741 LINE",
"69 0 LINE",
"199 0 LINE",
"199 442 LINE",
"197 474 LINE",
"415 20 LINE",
"415 -28 OFFCURVE",
"398 -52 OFFCURVE",
"363 -52 CURVE SMOOTH",
"349 -52 OFFCURVE",
"339 -50 OFFCURVE",
"328 -46 CURVE",
"315 -151 LINE",
"343 -161 OFFCURVE",
"371 -166 OFFCURVE",
"409 -166 CURVE SMOOTH",
"505 -166 OFFCURVE",
"545 -90 OFFCURVE",
"545 23 CURVE SMOOTH",
"545 750 LINE",
"415 750 LINE"
);
}
);
width = 608;
}
);
leftKerningGroup = STRAIGHT;
rightKerningGroup = STRAIGHT;
unicode = 014A;
},
{
glyphname = Nhookleft;
lastChange = "2018-01-11 00:49:45 +0000";
layers = (
{
anchors = (
{
name = bottom;
position = "{294, 0}";
},
{
name = top;
position = "{294, 750}";
}
);
layerId = "849A9C4C-BF7C-40C5-8614-1FD725A2A379";
paths = (
{
closed = 1;
nodes = (
"398 326 LINE",
"400 296 LINE",
"189 758 LINE",
"52 741 LINE",
"52 33 LINE SMOOTH",
"52 -25 OFFCURVE",
"41 -52 OFFCURVE",
"0 -52 CURVE SMOOTH",
"-14 -52 OFFCURVE",
"-24 -50 OFFCURVE",
"-35 -46 CURVE",
"-48 -151 LINE",
"-20 -161 OFFCURVE",
"8 -166 OFFCURVE",
"41 -166 CURVE SMOOTH",
"136 -166 OFFCURVE",
"182 -87 OFFCURVE",
"182 13 CURVE SMOOTH",
"182 442 LINE",
"180 477 LINE",
"406 -9 LINE",
"528 7 LINE",
"528 750 LINE",
"398 750 LINE"
);
}
);
width = 588;
}
);
leftMetricsKey = j;
rightMetricsKey = N;
unicode = 019D;
},
{
glyphname = O;
lastChange = "2018-01-16 00:16:31 +0000";
layers = (
{
anchors = (
{
name = bottom;
position = "{280, 0}";
},
{
name = center;
position = "{281, 375}";
},
{
name = ogonek;
position = "{451, 5}";
},
{
name = top;
position = "{280, 752}";
},
{
name = topleft;
position = "{16, 750}";
},
{
name = topright;
position = "{498, 463}";
}
);
background = {
components = (
{
name = O.ori;
transform = "{1, 0, 0, 1, 6, 0}";
}
);
paths = (
{
closed = 1;
nodes = (
"112 764 OFFCURVE",
"38 612 OFFCURVE",
"38 375 CURVE SMOOTH",
"38 138 OFFCURVE",
"112 -14 OFFCURVE",
"280 -14 CURVE SMOOTH",
"447 -14 OFFCURVE",
"522 138 OFFCURVE",
"522 375 CURVE SMOOTH",
"522 612 OFFCURVE",
"447 764 OFFCURVE",
"280 764 CURVE SMOOTH"
);
},
{
closed = 1;
nodes = (
"358 641 OFFCURVE",
"369 520 OFFCURVE",
"369 375 CURVE SMOOTH",
"369 230 OFFCURVE",
"358 108 OFFCURVE",
"280 108 CURVE SMOOTH",
"201 108 OFFCURVE",
"191 230 OFFCURVE",
"191 375 CURVE SMOOTH",
"191 520 OFFCURVE",
"201 641 OFFCURVE",
"280 641 CURVE SMOOTH"
);
}
);
};
layerId = "849A9C4C-BF7C-40C5-8614-1FD725A2A379";
paths = (
{
closed = 1;
nodes = (
"454 -14 OFFCURVE",
"525 138 OFFCURVE",
"525 375 CURVE SMOOTH",
"525 612 OFFCURVE",
"454 764 OFFCURVE",
"280 764 CURVE SMOOTH",
"107 764 OFFCURVE",
"35 612 OFFCURVE",
"35 375 CURVE SMOOTH",
"35 138 OFFCURVE",
"107 -14 OFFCURVE",
"280 -14 CURVE SMOOTH"
);
},
{
closed = 1;
nodes = (
"198 115 OFFCURVE",
"190 238 OFFCURVE",
"190 375 CURVE SMOOTH",
"190 512 OFFCURVE",
"198 635 OFFCURVE",
"280 635 CURVE SMOOTH",
"363 635 OFFCURVE",
"370 512 OFFCURVE",
"370 375 CURVE SMOOTH",
"370 238 OFFCURVE",
"363 115 OFFCURVE",
"280 115 CURVE SMOOTH"
);
}
);
width = 560;
}
);
leftKerningGroup = ROUND;
rightKerningGroup = ROUND;
unicode = 004F;
},
{
glyphname = Oslash;
lastChange = "2017-10-20 00:23:38 +0000";
layers = (
{
anchors = (
{
name = bottom;
position = "{280, 0}";
},
{
name = center;
position = "{281, 375}";
},
{
name = ogonek;
position = "{451, 5}";
},
{
name = top;
position = "{280, 752}";
},
{
name = topleft;
position = "{16, 750}";
},
{
name = topright;
position = "{498, 463}";
}
);
background = {
paths = (
{
closed = 1;
nodes = (
"467 -16 OFFCURVE",
"508 190 OFFCURVE",
"508 400 CURVE SMOOTH",
"508 464 OFFCURVE",
"501 521 OFFCURVE",
"489 572 CURVE",
"552 648 LINE",
"505 693 LINE",
"464 643 LINE",
"427 721 OFFCURVE",
"365 766 OFFCURVE",
"274 766 CURVE SMOOTH",
"112 766 OFFCURVE",
"42 621 OFFCURVE",
"42 400 CURVE SMOOTH",
"42 315 OFFCURVE",
"49 233 OFFCURVE",
"69 163 CURVE",
"14 97 LINE",
"61 52 LINE",
"96 94 LINE",
"131 27 OFFCURVE",
"186 -16 OFFCURVE",
"274 -16 CURVE SMOOTH"
);
},
{
closed = 1;
nodes = (
"228 109 OFFCURVE",
"207 148 OFFCURVE",
"197 217 CURVE",
"361 417 LINE",
"361 400 LINE SMOOTH",
"361 221 OFFCURVE",
"353 109 OFFCURVE",
"274 109 CURVE SMOOTH"
);
},
{
closed = 1;
nodes = (
"188 337 OFFCURVE",
"188 367 OFFCURVE",
"188 400 CURVE SMOOTH",
"188 494 OFFCURVE",
"194 649 OFFCURVE",
"274 649 CURVE SMOOTH",
"327 649 OFFCURVE",
"348 583 OFFCURVE",
"356 512 CURVE",
"189 310 LINE"
);
}
);
};
layerId = "849A9C4C-BF7C-40C5-8614-1FD725A2A379";
paths = (
{
closed = 1;
nodes = (
"570 678 LINE",
"508 730 LINE",
"420 621 LINE",
"425 617 LINE",
"89 189 LINE",
"87 191 LINE",
"-10 69 LINE",
"53 17 LINE",
"149 139 LINE",
"143 144 LINE",
"479 570 LINE",
"482 568 LINE"
);
},
{
closed = 1;
nodes = (
"448 -14 OFFCURVE",
"524 138 OFFCURVE",
"524 375 CURVE SMOOTH",
"524 607 OFFCURVE",
"443 764 OFFCURVE",
"280 764 CURVE SMOOTH",
"113 764 OFFCURVE",
"36 612 OFFCURVE",
"36 375 CURVE SMOOTH",
"36 143 OFFCURVE",
"118 -14 OFFCURVE",
"280 -14 CURVE SMOOTH"
);
},
{
closed = 1;
nodes = (
"197 108 OFFCURVE",
"191 238 OFFCURVE",
"191 375 CURVE SMOOTH",
"191 512 OFFCURVE",
"202 642 OFFCURVE",
"280 642 CURVE SMOOTH",
"364 642 OFFCURVE",
"369 512 OFFCURVE",
"369 375 CURVE SMOOTH",
"369 238 OFFCURVE",
"359 108 OFFCURVE",
"280 108 CURVE SMOOTH"
);
}
);
width = 560;
}
);
leftKerningGroup = ROUND;
rightKerningGroup = ROUND;
unicode = 00D8;
},
{
glyphname = OE;
lastChange = "2017-11-02 17:31:47 +0000";
layers = (
{
background = {
components = (
{
name = E;
transform = "{1, 0, 0, 1, 299, 0}";
}
);
};
layerId = "849A9C4C-BF7C-40C5-8614-1FD725A2A379";
paths = (
{
closed = 1;
nodes = (
"363 0 LINE",
"739 0 LINE",
"753 122 LINE",
"510 122 LINE",
"510 315 LINE",
"670 315 LINE",
"685 433 LINE",
"510 433 LINE",
"510 628 LINE",
"731 628 LINE",
"747 750 LINE",
"363 750 LINE",
"291 750 LINE SMOOTH",
"118 750 OFFCURVE",
"30 620 OFFCURVE",
"30 375 CURVE SMOOTH",
"30 146 OFFCURVE",
"122 0 OFFCURVE",
"295 0 CURVE SMOOTH"
);
},
{
closed = 1;
nodes = (
"216 120 OFFCURVE",
"184 220 OFFCURVE",
"184 375 CURVE SMOOTH",
"184 536 OFFCURVE",
"216 633 OFFCURVE",
"313 633 CURVE SMOOTH",
"363 633 LINE",
"363 120 LINE",
"313 120 LINE SMOOTH"
);
}
);
width = 778;
}
);
leftKerningGroup = ROUND;
rightKerningGroup = KINDAOPEN;
rightMetricsKey = E;
unicode = 0152;
},
{
glyphname = P;
lastChange = "2018-01-15 23:48:58 +0000";
layers = (
{
anchors = (
{
name = bottom;
position = "{257, 0}";
},
{
name = top;
position = "{257, 750}";
}
);
background = {
components = (
{
name = R;
transform = "{1, 0, 0, 1, -6, 0}";
}
);
};
layerId = "849A9C4C-BF7C-40C5-8614-1FD725A2A379";
paths = (
{
closed = 1;
nodes = (
"228 273 LINE SMOOTH",
"394 273 OFFCURVE",
"498 347 OFFCURVE",
"498 512 CURVE SMOOTH",
"498 684 OFFCURVE",
"394 750 OFFCURVE",
"228 750 CURVE SMOOTH",
"179 750 OFFCURVE",
"116 750 OFFCURVE",
"60 750 CURVE",
"60 0 LINE",
"207 0 LINE",
"207 631 LINE",
"239 631 LINE SMOOTH",
"312 631 OFFCURVE",
"352 599 OFFCURVE",
"352 512 CURVE SMOOTH",
"352 428 OFFCURVE",
"312 391 OFFCURVE",
"239 391 CURVE SMOOTH",
"201 391 LINE",
"200 273 LINE"
);
}
);
width = 513;
}
);
leftKerningGroup = STRAIGHT;
leftMetricsKey = H;
rightKerningGroup = P;
unicode = 0050;
},
{
glyphname = Thorn;
lastChange = "2017-11-02 17:31:48 +0000";
layers = (
{
layerId = "849A9C4C-BF7C-40C5-8614-1FD725A2A379";
paths = (
{
closed = 1;
nodes = (
"187 509 LINE",
"250 509 LINE SMOOTH",
"323 509 OFFCURVE",
"363 477 OFFCURVE",
"363 390 CURVE SMOOTH",
"363 306 OFFCURVE",
"323 269 OFFCURVE",
"250 269 CURVE SMOOTH",
"187 269 LINE",
"187 151 LINE",
"239 151 LINE SMOOTH",
"405 151 OFFCURVE",
"509 225 OFFCURVE",
"509 390 CURVE SMOOTH",
"509 562 OFFCURVE",
"405 628 OFFCURVE",
"239 628 CURVE SMOOTH",
"187 628 LINE"
);
},
{
closed = 1;
nodes = (
"207 752 LINE",
"60 752 LINE",
"60 -2 LINE",
"207 -2 LINE"
);
}
);
width = 524;
}
);
leftKerningGroup = STRAIGHT;
leftMetricsKey = H;
rightKerningGroup = SMALL;
rightMetricsKey = P;
unicode = 00DE;
},
{
glyphname = Q;
lastChange = "2018-01-16 00:11:18 +0000";
layers = (
{
anchors = (
{
name = bottom;
position = "{270, 0}";
},
{
name = center;
position = "{280, 375}";
},
{
name = ogonek;
position = "{450, 5}";
},
{
name = top;
position = "{270, 750}";
},
{
name = topleft;
position = "{15, 750}";
},
{
name = topright;
position = "{497, 463}";
}
);
layerId = "849A9C4C-BF7C-40C5-8614-1FD725A2A379";
paths = (
{
closed = 1;
nodes = (
"519 -68 LINE",
"446 -22 OFFCURVE",
"396 16 OFFCURVE",
"342 71 CURVE",
"288 44 LINE",
"306 -51 OFFCURVE",
"373 -118 OFFCURVE",
"448 -153 CURVE"
);
},
{
closed = 1;
nodes = (
"437 -10 OFFCURVE",
"523 142 OFFCURVE",
"523 375 CURVE SMOOTH",
"523 612 OFFCURVE",
"447 764 OFFCURVE",
"279 764 CURVE SMOOTH",
"112 764 OFFCURVE",
"35 612 OFFCURVE",
"35 375 CURVE SMOOTH",
"35 138 OFFCURVE",
"112 -18 OFFCURVE",
"274 -14 CURVE SMOOTH"
);
},
{
closed = 1;
nodes = (
"201 109 OFFCURVE",
"188 224 OFFCURVE",
"188 375 CURVE SMOOTH",
"188 525 OFFCURVE",
"201 642 OFFCURVE",
"279 642 CURVE SMOOTH",
"358 642 OFFCURVE",
"370 525 OFFCURVE",
"370 375 CURVE SMOOTH",
"370 224 OFFCURVE",
"364 109 OFFCURVE",
"279 109 CURVE SMOOTH"
);
}
);
width = 558;
}
);
leftKerningGroup = ROUND;
leftMetricsKey = O;
rightKerningGroup = ROUND;
rightMetricsKey = O;
unicode = 0051;
},
{
glyphname = R;
lastChange = "2018-01-15 23:14:58 +0000";
layers = (
{
anchors = (
{
name = bottom;
position = "{273, 0}";
},
{
name = top;
position = "{273, 750}";
}
);
background = {
components = (
{
name = P;
transform = "{1, 0, 0, 1, -10, 0}";
}
);
paths = (
{
closed = 1;
nodes = (
"541 26 LINE",
"473 188 LINE SMOOTH",
"440 268 OFFCURVE",
"406 350 OFFCURVE",
"406 351 CURVE",
"470 388 OFFCURVE",
"513 443 OFFCURVE",
"513 541 CURVE SMOOTH",
"513 688 OFFCURVE",
"403 750 OFFCURVE",
"238 750 CURVE",
"60 750 LINE",
"60 -6 LINE",
"206 6 LINE",
"206 329 LINE",
"263 329 LINE",
"397 -13 LINE"
);
},
{
closed = 1;
nodes = (
"206 633 LINE",
"275 633 LINE SMOOTH",
"327 633 OFFCURVE",
"367 610 OFFCURVE",
"367 540 CURVE SMOOTH",
"367 452 OFFCURVE",
"315 437 OFFCURVE",
"256 437 CURVE SMOOTH",
"206 437 LINE"
);
}
);
};
guideLines = (
{
angle = 20;
position = "{401, -19}";
},
{
angle = 3;
position = "{207, 0}";
}
);
layerId = "849A9C4C-BF7C-40C5-8614-1FD725A2A379";
paths = (
{
closed = 1;
nodes = (
"232 286 OFFCURVE",
"252 286 OFFCURVE",
"280 288 CURVE",
"295 289 LINE",
"427 310 OFFCURVE",
"506 394 OFFCURVE",
"506 519 CURVE SMOOTH",
"506 679 OFFCURVE",
"411 750 OFFCURVE",
"248 750 CURVE SMOOTH",
"189 750 OFFCURVE",
"119 750 OFFCURVE",
"60 750 CURVE",
"60 0 LINE",
"207 0 LINE",
"207 286 LINE"
);
},
{
closed = 1;
nodes = (
"207 633 LINE",
"241 633 LINE SMOOTH",
"311 633 OFFCURVE",
"358 605 OFFCURVE",
"358 518 CURVE SMOOTH",
"358 439 OFFCURVE",
"305 397 OFFCURVE",
"241 397 CURVE SMOOTH",
"207 397 LINE"
);
},
{
closed = 1;
nodes = (
"401 -16 LINE",
"536 33 LINE",
"392 352 LINE",
"266 291 LINE"
);
}
);
width = 551;
}
);
leftKerningGroup = STRAIGHT;
leftMetricsKey = H;
rightKerningGroup = VOID;
unicode = 0052;
},
{
glyphname = S;
lastChange = "2018-01-16 00:19:34 +0000";
layers = (
{
anchors = (
{
name = bottom;
position = "{256, 0}";
},
{
name = top;
position = "{257, 752}";
}
);
background = {
paths = (
{
closed = 1;
nodes = (
"139 764 OFFCURVE",
"23 684 OFFCURVE",
"23 540 CURVE SMOOTH",
"23 432 OFFCURVE",
"80 382 OFFCURVE",
"146 344 CURVE SMOOTH",
"257 279 LINE SMOOTH",
"303 252 OFFCURVE",
"334 235 OFFCURVE",
"334 182 CURVE SMOOTH",
"334 138 OFFCURVE",
"302 104 OFFCURVE",
"254 104 CURVE SMOOTH",
"190 104 OFFCURVE",
"168 145 OFFCURVE",
"163 215 CURVE",
"44 190 LINE",
"52 66 OFFCURVE",
"129 -14 OFFCURVE",
"250 -14 CURVE SMOOTH",
"378 -14 OFFCURVE",
"478 68 OFFCURVE",
"478 200 CURVE SMOOTH",
"478 295 OFFCURVE",
"429 362 OFFCURVE",
"355 402 CURVE SMOOTH",
"236 466 LINE SMOOTH",
"201 485 OFFCURVE",
"170 508 OFFCURVE",
"170 561 CURVE SMOOTH",
"170 604 OFFCURVE",
"197 645 OFFCURVE",
"256 645 CURVE SMOOTH",
"313 645 OFFCURVE",
"349 600 OFFCURVE",
"353 521 CURVE",
"485 549 LINE",
"471 703 OFFCURVE",
"383 764 OFFCURVE",
"257 764 CURVE SMOOTH"
);
}
);
};
guideLines = (
{
angle = 12;
position = "{348, 520}";
},
{
angle = 154.3063;
position = "{220, 315}";
},
{
angle = 154.306;
position = "{310, 438}";
},
{
angle = 12;
position = "{156, 242}";
},
{
angle = 6.2484;
position = "{33, 212}";
}
);
layerId = "849A9C4C-BF7C-40C5-8614-1FD725A2A379";
paths = (
{
closed = 1;
nodes = (
"389 -16 OFFCURVE",
"483 69 OFFCURVE",
"483 203 CURVE SMOOTH",
"483 300 OFFCURVE",
"435 363 OFFCURVE",
"351 413 CURVE SMOOTH",
"261 467 LINE SMOOTH",
"216 493 OFFCURVE",
"183 521 OFFCURVE",
"183 568 CURVE SMOOTH",
"183 613 OFFCURVE",
"215 646 OFFCURVE",
"257 646 CURVE SMOOTH",
"318 646 OFFCURVE",
"345 601 OFFCURVE",
"348 520 CURVE",
"476 548 LINE",
"470 699 OFFCURVE",
"390 764 OFFCURVE",
"257 764 CURVE SMOOTH",
"129 764 OFFCURVE",
"41 673 OFFCURVE",
"41 554 CURVE SMOOTH",
"41 451 OFFCURVE",
"88 388 OFFCURVE",
"166 342 CURVE SMOOTH",
"257 289 LINE SMOOTH",
"301 263 OFFCURVE",
"338 237 OFFCURVE",
"338 187 CURVE SMOOTH",
"338 136 OFFCURVE",
"308 102 OFFCURVE",
"257 102 CURVE SMOOTH",
"190 102 OFFCURVE",
"163 153 OFFCURVE",
"159 226 CURVE",
"30 212 LINE",
"35 55 OFFCURVE",
"125 -16 OFFCURVE",
"256 -16 CURVE SMOOTH"
);
}
);
width = 513;
}
);
leftKerningGroup = SMALL;
rightKerningGroup = SMALL;
unicode = 0053;
},
{
glyphname = Germandbls;
lastChange = "2017-10-20 01:05:52 +0000";
layers = (
{
background = {
paths = (
{
closed = 1;
nodes = (
"189 0 LINE",
"189 542 LINE SMOOTH",
"189 632 OFFCURVE",
"247 662 OFFCURVE",
"306 662 CURVE SMOOTH",
"324 662 OFFCURVE",
"389 657 OFFCURVE",
"431 639 CURVE",
"412 677 LINE",
"303 444 LINE",
"410 366 LINE",
"558 671 LINE",
"558 731 LINE",
"472 754 OFFCURVE",
"381 766 OFFCURVE",
"320 766 CURVE SMOOTH",
"189 766 OFFCURVE",
"42 740 OFFCURVE",
"42 516 CURVE SMOOTH",
"42 -12 LINE"
);
},
{
closed = 1;
nodes = (
"443 -6 OFFCURVE",
"600 55 OFFCURVE",
"600 229 CURVE SMOOTH",
"600 350 OFFCURVE",
"525 397 OFFCURVE",
"437 425 CURVE",
"303 444 LINE",
"316 362 LINE",
"403 356 OFFCURVE",
"453 284 OFFCURVE",
"453 227 CURVE SMOOTH",
"453 167 OFFCURVE",
"404 90 OFFCURVE",
"275 90 CURVE",
"275 -12 LINE"
);
},
{
closed = 1;
nodes = (
"649 285 OFFCURVE",
"609 340 OFFCURVE",
"537 384 CURVE SMOOTH",
"471 425 LINE SMOOTH",
"436 447 OFFCURVE",
"417 470 OFFCURVE",
"417 510 CURVE SMOOTH",
"417 576 OFFCURVE",
"471 622 OFFCURVE",
"528 642 CURVE",
"541 747 LINE",
"484 758 OFFCURVE",
"371 768 OFFCURVE",
"301 768 CURVE SMOOTH",
"148 768 OFFCURVE",
"44 703 OFFCURVE",
"44 492 CURVE SMOOTH",
"44 0 LINE",
"189 0 LINE",
"189 497 LINE SMOOTH",
"189 600 OFFCURVE",
"240 651 OFFCURVE",
"318 651 CURVE SMOOTH",
"377 651 LINE",
"320 623 OFFCURVE",
"276 554 OFFCURVE",
"276 487 CURVE SMOOTH",
"276 410 OFFCURVE",
"305 365 OFFCURVE",
"363 328 CURVE SMOOTH",
"432 284 LINE SMOOTH",
"483 251 OFFCURVE",
"516 223 OFFCURVE",
"516 170 CURVE SMOOTH",
"516 139 OFFCURVE",
"496 102 OFFCURVE",
"447 102 CURVE SMOOTH",
"401 102 OFFCURVE",
"367 135 OFFCURVE",
"365 213 CURVE",
"242 186 LINE",
"248 50 OFFCURVE",
"325 -14 OFFCURVE",
"440 -14 CURVE SMOOTH",
"569 -14 OFFCURVE",
"649 79 OFFCURVE",
"649 194 CURVE SMOOTH"
);
}
);
};
guideLines = (
{
angle = 7;
position = "{332, 213}";
},
{
angle = 97;
position = "{549, 642}";
}
);
layerId = "849A9C4C-BF7C-40C5-8614-1FD725A2A379";
paths = (
{
closed = 1;
nodes = (
"642 277 OFFCURVE",
"602 331 OFFCURVE",
"540 375 CURVE SMOOTH",
"467 427 LINE SMOOTH",
"430 453 OFFCURVE",
"406 475 OFFCURVE",
"406 515 CURVE SMOOTH",
"406 594 OFFCURVE",
"497 625 OFFCURVE",
"568 626 CURVE",
"582 737 LINE",
"497 755 OFFCURVE",
"386 768 OFFCURVE",
"301 768 CURVE SMOOTH",
"148 768 OFFCURVE",
"44 703 OFFCURVE",
"44 492 CURVE SMOOTH",
"44 0 LINE",
"189 0 LINE",
"189 497 LINE SMOOTH",
"189 600 OFFCURVE",
"240 651 OFFCURVE",
"318 651 CURVE SMOOTH",
"356 651 OFFCURVE",
"385 649 OFFCURVE",
"429 645 CURVE",
"428 653 LINE",
"333 646 OFFCURVE",
"271 576 OFFCURVE",
"271 492 CURVE SMOOTH",
"271 421 OFFCURVE",
"306 373 OFFCURVE",
"363 332 CURVE SMOOTH",
"443 275 LINE SMOOTH",
"479 249 OFFCURVE",
"509 219 OFFCURVE",
"509 174 CURVE SMOOTH",
"509 134 OFFCURVE",
"481 102 OFFCURVE",
"440 102 CURVE SMOOTH",
"389 102 OFFCURVE",
"362 140 OFFCURVE",
"358 212 CURVE",
"238 197 LINE",
"244 54 OFFCURVE",
"319 -14 OFFCURVE",
"438 -14 CURVE SMOOTH",
"565 -14 OFFCURVE",
"642 72 OFFCURVE",
"642 187 CURVE SMOOTH"
);
}
);
width = 656;
}
);
leftKerningGroup = STRAIGHT;
rightKerningGroup = SMALL;
unicode = 1E9E;
},
{
glyphname = Schwa;
lastChange = "2017-10-20 01:05:48 +0000";
layers = (
{
guideLines = (
{
angle = -12;
position = "{43, 557}";
}
);
layerId = "849A9C4C-BF7C-40C5-8614-1FD725A2A379";
paths = (
{
closed = 1;
nodes = (
"456 -16 OFFCURVE",
"500 190 OFFCURVE",
"500 383 CURVE SMOOTH",
"500 628 OFFCURVE",
"433 764 OFFCURVE",
"264 764 CURVE SMOOTH",
"140 764 OFFCURVE",
"67 688 OFFCURVE",
"44 553 CURVE",
"178 523 LINE",
"186 590 OFFCURVE",
"211 641 OFFCURVE",
"264 641 CURVE SMOOTH",
"347 641 OFFCURVE",
"353 505 OFFCURVE",
"353 403 CURVE",
"41 403 LINE",
"39 382 OFFCURVE",
"38 360 OFFCURVE",
"38 338 CURVE SMOOTH",
"38 139 OFFCURVE",
"84 -16 OFFCURVE",
"270 -16 CURVE SMOOTH"
);
},
{
closed = 1;
nodes = (
"199 109 OFFCURVE",
"184 183 OFFCURVE",
"186 296 CURVE",
"351 296 LINE",
"349 187 OFFCURVE",
"329 109 OFFCURVE",
"270 109 CURVE SMOOTH"
);
}
);
width = 542;
}
);
leftKerningGroup = ROUND;
rightKerningGroup = ROUND;
unicode = 018F;
},
{
glyphname = T;
lastChange = "2018-01-16 00:14:40 +0000";
layers = (
{
anchors = (
{
name = bottom;
position = "{226, 0}";
},
{
name = center;
position = "{226, 375}";
},
{
name = top;
position = "{226, 750}";
}
);
background = {
paths = (
{
closed = 1;
nodes = (
"300 6 LINE",
"300 633 LINE",
"440 633 LINE",
"452 750 LINE",
"12 750 LINE",
"1 633 LINE",
"154 633 LINE",
"154 -6 LINE"
);
}
);
};
guideLines = (
{
angle = 83;
position = "{13, 750}";
},
{
angle = 83;
position = "{453, 750}";
}
);
layerId = "849A9C4C-BF7C-40C5-8614-1FD725A2A379";
paths = (
{
closed = 1;
nodes = (
"300 0 LINE",
"300 628 LINE",
"435 628 LINE",
"449 750 LINE",
"8 750 LINE",
"8 628 LINE",
"154 628 LINE",
"154 0 LINE"
);
}
);
width = 457;
}
);
leftKerningGroup = OPEN;
rightKerningGroup = OPEN;
unicode = 0054;
},
{
glyphname = Tbar;
lastChange = "2017-10-20 00:49:24 +0000";
layers = (
{
components = (
{
name = T;
}
);
guideLines = (
{
angle = 83;
position = "{376, 393}";
}
);
layerId = "849A9C4C-BF7C-40C5-8614-1FD725A2A379";
paths = (
{
closed = 1;
nodes = (
"366 277 LINE",
"377 371 LINE",
"95 371 LINE",
"95 277 LINE"
);
}
);
width = 457;
}
);
leftKerningGroup = OPEN;
leftMetricsKey = T;
rightKerningGroup = OPEN;
rightMetricsKey = T;
unicode = 0166;
},
{
glyphname = U;
lastChange = "2018-01-16 00:17:55 +0000";
layers = (
{
anchors = (
{
name = bottom;
position = "{279, 0}";
},
{
name = ogonek;
position = "{448, 5}";
},
{
name = top;
position = "{281, 750}";
},
{
name = topright;
position = "{505, 480}";
}
);
background = {
components = (
{
name = O;
transform = "{1, 0, 0, 1, 17, 0}";
},
{
name = H;
transform = "{1, 0, 0, 1, -11, 0}";
}
);
};
guideLines = (
{
angle = 7;
position = "{498, 762}";
},
{
angle = 7;
position = "{206, 751}";
}
);
layerId = "849A9C4C-BF7C-40C5-8614-1FD725A2A379";
paths = (
{
closed = 1;
nodes = (
"437 -14 OFFCURVE",
"507 97 OFFCURVE",
"507 243 CURVE SMOOTH",
"507 750 LINE",
"370 750 LINE",
"370 230 LINE SMOOTH",
"370 157 OFFCURVE",
"342 109 OFFCURVE",
"286 109 CURVE SMOOTH",
"230 109 OFFCURVE",
"202 157 OFFCURVE",
"202 230 CURVE SMOOTH",
"202 750 LINE",
"55 750 LINE",
"55 243 LINE SMOOTH",
"55 76 OFFCURVE",
"125 -14 OFFCURVE",
"284 -14 CURVE SMOOTH"
);
}
);
width = 562;
}
);
leftKerningGroup = U;
rightKerningGroup = U;
unicode = 0055;
},
{
glyphname = V;
lastChange = "2018-01-16 00:27:20 +0000";
layers = (
{
anchors = (
{
name = bottom;
position = "{251, 0}";
},
{
name = top;
position = "{251, 750}";
}
);
background = {
components = (
{
name = A;
transform = "{-1, 0, 0, -1, 541, 750}";
}
);
paths = (
{
closed = 1;
nodes = (
"330 0 LINE",
"510 750 LINE",
"369 744 LINE",
"265 232 LINE",
"166 750 LINE",
"-8 744 LINE",
"169 0 LINE"
);
}
);
};
guideLines = (
{
angle = 7;
position = "{7, 750}";
},
{
angle = -7;
position = "{371, 761}";
}
);
layerId = "849A9C4C-BF7C-40C5-8614-1FD725A2A379";
paths = (
{
closed = 1;
nodes = (
"342 8 LINE",
"500 751 LINE",
"371 752 LINE",
"265 207 LINE",
"257 154 LINE",
"250 207 LINE",
"151 760 LINE",
"8 742 LINE",
"173 -13 LINE"
);
}
);
width = 508;
}
);
leftKerningGroup = ANGLE;
rightKerningGroup = ANGLE;
unicode = 0056;
},
{
glyphname = W;
lastChange = "2018-01-16 00:19:13 +0000";
layers = (
{
anchors = (
{
name = bottom;
position = "{383, 0}";
},
{
name = top;
position = "{383, 750}";
}
);
background = {
paths = (
{
closed = 1;
nodes = (
"296 0 LINE",
"377 458 LINE",
"456 0 LINE",
"601 0 LINE",
"762 750 LINE",
"627 744 LINE",
"532 296 LINE",
"453 750 LINE",
"333 744 LINE",
"248 301 LINE",
"169 750 LINE",
"9 744 LINE",
"162 0 LINE"
);
}
);
};
guideLines = (
{
angle = 7;
position = "{160, 758}";
},
{
position = "{532, -8}";
},
{
angle = 7;
position = "{607, 6}";
}
);
layerId = "849A9C4C-BF7C-40C5-8614-1FD725A2A379";
paths = (
{
closed = 1;
nodes = (
"304 0 LINE",
"383 515 LINE",
"457 0 LINE",
"605 0 LINE",
"752 751 LINE",
"622 751 LINE",
"538 202 LINE",
"532 251 LINE",
"461 746 LINE",
"316 746 LINE",
"240 254 LINE",
"233 202 LINE",
"160 761 LINE",
"8 742 LINE",
"149 0 LINE"
);
}
);
width = 760;
}
);
leftKerningGroup = ANGLE;
rightKerningGroup = ANGLE;
unicode = 0057;
},
{
glyphname = X;
lastChange = "2018-01-16 00:27:50 +0000";
layers = (
{
anchors = (
{
name = bottom;
position = "{270, 0}";
},
{
name = top;
position = "{270, 750}";
}
);
guideLines = (
{
angle = 15;
position = "{161, 761}";
},
{
angle = 7;
position = "{378, -12}";
},
{
angle = 173;
position = "{375, 756}";
},
{
angle = 173;
position = "{144, -12}";
},
{
angle = 16;
position = "{349, -17}";
}
);
layerId = "849A9C4C-BF7C-40C5-8614-1FD725A2A379";
paths = (
{
closed = 1;
nodes = (
"484 750 LINE",
"351 750 LINE",
"229 417 LINE",
"184 417 LINE",
"20 0 LINE",
"156 0 LINE",
"269 315 LINE",
"317 315 LINE"
);
},
{
closed = 1;
nodes = (
"164 762 LINE",
"29 725 LINE",
"185 327 LINE",
"224 327 LINE",
"356 -22 LINE",
"488 18 LINE",
"318 438 LINE",
"274 438 LINE"
);
}
);
width = 508;
}
);
leftKerningGroup = VOID;
rightKerningGroup = VOID;
unicode = 0058;
},
{
glyphname = Y;
lastChange = "2018-01-16 00:07:24 +0000";
layers = (
{
anchors = (
{
name = bottom;
position = "{250, 0}";
},
{
name = top;
position = "{250, 750}";
},
{
name = topleft;
position = "{9, 750}";
}
);
guideLines = (
{
angle = 7;
position = "{321, 266}";
},
{
angle = 7;
position = "{157, 756}";
},
{
angle = 71.7762;
position = "{321, 266}";
},
{
angle = -74.2967;
position = "{153, 758}";
}
);
layerId = "849A9C4C-BF7C-40C5-8614-1FD725A2A379";
paths = (
{
closed = 1;
nodes = (
"321 0 LINE",
"321 266 LINE",
"487 750 LINE",
"349 752 LINE",
"261 439 LINE",
"252 398 LINE",
"243 439 LINE",
"148 761 LINE",
"8 739 LINE",
"174 248 LINE",
"174 0 LINE"
);
}
);
width = 495;
}
);
leftKerningGroup = OPEN;
rightKerningGroup = OPEN;
unicode = 0059;
},
{
glyphname = Z;
lastChange = "2018-01-15 23:46:26 +0000";
layers = (
{
anchors = (
{
name = bottom;
position = "{225, 0}";
},
{
name = top;
position = "{243, 750}";
}
);
background = {
components = (
{
name = H;
transform = "{1, 0, 0, 1, -63, 0}";
}
);
};
guideLines = (
{
angle = 263;
position = "{41, 765}";
},
{
angle = -83;
position = "{32, 0}";
},
{
angle = 263;
position = "{439, 122}";
},
{
angle = 244.091;
position = "{19, 107}";
},
{
angle = -83;
position = "{436, 607}";
}
);
layerId = "849A9C4C-BF7C-40C5-8614-1FD725A2A379";
paths = (
{
closed = 1;
nodes = (
"430 0 LINE",
"445 122 LINE",
"181 122 LINE",
"442 651 LINE",
"430 750 LINE",
"35 750 LINE",
"34 632 LINE",
"281 632 LINE",
"20 103 LINE",
"32 0 LINE"
);
}
);
width = 465;
}
);
leftKerningGroup = VOID;
rightKerningGroup = VOID;
unicode = 005A;
},
{
glyphname = C.001;
lastChange = "2017-10-13 00:32:11 +0000";
layers = (
{
anchors = (
{
name = bottom;
position = "{269, 0}";
},
{
name = top;
position = "{261, 750}";
}
);
background = {
components = (
{
name = O.001;
transform = "{1, 0, 0, 1, -23, 0}";
}
);
paths = (
{
closed = 1;
nodes = (
"418 -14 OFFCURVE",
"487 116 OFFCURVE",
"487 255 CURVE",
"362 267 LINE",
"357 202 OFFCURVE",
"344 104 OFFCURVE",
"283 104 CURVE SMOOTH",
"199 104 OFFCURVE",
"186 249 OFFCURVE",
"186 391 CURVE SMOOTH",
"186 501 OFFCURVE",
"199 646 OFFCURVE",
"269 646 CURVE SMOOTH",
"341 646 OFFCURVE",
"344 501 OFFCURVE",
"344 486 CURVE",
"486 493 LINE",
"486 625 OFFCURVE",
"409 764 OFFCURVE",
"277 764 CURVE SMOOTH",
"102 764 OFFCURVE",
"40 559 OFFCURVE",
"40 391 CURVE SMOOTH",
"40 201 OFFCURVE",
"85 -14 OFFCURVE",
"274 -14 CURVE SMOOTH"
);
},
{
closed = 1;
nodes = (
"418 -14 OFFCURVE",
"487 116 OFFCURVE",
"487 255 CURVE",
"362 267 LINE",
"357 202 OFFCURVE",
"344 104 OFFCURVE",
"283 104 CURVE SMOOTH",
"199 104 OFFCURVE",
"186 249 OFFCURVE",
"186 391 CURVE SMOOTH",
"186 501 OFFCURVE",
"199 646 OFFCURVE",
"269 646 CURVE SMOOTH",
"341 646 OFFCURVE",
"344 501 OFFCURVE",
"344 486 CURVE",
"486 493 LINE",
"486 625 OFFCURVE",
"409 764 OFFCURVE",
"277 764 CURVE SMOOTH",
"102 764 OFFCURVE",
"40 559 OFFCURVE",
"40 391 CURVE SMOOTH",
"40 201 OFFCURVE",
"85 -14 OFFCURVE",
"274 -14 CURVE SMOOTH"
);
},
{
closed = 1;
nodes = (
"88 764 OFFCURVE",
"20 590 OFFCURVE",
"20 369 CURVE SMOOTH",
"20 163 OFFCURVE",
"96 -14 OFFCURVE",
"277 -14 CURVE SMOOTH",
"407 -14 OFFCURVE",
"470 71 OFFCURVE",
"501 187 CURVE",
"374 214 LINE",
"365 157 OFFCURVE",
"336 114 OFFCURVE",
"282 114 CURVE SMOOTH",
"188 114 OFFCURVE",
"171 245 OFFCURVE",
"171 370 CURVE SMOOTH",
"171 517 OFFCURVE",
"185 639 OFFCURVE",
"282 639 CURVE SMOOTH",
"340 639 OFFCURVE",
"361 591 OFFCURVE",
"375 542 CURVE",
"497 568 LINE",
"465 680 OFFCURVE",
"401 764 OFFCURVE",
"277 764 CURVE SMOOTH"
);
}
);
};
guideLines = (
{
position = "{361, 445}";
},
{
angle = -7;
position = "{500, 244}";
},
{
angle = 7;
position = "{503, 488}";
},
{
position = "{156, 252}";
}
);
layerId = "849A9C4C-BF7C-40C5-8614-1FD725A2A379";
paths = (
{
closed = 1;
nodes = (
"401 -14 OFFCURVE",
"465 70 OFFCURVE",
"497 182 CURVE",
"375 208 LINE",
"361 159 OFFCURVE",
"340 111 OFFCURVE",
"282 111 CURVE SMOOTH",
"192 111 OFFCURVE",
"171 231 OFFCURVE",
"171 378 CURVE SMOOTH",
"171 507 OFFCURVE",
"192 639 OFFCURVE",
"283 639 CURVE SMOOTH",
"336 639 OFFCURVE",
"361 591 OFFCURVE",
"372 535 CURVE",
"501 563 LINE",
"473 685 OFFCURVE",
"407 764 OFFCURVE",
"277 764 CURVE SMOOTH",
"101 764 OFFCURVE",
"20 585 OFFCURVE",
"20 379 CURVE SMOOTH",
"20 158 OFFCURVE",
"93 -14 OFFCURVE",
"277 -14 CURVE SMOOTH"
);
}
);
width = 522;
}
);
},
{
glyphname = H.001;
lastChange = "2017-10-13 00:32:11 +0000";
layers = (
{
anchors = (
{
name = bottom;
position = "{297, 0}";
},
{
name = center;
position = "{297, 375}";
},
{
name = top;
position = "{297, 750}";
},
{
name = topleft;
position = "{20, 750}";
}
);
background = {
paths = (
{
closed = 1;
nodes = (
"227 6 LINE",
"227 312 LINE",
"367 312 LINE",
"367 -6 LINE",
"514 6 LINE",
"514 750 LINE",
"367 738 LINE",
"367 446 LINE",
"227 446 LINE",
"227 750 LINE",
"80 738 LINE",
"80 -6 LINE"
);
}
);
};
guideLines = (
{
position = "{-243, 795}";
},
{
angle = 4.6669;
position = "{451, 750}";
}
);
layerId = "849A9C4C-BF7C-40C5-8614-1FD725A2A379";
paths = (
{
closed = 1;
nodes = (
"216 0 LINE",
"217 309 LINE",
"377 309 LINE",
"377 0 LINE",
"524 0 LINE",
"523 342 OFFCURVE",
"522 609 OFFCURVE",
"524 756 CURVE",
"475 750 OFFCURVE",
"425 746 OFFCURVE",
"377 744 CURVE",
"377 429 LINE",
"217 429 LINE",
"217 756 LINE",
"170 750 OFFCURVE",
"121 746 OFFCURVE",
"70 744 CURVE",
"70 496 OFFCURVE",
"69 248 OFFCURVE",
"69 0 CURVE"
);
}
);
width = 594;
}
);
},
{
glyphname = M.001;
lastChange = "2017-10-13 00:32:11 +0000";
layers = (
{
anchors = (
{
name = bottom;
position = "{397, 0}";
},
{
name = top;
position = "{397, 750}";
}
);
background = {
paths = (
{
closed = 1;
nodes = (
"724 6 LINE",
"724 744 LINE",
"528 732 LINE",
"409 285 LINE",
"285 749 LINE",
"70 743 LINE",
"70 0 LINE",
"191 6 LINE",
"191 559 LINE",
"342 0 LINE",
"432 0 LINE",
"572 557 LINE",
"572 -6 LINE"
);
}
);
};
guideLines = (
{
angle = 7;
position = "{724, 756}";
},
{
angle = 7;
position = "{575, -10}";
}
);
layerId = "849A9C4C-BF7C-40C5-8614-1FD725A2A379";
paths = (
{
closed = 1;
nodes = (
"724 0 LINE",
"724 751 LINE",
"528 750 LINE",
"402 285 LINE",
"274 756 LINE",
"70 731 LINE",
"70 0 LINE",
"202 1 LINE",
"202 566 LINE",
"347 0 LINE",
"437 0 LINE",
"575 563 LINE",
"575 0 LINE"
);
}
);
width = 794;
}
);
},
{
glyphname = O.001;
lastChange = "2017-10-13 00:32:11 +0000";
layers = (
{
anchors = (
{
name = bottom;
position = "{305, 0}";
},
{
name = center;
position = "{305, 375}";
},
{
name = ogonek;
position = "{475, 5}";
},
{
name = top;
position = "{305, 750}";
},
{
name = topleft;
position = "{40, 750}";
},
{
name = topright;
position = "{522, 463}";
}
);
background = {
paths = (
{
closed = 1;
nodes = (
"133 764 OFFCURVE",
"42 612 OFFCURVE",
"42 375 CURVE SMOOTH",
"42 138 OFFCURVE",
"133 -14 OFFCURVE",
"301 -14 CURVE SMOOTH",
"468 -14 OFFCURVE",
"559 138 OFFCURVE",
"559 375 CURVE SMOOTH",
"559 612 OFFCURVE",
"468 764 OFFCURVE",
"301 764 CURVE SMOOTH"
);
},
{
closed = 1;
nodes = (
"379 646 OFFCURVE",
"411 560 OFFCURVE",
"411 375 CURVE SMOOTH",
"411 191 OFFCURVE",
"379 104 OFFCURVE",
"301 104 CURVE SMOOTH",
"222 104 OFFCURVE",
"190 190 OFFCURVE",
"190 375 CURVE SMOOTH",
"190 560 OFFCURVE",
"222 646 OFFCURVE",
"301 646 CURVE SMOOTH"
);
}
);
};
layerId = "849A9C4C-BF7C-40C5-8614-1FD725A2A379";
paths = (
{
closed = 1;
nodes = (
"468 -14 OFFCURVE",
"559 138 OFFCURVE",
"559 375 CURVE SMOOTH",
"559 612 OFFCURVE",
"468 764 OFFCURVE",
"300 764 CURVE SMOOTH",
"133 764 OFFCURVE",
"42 612 OFFCURVE",
"42 375 CURVE SMOOTH",
"42 138 OFFCURVE",
"133 -14 OFFCURVE",
"300 -14 CURVE SMOOTH"
);
},
{
closed = 1;
nodes = (
"222 114 OFFCURVE",
"194 190 OFFCURVE",
"194 375 CURVE SMOOTH",
"194 559 OFFCURVE",
"222 636 OFFCURVE",
"300 636 CURVE SMOOTH",
"379 636 OFFCURVE",
"407 560 OFFCURVE",
"407 375 CURVE SMOOTH",
"407 190 OFFCURVE",
"379 114 OFFCURVE",
"300 114 CURVE SMOOTH"
);
}
);
width = 599;
}
);
},
{
glyphname = Q.001;
lastChange = "2017-10-13 00:32:11 +0000";
layers = (
{
anchors = (
{
name = bottom;
position = "{275, 0}";
},
{
name = top;
position = "{275, 750}";
}
);
components = (
{
name = O;
}
);
layerId = "849A9C4C-BF7C-40C5-8614-1FD725A2A379";
paths = (
{
closed = 1;
nodes = (
"428 -97 LINE",
"381 -66 OFFCURVE",
"346 -20 OFFCURVE",
"345 52 CURVE",
"246 31 LINE",
"246 -54 OFFCURVE",
"271 -127 OFFCURVE",
"338 -176 CURVE"
);
}
);
width = 549;
}
);
},
{
glyphname = M.002;
lastChange = "2017-10-13 00:32:11 +0000";
layers = (
{
anchors = (
{
name = bottom;
position = "{400, 0}";
},
{
name = top;
position = "{400, 750}";
}
);
background = {
paths = (
{
closed = 1;
nodes = (
"727 6 LINE",
"727 744 LINE",
"531 732 LINE",
"412 285 LINE",
"288 749 LINE",
"73 743 LINE",
"73 0 LINE",
"194 6 LINE",
"194 559 LINE",
"345 0 LINE",
"435 0 LINE",
"575 557 LINE",
"575 -6 LINE"
);
}
);
};
guideLines = (
{
angle = 7;
position = "{267, 759}";
},
{
angle = 7;
position = "{342, -4}";
}
);
layerId = "849A9C4C-BF7C-40C5-8614-1FD725A2A379";
paths = (
{
closed = 1;
nodes = (
"724 0 LINE",
"724 750 LINE",
"519 750 LINE",
"406 304 LINE",
"267 759 LINE",
"70 735 LINE",
"70 0 LINE",
"190 1 LINE",
"190 507 LINE",
"182 554 LINE",
"343 -3 LINE",
"442 9 LINE",
"584 554 LINE",
"577 509 LINE",
"577 0 LINE"
);
}
);
width = 794;
}
);
},
{
glyphname = B.ori;
lastChange = "2017-10-13 00:32:11 +0000";
layers = (
{
anchors = (
{
name = bottom;
position = "{276, 0}";
},
{
name = top;
position = "{276, 750}";
}
);
background = {
paths = (
{
closed = 1;
nodes = (
"190 0 LINE SMOOTH",
"348 0 OFFCURVE",
"521 35 OFFCURVE",
"521 210 CURVE SMOOTH",
"521 329 OFFCURVE",
"470 372 OFFCURVE",
"417 399 CURVE",
"467 424 OFFCURVE",
"498 484 OFFCURVE",
"498 557 CURVE SMOOTH",
"498 664 OFFCURVE",
"431 750 OFFCURVE",
"238 750 CURVE SMOOTH",
"70 750 LINE",
"70 0 LINE"
);
},
{
closed = 1;
nodes = (
"217 338 LINE",
"249 338 LINE SMOOTH",
"318 338 OFFCURVE",
"380 326 OFFCURVE",
"380 230 CURVE SMOOTH",
"380 186 OFFCURVE",
"351 117 OFFCURVE",
"244 117 CURVE SMOOTH",
"217 117 LINE"
);
},
{
closed = 1;
nodes = (
"212 633 LINE",
"241 633 LINE SMOOTH",
"306 633 OFFCURVE",
"362 617 OFFCURVE",
"362 542 CURVE SMOOTH",
"362 457 OFFCURVE",
"315 445 OFFCURVE",
"247 445 CURVE SMOOTH",
"212 445 LINE"
);
}
);
};
layerId = "849A9C4C-BF7C-40C5-8614-1FD725A2A379";
paths = (
{
closed = 1;
nodes = (
"190 0 LINE SMOOTH",
"348 0 OFFCURVE",
"521 35 OFFCURVE",
"521 210 CURVE SMOOTH",
"521 329 OFFCURVE",
"470 372 OFFCURVE",
"417 399 CURVE",
"467 424 OFFCURVE",
"498 484 OFFCURVE",
"498 557 CURVE SMOOTH",
"498 664 OFFCURVE",
"431 750 OFFCURVE",
"238 750 CURVE SMOOTH",
"70 750 LINE",
"70 0 LINE"
);
},
{
closed = 1;
nodes = (
"217 338 LINE",
"249 338 LINE SMOOTH",
"318 338 OFFCURVE",
"380 326 OFFCURVE",
"380 230 CURVE SMOOTH",
"380 186 OFFCURVE",
"351 117 OFFCURVE",
"244 117 CURVE SMOOTH",
"217 117 LINE"
);
},
{
closed = 1;
nodes = (
"212 633 LINE",
"241 633 LINE SMOOTH",
"306 633 OFFCURVE",
"362 617 OFFCURVE",
"362 542 CURVE SMOOTH",
"362 457 OFFCURVE",
"315 445 OFFCURVE",
"247 445 CURVE SMOOTH",
"212 445 LINE"
);
}
);
width = 551;
}
);
},
{
glyphname = C.ori;
lastChange = "2017-10-13 00:32:11 +0000";
layers = (
{
anchors = (
{
name = bottom;
position = "{269, 0}";
},
{
name = top;
position = "{261, 750}";
}
);
background = {
components = (
{
name = O.001;
transform = "{1, 0, 0, 1, -23, 0}";
}
);
paths = (
{
closed = 1;
nodes = (
"418 -14 OFFCURVE",
"487 116 OFFCURVE",
"487 255 CURVE",
"362 267 LINE",
"357 202 OFFCURVE",
"344 104 OFFCURVE",
"283 104 CURVE SMOOTH",
"199 104 OFFCURVE",
"186 249 OFFCURVE",
"186 391 CURVE SMOOTH",
"186 501 OFFCURVE",
"199 646 OFFCURVE",
"269 646 CURVE SMOOTH",
"341 646 OFFCURVE",
"344 501 OFFCURVE",
"344 486 CURVE",
"486 493 LINE",
"486 625 OFFCURVE",
"409 764 OFFCURVE",
"277 764 CURVE SMOOTH",
"102 764 OFFCURVE",
"40 559 OFFCURVE",
"40 391 CURVE SMOOTH",
"40 201 OFFCURVE",
"85 -14 OFFCURVE",
"274 -14 CURVE SMOOTH"
);
},
{
closed = 1;
nodes = (
"418 -14 OFFCURVE",
"487 116 OFFCURVE",
"487 255 CURVE",
"362 267 LINE",
"357 202 OFFCURVE",
"344 104 OFFCURVE",
"283 104 CURVE SMOOTH",
"199 104 OFFCURVE",
"186 249 OFFCURVE",
"186 391 CURVE SMOOTH",
"186 501 OFFCURVE",
"199 646 OFFCURVE",
"269 646 CURVE SMOOTH",
"341 646 OFFCURVE",
"344 501 OFFCURVE",
"344 486 CURVE",
"486 493 LINE",
"486 625 OFFCURVE",
"409 764 OFFCURVE",
"277 764 CURVE SMOOTH",
"102 764 OFFCURVE",
"40 559 OFFCURVE",
"40 391 CURVE SMOOTH",
"40 201 OFFCURVE",
"85 -14 OFFCURVE",
"274 -14 CURVE SMOOTH"
);
},
{
closed = 1;
nodes = (
"88 764 OFFCURVE",
"20 590 OFFCURVE",
"20 369 CURVE SMOOTH",
"20 163 OFFCURVE",
"96 -14 OFFCURVE",
"277 -14 CURVE SMOOTH",
"407 -14 OFFCURVE",
"470 71 OFFCURVE",
"501 187 CURVE",
"374 214 LINE",
"365 157 OFFCURVE",
"336 114 OFFCURVE",
"282 114 CURVE SMOOTH",
"188 114 OFFCURVE",
"171 245 OFFCURVE",
"171 370 CURVE SMOOTH",
"171 517 OFFCURVE",
"185 639 OFFCURVE",
"282 639 CURVE SMOOTH",
"340 639 OFFCURVE",
"361 591 OFFCURVE",
"375 542 CURVE",
"497 568 LINE",
"465 680 OFFCURVE",
"401 764 OFFCURVE",
"277 764 CURVE SMOOTH"
);
}
);
};
guideLines = (
{
position = "{361, 445}";
},
{
angle = -12;
position = "{371, 209}";
},
{
angle = 12;
position = "{368, 534}";
},
{
position = "{156, 252}";
}
);
layerId = "849A9C4C-BF7C-40C5-8614-1FD725A2A379";
paths = (
{
closed = 1;
nodes = (
"418 -14 OFFCURVE",
"487 116 OFFCURVE",
"487 255 CURVE",
"362 267 LINE",
"357 202 OFFCURVE",
"344 104 OFFCURVE",
"283 104 CURVE SMOOTH",
"199 104 OFFCURVE",
"186 249 OFFCURVE",
"186 391 CURVE SMOOTH",
"186 501 OFFCURVE",
"199 646 OFFCURVE",
"269 646 CURVE SMOOTH",
"341 646 OFFCURVE",
"344 501 OFFCURVE",
"344 486 CURVE",
"486 493 LINE",
"486 625 OFFCURVE",
"409 764 OFFCURVE",
"277 764 CURVE SMOOTH",
"102 764 OFFCURVE",
"40 559 OFFCURVE",
"40 391 CURVE SMOOTH",
"40 201 OFFCURVE",
"85 -14 OFFCURVE",
"274 -14 CURVE SMOOTH"
);
}
);
width = 522;
}
);
},
{
glyphname = E.ori;
lastChange = "2017-10-13 00:32:11 +0000";
layers = (
{
anchors = (
{
name = bottom;
position = "{242, 0}";
},
{
name = ogonek;
position = "{459, 0}";
},
{
name = top;
position = "{242, 750}";
},
{
name = topleft;
position = "{10, 750}";
}
);
guideLines = (
{
position = "{447, 622}";
},
{
position = "{405, 443}";
}
);
layerId = "849A9C4C-BF7C-40C5-8614-1FD725A2A379";
paths = (
{
closed = 1;
nodes = (
"459 117 LINE",
"217 117 LINE",
"217 328 LINE",
"374 328 LINE",
"375 454 LINE",
"217 454 LINE",
"217 633 LINE",
"439 633 LINE",
"451 750 LINE",
"70 750 LINE",
"70 0 LINE",
"447 0 LINE"
);
}
);
width = 483;
}
);
},
{
glyphname = F.ori;
lastChange = "2017-10-13 00:32:11 +0000";
layers = (
{
anchors = (
{
name = bottom;
position = "{230, 0}";
},
{
name = top;
position = "{230, 750}";
}
);
guideLines = (
{
position = "{7, 438}";
}
);
layerId = "849A9C4C-BF7C-40C5-8614-1FD725A2A379";
paths = (
{
closed = 1;
nodes = (
"217 312 LINE",
"374 312 LINE",
"374 436 LINE",
"217 436 LINE",
"217 632 LINE",
"439 632 LINE",
"451 750 LINE",
"70 750 LINE",
"70 -6 LINE",
"217 6 LINE"
);
}
);
width = 460;
}
);
},
{
glyphname = G.ori;
lastChange = "2017-10-13 00:32:11 +0000";
layers = (
{
anchors = (
{
name = bottom;
position = "{276, 0}";
},
{
name = top;
position = "{276, 750}";
}
);
background = {
paths = (
{
closed = 1;
nodes = (
"379 -14 OFFCURVE",
"402 91 OFFCURVE",
"413 139 CURVE",
"437 40 OFFCURVE",
"446 6 OFFCURVE",
"447 0 CURVE",
"503 6 LINE",
"503 375 LINE",
"300 375 LINE",
"288 263 LINE",
"362 263 LINE",
"362 179 OFFCURVE",
"334 104 OFFCURVE",
"282 104 CURVE SMOOTH",
"186 104 OFFCURVE",
"186 263 OFFCURVE",
"186 370 CURVE SMOOTH",
"186 484 OFFCURVE",
"203 646 OFFCURVE",
"281 646 CURVE SMOOTH",
"351 646 OFFCURVE",
"353 552 OFFCURVE",
"361 496 CURVE",
"500 505 LINE",
"500 640 OFFCURVE",
"435 764 OFFCURVE",
"283 764 CURVE SMOOTH",
"103 764 OFFCURVE",
"40 551 OFFCURVE",
"40 378 CURVE SMOOTH",
"40 173 OFFCURVE",
"96 -14 OFFCURVE",
"254 -14 CURVE SMOOTH"
);
}
);
};
layerId = "849A9C4C-BF7C-40C5-8614-1FD725A2A379";
paths = (
{
closed = 1;
nodes = (
"379 -14 OFFCURVE",
"402 91 OFFCURVE",
"413 139 CURVE",
"437 40 OFFCURVE",
"446 6 OFFCURVE",
"447 0 CURVE",
"503 6 LINE",
"503 375 LINE",
"300 375 LINE",
"288 263 LINE",
"362 263 LINE",
"362 179 OFFCURVE",
"334 104 OFFCURVE",
"282 104 CURVE SMOOTH",
"186 104 OFFCURVE",
"186 263 OFFCURVE",
"186 370 CURVE SMOOTH",
"186 484 OFFCURVE",
"203 646 OFFCURVE",
"281 646 CURVE SMOOTH",
"345 646 OFFCURVE",
"358 573 OFFCURVE",
"361 496 CURVE",
"500 505 LINE",
"500 653 OFFCURVE",
"435 764 OFFCURVE",
"283 764 CURVE SMOOTH",
"103 764 OFFCURVE",
"40 551 OFFCURVE",
"40 378 CURVE SMOOTH",
"40 173 OFFCURVE",
"96 -14 OFFCURVE",
"254 -14 CURVE SMOOTH"
);
}
);
width = 553;
}
);
},
{
glyphname = Hbar.ori;
lastChange = "2017-10-13 00:32:11 +0000";
layers = (
{
background = {
components = (
{
name = H;
}
);
};
layerId = "849A9C4C-BF7C-40C5-8614-1FD725A2A379";
paths = (
{
closed = 1;
nodes = (
"71 -6 LINE",
"217 6 LINE",
"217 312 LINE",
"358 312 LINE",
"358 -6 LINE",
"504 6 LINE",
"504 646 LINE",
"504 750 LINE",
"358 738 LINE",
"358 646 LINE",
"358 446 LINE",
"217 446 LINE",
"217 646 LINE",
"217 750 LINE",
"71 738 LINE",
"71 646 LINE"
);
},
{
closed = 1;
nodes = (
"556 567 LINE",
"556 656 LINE",
"13 656 LINE",
"13 567 LINE"
);
}
);
width = 576;
}
);
},
{
glyphname = K.ori;
lastChange = "2017-10-13 00:32:11 +0000";
layers = (
{
anchors = (
{
name = bottom;
position = "{281, 0}";
},
{
name = top;
position = "{281, 750}";
}
);
layerId = "849A9C4C-BF7C-40C5-8614-1FD725A2A379";
paths = (
{
closed = 1;
nodes = (
"553 21 LINE",
"390 440 LINE",
"551 750 LINE",
"395 750 LINE",
"217 422 LINE",
"217 750 LINE",
"70 738 LINE",
"70 0 LINE",
"217 0 LINE",
"217 237 LINE",
"274 336 LINE",
"404 -13 LINE"
);
}
);
width = 563;
}
);
},
{
glyphname = M.ori;
lastChange = "2017-10-13 00:32:11 +0000";
layers = (
{
anchors = (
{
name = bottom;
position = "{397, 0}";
},
{
name = top;
position = "{397, 750}";
}
);
background = {
paths = (
{
closed = 1;
nodes = (
"724 6 LINE",
"724 744 LINE",
"528 732 LINE",
"409 285 LINE",
"285 749 LINE",
"70 743 LINE",
"70 0 LINE",
"191 6 LINE",
"191 559 LINE",
"342 0 LINE",
"432 0 LINE",
"572 557 LINE",
"572 -6 LINE"
);
}
);
};
guideLines = (
{
angle = 7;
position = "{340, -7}";
},
{
angle = 7;
position = "{575, -10}";
}
);
layerId = "849A9C4C-BF7C-40C5-8614-1FD725A2A379";
paths = (
{
closed = 1;
nodes = (
"724 6 LINE",
"724 744 LINE",
"528 732 LINE",
"409 285 LINE",
"285 749 LINE",
"70 743 LINE",
"70 0 LINE",
"191 6 LINE",
"191 559 LINE",
"342 0 LINE",
"432 0 LINE",
"572 557 LINE",
"572 -6 LINE"
);
}
);
width = 794;
}
);
},
{
glyphname = O.ori;
lastChange = "2017-10-13 00:32:11 +0000";
layers = (
{
anchors = (
{
name = bottom;
position = "{275, 0}";
},
{
name = center;
position = "{275, 375}";
},
{
name = ogonek;
position = "{445, 5}";
},
{
name = top;
position = "{275, 750}";
},
{
name = topleft;
position = "{10, 750}";
},
{
name = topright;
position = "{492, 463}";
}
);
background = {
paths = (
{
closed = 1;
nodes = (
"463 -14 OFFCURVE",
"507 192 OFFCURVE",
"507 383 CURVE SMOOTH",
"507 623 OFFCURVE",
"438 764 OFFCURVE",
"274 764 CURVE SMOOTH",
"104 764 OFFCURVE",
"42 613 OFFCURVE",
"42 379 CURVE SMOOTH",
"42 180 OFFCURVE",
"87 -14 OFFCURVE",
"272 -14 CURVE SMOOTH"
);
},
{
closed = 1;
nodes = (
"197 104 OFFCURVE",
"188 223 OFFCURVE",
"188 385 CURVE SMOOTH",
"188 490 OFFCURVE",
"192 646 OFFCURVE",
"274 646 CURVE SMOOTH",
"356 646 OFFCURVE",
"361 490 OFFCURVE",
"361 384 CURVE SMOOTH",
"361 222 OFFCURVE",
"351 104 OFFCURVE",
"274 104 CURVE SMOOTH"
);
}
);
};
layerId = "849A9C4C-BF7C-40C5-8614-1FD725A2A379";
paths = (
{
closed = 1;
nodes = (
"463 -14 OFFCURVE",
"507 192 OFFCURVE",
"507 383 CURVE SMOOTH",
"507 623 OFFCURVE",
"438 764 OFFCURVE",
"274 764 CURVE SMOOTH",
"104 764 OFFCURVE",
"42 613 OFFCURVE",
"42 379 CURVE SMOOTH",
"42 180 OFFCURVE",
"87 -14 OFFCURVE",
"272 -14 CURVE SMOOTH"
);
},
{
closed = 1;
nodes = (
"197 104 OFFCURVE",
"188 223 OFFCURVE",
"188 385 CURVE SMOOTH",
"188 490 OFFCURVE",
"192 646 OFFCURVE",
"274 646 CURVE SMOOTH",
"356 646 OFFCURVE",
"361 490 OFFCURVE",
"361 384 CURVE SMOOTH",
"361 222 OFFCURVE",
"351 104 OFFCURVE",
"274 104 CURVE SMOOTH"
);
}
);
width = 549;
}
);
},
{
glyphname = P.ori;
lastChange = "2017-10-13 00:32:11 +0000";
layers = (
{
anchors = (
{
name = bottom;
position = "{267, 0}";
},
{
name = top;
position = "{267, 750}";
}
);
layerId = "849A9C4C-BF7C-40C5-8614-1FD725A2A379";
paths = (
{
closed = 1;
nodes = (
"217 6 LINE",
"217 295 LINE",
"350 295 OFFCURVE",
"514 314 OFFCURVE",
"514 525 CURVE SMOOTH",
"514 718 OFFCURVE",
"407 750 OFFCURVE",
"219 750 CURVE SMOOTH",
"70 750 LINE",
"70 -6 LINE"
);
},
{
closed = 1;
nodes = (
"218 633 LINE",
"239 633 LINE SMOOTH",
"321 633 OFFCURVE",
"368 616 OFFCURVE",
"368 526 CURVE SMOOTH",
"368 434 OFFCURVE",
"311 414 OFFCURVE",
"243 414 CURVE SMOOTH",
"218 414 LINE"
);
}
);
width = 533;
}
);
},
{
glyphname = Thorn.ori;
lastChange = "2017-10-13 00:32:11 +0000";
layers = (
{
layerId = "849A9C4C-BF7C-40C5-8614-1FD725A2A379";
paths = (
{
closed = 1;
nodes = (
"215 -33 LINE",
"215 129 LINE",
"348 129 OFFCURVE",
"512 148 OFFCURVE",
"512 350 CURVE SMOOTH",
"512 551 OFFCURVE",
"356 568 OFFCURVE",
"216 570 CURVE",
"216 750 LINE",
"68 750 LINE",
"68 -45 LINE"
);
},
{
closed = 1;
nodes = (
"216 458 LINE",
"237 458 LINE SMOOTH",
"319 458 OFFCURVE",
"366 440 OFFCURVE",
"366 351 CURVE SMOOTH",
"366 259 OFFCURVE",
"309 238 OFFCURVE",
"241 238 CURVE SMOOTH",
"216 238 LINE"
);
}
);
width = 528;
}
);
},
{
glyphname = R.ori;
lastChange = "2017-10-13 00:32:11 +0000";
layers = (
{
anchors = (
{
name = bottom;
position = "{283, 0}";
},
{
name = top;
position = "{283, 750}";
}
);
background = {
components = (
{
name = P;
}
);
paths = (
{
closed = 1;
nodes = (
"551 26 LINE",
"483 188 LINE SMOOTH",
"450 268 OFFCURVE",
"416 350 OFFCURVE",
"416 351 CURVE",
"480 388 OFFCURVE",
"523 443 OFFCURVE",
"523 541 CURVE SMOOTH",
"523 688 OFFCURVE",
"413 750 OFFCURVE",
"248 750 CURVE",
"70 750 LINE",
"70 -6 LINE",
"216 6 LINE",
"216 329 LINE",
"273 329 LINE",
"407 -13 LINE"
);
},
{
closed = 1;
nodes = (
"216 633 LINE",
"285 633 LINE SMOOTH",
"337 633 OFFCURVE",
"377 610 OFFCURVE",
"377 540 CURVE SMOOTH",
"377 452 OFFCURVE",
"325 437 OFFCURVE",
"266 437 CURVE SMOOTH",
"216 437 LINE"
);
}
);
};
layerId = "849A9C4C-BF7C-40C5-8614-1FD725A2A379";
paths = (
{
closed = 1;
nodes = (
"551 26 LINE",
"483 188 LINE SMOOTH",
"450 268 OFFCURVE",
"416 350 OFFCURVE",
"416 351 CURVE",
"480 388 OFFCURVE",
"523 443 OFFCURVE",
"523 541 CURVE SMOOTH",
"523 688 OFFCURVE",
"413 750 OFFCURVE",
"248 750 CURVE",
"70 750 LINE",
"70 -6 LINE",
"216 6 LINE",
"216 329 LINE",
"273 329 LINE",
"407 -13 LINE"
);
},
{
closed = 1;
nodes = (
"216 633 LINE",
"285 633 LINE SMOOTH",
"337 633 OFFCURVE",
"377 610 OFFCURVE",
"377 540 CURVE SMOOTH",
"377 452 OFFCURVE",
"325 437 OFFCURVE",
"266 437 CURVE SMOOTH",
"216 437 LINE"
);
}
);
width = 565;
}
);
},
{
glyphname = S.ori;
lastChange = "2017-10-13 00:32:11 +0000";
layers = (
{
anchors = (
{
name = bottom;
position = "{267, 0}";
},
{
name = top;
position = "{267, 750}";
}
);
guideLines = (
{
angle = 150.8712;
position = "{235, 491}";
},
{
angle = 150.8712;
position = "{238, 315}";
},
{
angle = 216.2538;
position = "{59, 170}";
},
{
angle = 216.2538;
position = "{465, 589}";
}
);
layerId = "849A9C4C-BF7C-40C5-8614-1FD725A2A379";
paths = (
{
closed = 1;
nodes = (
"313 -14 OFFCURVE",
"353 -4 OFFCURVE",
"390 16 CURVE SMOOTH",
"462 56 OFFCURVE",
"507 131 OFFCURVE",
"507 226 CURVE",
"502 309 OFFCURVE",
"455 375 OFFCURVE",
"366 426 CURVE SMOOTH",
"245 497 LINE SMOOTH",
"220 512 OFFCURVE",
"199 539 OFFCURVE",
"199 571 CURVE SMOOTH",
"199 615 OFFCURVE",
"223 646 OFFCURVE",
"267 646 CURVE SMOOTH",
"303 646 OFFCURVE",
"327 630 OFFCURVE",
"344 593 CURVE SMOOTH",
"353 574 OFFCURVE",
"358 562 OFFCURVE",
"361 557 CURVE",
"485 613 LINE",
"450 713 OFFCURVE",
"377 764 OFFCURVE",
"274 764 CURVE SMOOTH",
"230 764 OFFCURVE",
"191 755 OFFCURVE",
"156 736 CURVE SMOOTH",
"86 699 OFFCURVE",
"42 628 OFFCURVE",
"42 541 CURVE SMOOTH",
"42 460 OFFCURVE",
"91 393 OFFCURVE",
"167 350 CURVE SMOOTH",
"298 272 LINE",
"327 253 OFFCURVE",
"348 221 OFFCURVE",
"348 184 CURVE SMOOTH",
"348 144 OFFCURVE",
"316 104 OFFCURVE",
"281 104 CURVE SMOOTH",
"228 104 OFFCURVE",
"198 143 OFFCURVE",
"159 210 CURVE SMOOTH",
"147 230 LINE",
"23 172 LINE",
"62 59 OFFCURVE",
"147 -14 OFFCURVE",
"268 -14 CURVE SMOOTH"
);
}
);
width = 533;
}
);
},
{
glyphname = V.ori;
lastChange = "2017-10-13 00:32:11 +0000";
layers = (
{
anchors = (
{
name = bottom;
position = "{267, 0}";
},
{
name = top;
position = "{267, 750}";
}
);
background = {
paths = (
{
closed = 1;
nodes = (
"346 0 LINE",
"526 750 LINE",
"385 744 LINE",
"281 232 LINE",
"182 750 LINE",
"8 744 LINE",
"185 0 LINE"
);
}
);
};
guideLines = (
{
angle = 7;
position = "{33, 743}";
}
);
layerId = "849A9C4C-BF7C-40C5-8614-1FD725A2A379";
paths = (
{
closed = 1;
nodes = (
"346 0 LINE",
"526 750 LINE",
"385 744 LINE",
"281 232 LINE",
"182 750 LINE",
"8 744 LINE",
"185 0 LINE"
);
}
);
width = 533;
}
);
},
{
glyphname = W.ori;
lastChange = "2017-10-13 00:32:11 +0000";
layers = (
{
anchors = (
{
name = bottom;
position = "{387, 0}";
},
{
name = top;
position = "{387, 750}";
}
);
background = {
paths = (
{
closed = 1;
nodes = (
"300 0 LINE",
"381 458 LINE",
"460 0 LINE",
"605 0 LINE",
"766 750 LINE",
"631 744 LINE",
"536 296 LINE",
"457 750 LINE",
"337 744 LINE",
"252 301 LINE",
"173 750 LINE",
"13 744 LINE",
"166 0 LINE"
);
}
);
};
guideLines = (
{
angle = 2.1476;
position = "{93, 747}";
},
{
angle = 2.8624;
position = "{397, 747}";
},
{
angle = 2.5448;
position = "{699, 747}";
},
{
angle = 7;
position = "{-1, 743}";
}
);
layerId = "849A9C4C-BF7C-40C5-8614-1FD725A2A379";
paths = (
{
closed = 1;
nodes = (
"300 0 LINE",
"381 458 LINE",
"460 0 LINE",
"605 0 LINE",
"766 750 LINE",
"631 744 LINE",
"536 296 LINE",
"457 750 LINE",
"337 744 LINE",
"252 301 LINE",
"173 750 LINE",
"13 744 LINE",
"166 0 LINE"
);
}
);
width = 774;
}
);
},
{
glyphname = a;
lastChange = "2018-01-16 00:21:24 +0000";
layers = (
{
anchors = (
{
name = bottom;
position = "{223, 0}";
},
{
name = ogonek;
position = "{492, -4}";
},
{
name = top;
position = "{220, 563}";
}
);
background = {
components = (
{
name = s;
transform = "{1, 0, 0, 1, 5, 0}";
},
{
name = n;
transform = "{1, 0, 0, 1, -67, 0}";
}
);
paths = (
{
closed = 1;
nodes = (
"201 -13 OFFCURVE",
"247 22 OFFCURVE",
"270 63 CURVE",
"286 -6 LINE",
"423 6 LINE",
"413 41 OFFCURVE",
"408 69 OFFCURVE",
"408 106 CURVE SMOOTH",
"408 397 LINE SMOOTH",
"408 493 OFFCURVE",
"353 570 OFFCURVE",
"226 570 CURVE SMOOTH",
"145 570 OFFCURVE",
"62 539 OFFCURVE",
"39 427 CURVE",
"173 403 LINE",
"177 435 OFFCURVE",
"193 467 OFFCURVE",
"226 467 CURVE SMOOTH",
"267 467 OFFCURVE",
"267 416 OFFCURVE",
"267 361 CURVE",
"169 355 OFFCURVE",
"19 313 OFFCURVE",
"19 149 CURVE SMOOTH",
"19 42 OFFCURVE",
"74 -13 OFFCURVE",
"150 -13 CURVE SMOOTH"
);
},
{
closed = 1;
nodes = (
"174 87 OFFCURVE",
"157 117 OFFCURVE",
"157 166 CURVE SMOOTH",
"157 246 OFFCURVE",
"204 277 OFFCURVE",
"267 277 CURVE",
"267 121 LINE",
"249 102 OFFCURVE",
"235 87 OFFCURVE",
"210 87 CURVE SMOOTH"
);
}
);
};
guideLines = (
{
position = "{37, 471}";
},
{
angle = -12;
position = "{39, 415}";
}
);
layerId = "849A9C4C-BF7C-40C5-8614-1FD725A2A379";
paths = (
{
closed = 1;
nodes = (
"126 336 OFFCURVE",
"20 280 OFFCURVE",
"20 148 CURVE SMOOTH",
"20 48 OFFCURVE",
"72 -12 OFFCURVE",
"152 -12 CURVE SMOOTH",
"225 -12 OFFCURVE",
"267 35 OFFCURVE",
"284 92 CURVE",
"268 160 LINE",
"268 124 OFFCURVE",
"246 99 OFFCURVE",
"213 99 CURVE SMOOTH",
"177 99 OFFCURVE",
"159 126 OFFCURVE",
"159 168 CURVE SMOOTH",
"159 222 OFFCURVE",
"199 261 OFFCURVE",
"268 261 CURVE SMOOTH",
"280 261 LINE",
"280 336 LINE",
"268 336 LINE SMOOTH"
);
},
{
closed = 1;
nodes = (
"277 54 OFFCURVE",
"282 28 OFFCURVE",
"292 0 CURVE",
"428 0 LINE",
"413 45 OFFCURVE",
"408 94 OFFCURVE",
"408 148 CURVE SMOOTH",
"408 372 LINE SMOOTH",
"408 498 OFFCURVE",
"349 570 OFFCURVE",
"218 570 CURVE SMOOTH",
"125 570 OFFCURVE",
"51 521 OFFCURVE",
"34 414 CURVE",
"158 387 LINE",
"163 428 OFFCURVE",
"179 463 OFFCURVE",
"214 463 CURVE SMOOTH",
"255 463 OFFCURVE",
"268 428 OFFCURVE",
"268 387 CURVE SMOOTH",
"268 86 LINE",
"277 86 LINE"
);
}
);
width = 453;
}
);
leftKerningGroup = a;
rightKerningGroup = a;
unicode = 0061;
},
{
glyphname = aringacute;
lastChange = "2017-10-20 00:43:55 +0000";
layers = (
{
anchors = (
{
name = _top;
position = "{292, 728}";
},
{
name = top;
position = "{372, 1040}";
}
);
background = {
components = (
{
alignment = -1;
name = acutecomb;
transform = "{1, 0, 0, 1, 227, 165}";
}
);
};
components = (
{
name = aring;
}
);
layerId = "849A9C4C-BF7C-40C5-8614-1FD725A2A379";
paths = (
{
closed = 1;
nodes = (
"490 919 LINE",
"387 1014 LINE",
"277 815 LINE",
"309 788 LINE"
);
}
);
width = 471;
}
);
leftKerningGroup = small;
rightKerningGroup = a;
unicode = 01FB;
},
{
glyphname = ae;
lastChange = "2017-10-20 00:44:02 +0000";
layers = (
{
background = {
components = (
{
name = a;
transform = "{1, 0, 0, 1, -3, 0}";
},
{
name = e;
transform = "{1, 0, 0, 1, 236, 0}";
}
);
};
layerId = "849A9C4C-BF7C-40C5-8614-1FD725A2A379";
paths = (
{
closed = 1;
nodes = (
"268 -13 OFFCURVE",
"328 50 OFFCURVE",
"338 134 CURVE",
"310 134 LINE",
"345 24 OFFCURVE",
"399 -13 OFFCURVE",
"489 -13 CURVE SMOOTH",
"589 -13 OFFCURVE",
"653 61 OFFCURVE",
"670 154 CURVE",
"550 179 LINE",
"544 138 OFFCURVE",
"528 93 OFFCURVE",
"486 93 CURVE SMOOTH",
"415 93 OFFCURVE",
"411 194 OFFCURVE",
"411 279 CURVE",
"389 245 LINE",
"671 245 LINE",
"673 274 OFFCURVE",
"674 305 OFFCURVE",
"674 332 CURVE SMOOTH",
"674 466 OFFCURVE",
"616 570 OFFCURVE",
"486 570 CURVE SMOOTH",
"415 570 OFFCURVE",
"359 535 OFFCURVE",
"352 494 CURVE",
"366 494 LINE",
"356 545 OFFCURVE",
"301 570 OFFCURVE",
"240 570 CURVE SMOOTH",
"166 570 OFFCURVE",
"71 538 OFFCURVE",
"55 418 CURVE",
"179 391 LINE",
"185 433 OFFCURVE",
"203 463 OFFCURVE",
"236 463 CURVE SMOOTH",
"276 463 OFFCURVE",
"286 421 OFFCURVE",
"286 383 CURVE SMOOTH",
"286 336 LINE",
"152 336 OFFCURVE",
"26 285 OFFCURVE",
"26 150 CURVE SMOOTH",
"26 45 OFFCURVE",
"91 -13 OFFCURVE",
"193 -13 CURVE SMOOTH"
);
},
{
closed = 1;
nodes = (
"186 98 OFFCURVE",
"165 120 OFFCURVE",
"165 164 CURVE SMOOTH",
"165 231 OFFCURVE",
"217 261 OFFCURVE",
"284 261 CURVE",
"284 172 LINE SMOOTH",
"284 127 OFFCURVE",
"253 98 OFFCURVE",
"220 98 CURVE SMOOTH"
);
},
{
closed = 1;
nodes = (
"410 393 OFFCURVE",
"432 466 OFFCURVE",
"482 466 CURVE SMOOTH",
"536 466 OFFCURVE",
"548 398 OFFCURVE",
"545 290 CURVE",
"567 324 LINE",
"389 324 LINE",
"411 290 LINE"
);
}
);
width = 711;
}
);
leftKerningGroup = small;
rightKerningGroup = round;
unicode = 00E6;
},
{
glyphname = b;
lastChange = "2018-01-11 00:48:57 +0000";
layers = (
{
anchors = (
{
name = bottom;
position = "{248, 0}";
},
{
name = top;
position = "{248, 563}";
}
);
background = {
paths = (
{
closed = 1;
nodes = (
"414 -13 OFFCURVE",
"472 78 OFFCURVE",
"472 281 CURVE SMOOTH",
"472 495 OFFCURVE",
"413 570 OFFCURVE",
"333 570 CURVE SMOOTH",
"275 570 OFFCURVE",
"223 538 OFFCURVE",
"190 491 CURVE",
"190 750 LINE",
"50 732 LINE",
"50 0 LINE",
"159 0 LINE",
"190 70 LINE",
"202 28 OFFCURVE",
"229 -13 OFFCURVE",
"311 -13 CURVE SMOOTH"
);
},
{
closed = 1;
nodes = (
"225 87 OFFCURVE",
"190 117 OFFCURVE",
"190 234 CURVE SMOOTH",
"190 412 LINE",
"203 425 OFFCURVE",
"241 450 OFFCURVE",
"268 450 CURVE SMOOTH",
"320 450 OFFCURVE",
"332 409 OFFCURVE",
"332 281 CURVE SMOOTH",
"332 177 OFFCURVE",
"327 87 OFFCURVE",
"259 87 CURVE SMOOTH"
);
}
);
};
components = (
{
name = d_bowl;
transform = "{-1, 0, 0, -1, 468, 557}";
}
);
guideLines = (
{
angle = 7;
position = "{115, 751}";
},
{
angle = 7;
position = "{178, 8}";
}
);
layerId = "849A9C4C-BF7C-40C5-8614-1FD725A2A379";
paths = (
{
closed = 1;
nodes = (
"190 760 LINE",
"50 743 LINE",
"50 0 LINE",
"178 0 LINE",
"178 84 LINE",
"190 138 LINE"
);
}
);
width = 505;
}
);
leftKerningGroup = straight;
leftMetricsKey = l;
rightKerningGroup = round;
unicode = 0062;
},
{
glyphname = c;
lastChange = "2018-01-14 22:16:49 +0000";
layers = (
{
anchors = (
{
name = bottom;
position = "{236, 0}";
},
{
name = top;
position = "{230, 563}";
}
);
background = {
components = (
{
name = o;
transform = "{1, 0, 0, 1, -9, 0}";
}
);
};
guideLines = (
{
angle = 12;
position = "{429, 379}";
},
{
angle = 90;
position = "{237, 279}";
},
{
angle = 173.7516;
position = "{426, 183}";
},
{
position = "{530, 331}";
},
{
position = "{527, 197}";
}
);
layerId = "849A9C4C-BF7C-40C5-8614-1FD725A2A379";
paths = (
{
closed = 1;
nodes = (
"348 -13 OFFCURVE",
"417 76 OFFCURVE",
"429 182 CURVE",
"301 196 LINE",
"299 156 OFFCURVE",
"285 92 OFFCURVE",
"237 92 CURVE SMOOTH",
"186 92 OFFCURVE",
"168 165 OFFCURVE",
"168 278 CURVE SMOOTH",
"168 376 OFFCURVE",
"180 465 OFFCURVE",
"237 465 CURVE SMOOTH",
"283 465 OFFCURVE",
"295 403 OFFCURVE",
"299 353 CURVE",
"429 379 LINE",
"420 497 OFFCURVE",
"348 570 OFFCURVE",
"237 570 CURVE SMOOTH",
"106 570 OFFCURVE",
"25 457 OFFCURVE",
"25 278 CURVE SMOOTH",
"25 101 OFFCURVE",
"95 -13 OFFCURVE",
"237 -13 CURVE SMOOTH"
);
}
);
width = 444;
}
);
leftKerningGroup = round;
leftMetricsKey = o;
rightKerningGroup = superopen;
unicode = 0063;
},
{
glyphname = d;
lastChange = "2018-01-12 16:54:16 +0000";
layers = (
{
anchors = (
{
name = bottom;
position = "{256, 0}";
},
{
name = center;
position = "{350, 644}";
},
{
name = top;
position = "{256, 563}";
},
{
name = topright;
position = "{505, 563}";
}
);
background = {
paths = (
{
closed = 1;
nodes = (
"277 -13 OFFCURVE",
"304 28 OFFCURVE",
"315 70 CURVE",
"350 -6 LINE",
"456 6 LINE",
"456 750 LINE",
"315 732 LINE",
"315 488 LINE",
"295 534 OFFCURVE",
"247 570 OFFCURVE",
"198 570 CURVE SMOOTH",
"87 570 OFFCURVE",
"33 489 OFFCURVE",
"33 281 CURVE SMOOTH",
"33 78 OFFCURVE",
"92 -13 OFFCURVE",
"195 -13 CURVE SMOOTH"
);
},
{
closed = 1;
nodes = (
"178 87 OFFCURVE",
"174 177 OFFCURVE",
"174 281 CURVE SMOOTH",
"174 385 OFFCURVE",
"178 467 OFFCURVE",
"247 467 CURVE SMOOTH",
"274 467 OFFCURVE",
"297 450 OFFCURVE",
"315 422 CURVE",
"315 234 LINE SMOOTH",
"315 117 OFFCURVE",
"281 87 OFFCURVE",
"247 87 CURVE SMOOTH"
);
},
{
closed = 1;
nodes = (
"274 467 OFFCURVE",
"297 450 OFFCURVE",
"315 422 CURVE",
"315 488 LINE",
"295 534 OFFCURVE",
"247 570 OFFCURVE",
"198 570 CURVE SMOOTH",
"87 570 OFFCURVE",
"33 489 OFFCURVE",
"33 281 CURVE SMOOTH",
"33 78 OFFCURVE",
"92 -13 OFFCURVE",
"195 -13 CURVE SMOOTH",
"277 -13 OFFCURVE",
"304 28 OFFCURVE",
"315 70 CURVE",
"315 234 LINE",
"315 117 OFFCURVE",
"281 87 OFFCURVE",
"247 87 CURVE SMOOTH",
"178 87 OFFCURVE",
"174 177 OFFCURVE",
"174 281 CURVE SMOOTH",
"174 385 OFFCURVE",
"178 467 OFFCURVE",
"247 467 CURVE SMOOTH"
);
}
);
};
components = (
{
name = d_bowl;
transform = "{1, 0, 0, 1, 37, 0}";
}
);
guideLines = (
{
angle = 7;
position = "{388, 752}";
}
);
layerId = "849A9C4C-BF7C-40C5-8614-1FD725A2A379";
paths = (
{
closed = 1;
nodes = (
"315 138 LINE",
"327 137 LINE",
"327 -8 LINE",
"455 8 LINE",
"455 760 LINE",
"315 743 LINE"
);
}
);
width = 505;
}
);
leftKerningGroup = round;
rightKerningGroup = straight;
rightMetricsKey = l;
unicode = 0064;
},
{
glyphname = eth;
lastChange = "2018-01-11 00:49:45 +0000";
layers = (
{
background = {
components = (
{
name = o;
transform = "{1, 0, 0, 1, 4, 0}";
}
);
paths = (
{
closed = 1;
nodes = (
"412 -16 OFFCURVE",
"446 194 OFFCURVE",
"446 378 CURVE SMOOTH",
"446 541 OFFCURVE",
"383 766 OFFCURVE",
"218 766 CURVE SMOOTH",
"130 766 OFFCURVE",
"82 752 OFFCURVE",
"-5 680 CURVE",
"48 589 LINE",
"75 614 OFFCURVE",
"141 657 OFFCURVE",
"193 657 CURVE SMOOTH",
"295 657 OFFCURVE",
"301 500 OFFCURVE",
"303 418 CURVE",
"272 441 OFFCURVE",
"228 457 OFFCURVE",
"188 457 CURVE SMOOTH",
"84 457 OFFCURVE",
"20 343 OFFCURVE",
"20 221 CURVE SMOOTH",
"20 101 OFFCURVE",
"105 -16 OFFCURVE",
"229 -16 CURVE SMOOTH"
);
},
{
closed = 1;
nodes = (
"175 112 OFFCURVE",
"161 175 OFFCURVE",
"161 218 CURVE SMOOTH",
"161 276 OFFCURVE",
"180 338 OFFCURVE",
"237 338 CURVE SMOOTH",
"255 338 OFFCURVE",
"271 333 OFFCURVE",
"283 327 CURVE",
"302 317 LINE",
"302 314 OFFCURVE",
"302 312 OFFCURVE",
"303 309 CURVE",
"303 305 OFFCURVE",
"303 300 OFFCURVE",
"303 297 CURVE SMOOTH",
"303 235 OFFCURVE",
"308 112 OFFCURVE",
"235 112 CURVE SMOOTH"
);
}
);
};
guideLines = (
{
angle = 20;
position = "{256, 798}";
},
{
position = "{124, 842}";
showMeasurement = 1;
}
);
layerId = "849A9C4C-BF7C-40C5-8614-1FD725A2A379";
paths = (
{
closed = 1;
nodes = (
"336 299 LINE",
"336 428 OFFCURVE",
"310 571 OFFCURVE",
"209 571 CURVE SMOOTH",
"70 571 OFFCURVE",
"35 419 OFFCURVE",
"35 275 CURVE SMOOTH",
"35 114 OFFCURVE",
"95 -16 OFFCURVE",
"252 -18 CURVE SMOOTH",
"413 -20 OFFCURVE",
"463 138 OFFCURVE",
"463 299 CURVE SMOOTH",
"463 518 OFFCURVE",
"396 672 OFFCURVE",
"246 808 CURVE",
"116 760 LINE",
"264 637 OFFCURVE",
"321 499 OFFCURVE",
"321 388 CURVE SMOOTH",
"321 298 LINE",
"321 189 OFFCURVE",
"315 90 OFFCURVE",
"255 90 CURVE SMOOTH",
"188 90 OFFCURVE",
"178 200 OFFCURVE",
"178 290 CURVE SMOOTH",
"178 377 OFFCURVE",
"195 466 OFFCURVE",
"255 466 CURVE SMOOTH",
"301 466 OFFCURVE",
"321 421 OFFCURVE",
"321 299 CURVE"
);
},
{
closed = 1;
nodes = (
"86 597 LINE",
"412 723 LINE",
"387 788 LINE",
"61 663 LINE"
);
}
);
width = 488;
}
);
leftKerningGroup = round;
leftMetricsKey = d;
rightKerningGroup = ROUND;
rightMetricsKey = o;
unicode = 00F0;
},
{
glyphname = dcaron;
lastChange = "2017-10-20 01:05:01 +0000";
layers = (
{
components = (
{
name = d;
}
);
layerId = "849A9C4C-BF7C-40C5-8614-1FD725A2A379";
paths = (
{
closed = 1;
nodes = (
"570 470 OFFCURVE",
"589 476 OFFCURVE",
"606 486 CURVE SMOOTH",
"636 503 OFFCURVE",
"665 539 OFFCURVE",
"665 609 CURVE SMOOTH",
"665 750 LINE",
"524 750 LINE",
"524 604 LINE",
"595 609 LINE",
"594 601 OFFCURVE",
"592 593 OFFCURVE",
"589 586 CURVE SMOOTH",
"583 574 OFFCURVE",
"571 563 OFFCURVE",
"548 563 CURVE",
"548 469 LINE"
);
}
);
width = 637;
}
);
leftKerningGroup = round;
leftMetricsKey = d;
rightKerningGroup = straight;
unicode = 010F;
},
{
glyphname = e;
lastChange = "2018-01-16 00:21:15 +0000";
layers = (
{
anchors = (
{
name = bottom;
position = "{240, 0}";
},
{
name = ogonek;
position = "{394, 5}";
},
{
name = top;
position = "{224, 563}";
}
);
background = {
components = (
{
name = c;
transform = "{1, 0, 0, 1, -11, 0}";
},
{
name = a;
transform = "{-1, 0, 0, -1, 462, 563}";
}
);
};
guideLines = (
{
angle = -12;
position = "{305, 177}";
},
{
angle = 173.7516;
position = "{427, 152}";
}
);
layerId = "849A9C4C-BF7C-40C5-8614-1FD725A2A379";
paths = (
{
closed = 1;
nodes = (
"335 -13 OFFCURVE",
"406 50 OFFCURVE",
"425 154 CURVE",
"305 179 LINE",
"299 135 OFFCURVE",
"283 93 OFFCURVE",
"238 93 CURVE SMOOTH",
"169 93 OFFCURVE",
"166 201 OFFCURVE",
"166 279 CURVE",
"144 245 LINE",
"426 245 LINE",
"428 279 OFFCURVE",
"429 304 OFFCURVE",
"429 336 CURVE SMOOTH",
"429 469 OFFCURVE",
"371 570 OFFCURVE",
"235 570 CURVE SMOOTH",
"103 570 OFFCURVE",
"25 448 OFFCURVE",
"25 276 CURVE SMOOTH",
"25 113 OFFCURVE",
"85 -13 OFFCURVE",
"236 -13 CURVE SMOOTH"
);
},
{
closed = 1;
nodes = (
"166 364 OFFCURVE",
"175 466 OFFCURVE",
"238 466 CURVE SMOOTH",
"288 466 OFFCURVE",
"300 397 OFFCURVE",
"300 342 CURVE SMOOTH",
"300 290 LINE",
"322 324 LINE",
"144 324 LINE",
"166 290 LINE"
);
}
);
width = 454;
}
);
leftKerningGroup = round;
leftMetricsKey = o;
rightKerningGroup = round;
unicode = 0065;
},
{
glyphname = eogonek;
lastChange = "2017-10-20 00:31:45 +0000";
layers = (
{
anchors = (
{
name = _ogonek;
position = "{399, 5}";
},
{
name = bottom;
position = "{236, 0}";
},
{
name = ogonek;
position = "{399, 5}";
},
{
name = top;
position = "{236, 563}";
}
);
background = {
paths = (
{
closed = 1;
nodes = (
"366 -188 OFFCURVE",
"404 -177 OFFCURVE",
"423 -157 CURVE",
"423 -76 LINE",
"409 -83 OFFCURVE",
"377 -93 OFFCURVE",
"351 -93 CURVE SMOOTH",
"329 -93 OFFCURVE",
"312 -86 OFFCURVE",
"312 -64 CURVE SMOOTH",
"312 -60 OFFCURVE",
"314 -55 OFFCURVE",
"315 -49 CURVE SMOOTH",
"329 10 LINE",
"250 10 LINE",
"220 -72 LINE SMOOTH",
"215 -86 OFFCURVE",
"212 -94 OFFCURVE",
"212 -107 CURVE SMOOTH",
"212 -163 OFFCURVE",
"270 -188 OFFCURVE",
"327 -188 CURVE SMOOTH"
);
},
{
closed = 1;
nodes = (
"343 -13 OFFCURVE",
"401 51 OFFCURVE",
"427 142 CURVE",
"321 182 LINE",
"317 174 OFFCURVE",
"287 90 OFFCURVE",
"243 90 CURVE SMOOTH",
"191 90 OFFCURVE",
"174 191 OFFCURVE",
"174 262 CURVE",
"441 262 LINE",
"441 264 OFFCURVE",
"447 267 OFFCURVE",
"447 278 CURVE SMOOTH",
"447 451 OFFCURVE",
"379 570 OFFCURVE",
"245 570 CURVE SMOOTH",
"104 570 OFFCURVE",
"34 451 OFFCURVE",
"34 278 CURVE SMOOTH",
"34 107 OFFCURVE",
"103 -13 OFFCURVE",
"240 -13 CURVE SMOOTH"
);
},
{
closed = 1;
nodes = (
"174 417 OFFCURVE",
"208 473 OFFCURVE",
"243 473 CURVE SMOOTH",
"291 473 OFFCURVE",
"309 417 OFFCURVE",
"309 343 CURVE",
"174 343 LINE"
);
},
{
closed = 1;
nodes = (
"358 -13 OFFCURVE",
"418 63 OFFCURVE",
"433 152 CURVE",
"315 177 LINE",
"307 132 OFFCURVE",
"290 90 OFFCURVE",
"250 90 CURVE SMOOTH",
"195 90 OFFCURVE",
"177 162 OFFCURVE",
"175 248 CURVE",
"435 248 LINE",
"437 284 OFFCURVE",
"438 307 OFFCURVE",
"438 336 CURVE SMOOTH",
"438 469 OFFCURVE",
"380 570 OFFCURVE",
"244 570 CURVE SMOOTH",
"112 570 OFFCURVE",
"34 448 OFFCURVE",
"34 276 CURVE SMOOTH",
"34 113 OFFCURVE",
"94 -13 OFFCURVE",
"250 -13 CURVE SMOOTH"
);
},
{
closed = 1;
nodes = (
"180 412 OFFCURVE",
"205 464 OFFCURVE",
"246 464 CURVE SMOOTH",
"290 464 OFFCURVE",
"311 416 OFFCURVE",
"311 352 CURVE SMOOTH",
"311 330 LINE",
"177 330 LINE"
);
}
);
};
guideLines = (
{
angle = -78;
position = "{376, -91}";
}
);
layerId = "849A9C4C-BF7C-40C5-8614-1FD725A2A379";
paths = (
{
closed = 1;
nodes = (
"229 -15 OFFCURVE",
"188 -55 OFFCURVE",
"188 -106 CURVE SMOOTH",
"188 -171 OFFCURVE",
"234 -210 OFFCURVE",
"299 -210 CURVE SMOOTH",
"356 -210 OFFCURVE",
"391 -181 OFFCURVE",
"421 -137 CURVE",
"383 -103 LINE",
"373 -115 OFFCURVE",
"359 -128 OFFCURVE",
"335 -128 CURVE SMOOTH",
"303 -128 OFFCURVE",
"285 -103 OFFCURVE",
"285 -71 CURVE SMOOTH",
"285 -36 OFFCURVE",
"301 -11 OFFCURVE",
"330 4 CURVE SMOOTH",
"399 38 OFFCURVE",
"424 97 OFFCURVE",
"433 152 CURVE",
"315 177 LINE",
"307 132 OFFCURVE",
"290 90 OFFCURVE",
"250 90 CURVE SMOOTH",
"195 90 OFFCURVE",
"177 162 OFFCURVE",
"175 248 CURVE",
"435 248 LINE",
"437 284 OFFCURVE",
"438 307 OFFCURVE",
"438 336 CURVE SMOOTH",
"438 469 OFFCURVE",
"380 570 OFFCURVE",
"244 570 CURVE SMOOTH",
"112 570 OFFCURVE",
"34 448 OFFCURVE",
"34 276 CURVE SMOOTH",
"34 23 OFFCURVE",
"169 -13 OFFCURVE",
"261 -11 CURVE",
"261 -5 LINE"
);
},
{
closed = 1;
nodes = (
"180 412 OFFCURVE",
"205 464 OFFCURVE",
"246 464 CURVE SMOOTH",
"290 464 OFFCURVE",
"311 416 OFFCURVE",
"311 352 CURVE SMOOTH",
"311 330 LINE",
"177 330 LINE"
);
}
);
width = 471;
}
);
leftKerningGroup = round;
rightKerningGroup = round;
unicode = 0119;
},
{
glyphname = schwa;
lastChange = "2017-10-20 00:31:45 +0000";
layers = (
{
anchors = (
{
name = bottom;
position = "{232, -5}";
},
{
name = ogonek;
position = "{69, 553}";
},
{
name = top;
position = "{232, 558}";
}
);
layerId = "849A9C4C-BF7C-40C5-8614-1FD725A2A379";
paths = (
{
closed = 1;
nodes = (
"124 571 OFFCURVE",
"49 503 OFFCURVE",
"30 402 CURVE",
"153 379 LINE",
"159 422 OFFCURVE",
"179 467 OFFCURVE",
"228 467 CURVE SMOOTH",
"278 467 OFFCURVE",
"299 383 OFFCURVE",
"299 296 CURVE",
"32 296 LINE",
"29 277 OFFCURVE",
"28 248 OFFCURVE",
"28 215 CURVE SMOOTH",
"28 89 OFFCURVE",
"90 -12 OFFCURVE",
"223 -12 CURVE SMOOTH",
"356 -12 OFFCURVE",
"434 107 OFFCURVE",
"434 280 CURVE SMOOTH",
"434 462 OFFCURVE",
"366 571 OFFCURVE",
"223 571 CURVE SMOOTH"
);
},
{
closed = 1;
nodes = (
"298 150 OFFCURVE",
"276 92 OFFCURVE",
"225 92 CURVE SMOOTH",
"179 92 OFFCURVE",
"151 142 OFFCURVE",
"151 206 CURVE SMOOTH",
"151 209 OFFCURVE",
"151 214 OFFCURVE",
"152 220 CURVE",
"297 220 LINE"
);
}
);
width = 471;
}
);
leftKerningGroup = round;
rightKerningGroup = round;
unicode = 0259;
},
{
glyphname = f;
lastChange = "2018-01-15 23:43:37 +0000";
layers = (
{
anchors = (
{
name = bottom;
position = "{160, 0}";
},
{
name = top;
position = "{160, 563}";
}
);
background = {
components = (
{
name = t;
}
);
};
guideLines = (
{
angle = 83;
position = "{6, 460}";
},
{
angle = 97;
position = "{321, 566}";
},
{
angle = 7;
position = "{220, 0}";
}
);
layerId = "849A9C4C-BF7C-40C5-8614-1FD725A2A379";
paths = (
{
closed = 1;
nodes = (
"313 458 LINE",
"326 563 LINE",
"15 563 LINE",
"15 458 LINE"
);
},
{
closed = 1;
nodes = (
"220 0 LINE",
"220 563 LINE",
"220 573 LINE SMOOTH",
"220 632 OFFCURVE",
"233 662 OFFCURVE",
"274 662 CURVE SMOOTH",
"292 662 OFFCURVE",
"307 660 OFFCURVE",
"326 655 CURVE",
"333 753 LINE",
"298 764 OFFCURVE",
"264 771 OFFCURVE",
"221 771 CURVE SMOOTH",
"127 771 OFFCURVE",
"80 699 OFFCURVE",
"80 596 CURVE SMOOTH",
"80 0 LINE"
);
}
);
width = 340;
}
);
leftKerningGroup = open;
rightKerningGroup = open;
unicode = 0066;
},
{
glyphname = g;
lastChange = "2018-01-16 00:28:25 +0000";
layers = (
{
anchors = (
{
name = bottom;
position = "{258, 0}";
},
{
name = top;
position = "{239, 563}";
}
);
background = {
components = (
{
name = a;
transform = "{1, 0, 0, 1, 13, 0}";
}
);
paths = (
{
closed = 1;
nodes = (
"344 215 OFFCURVE",
"444 275 OFFCURVE",
"444 389 CURVE SMOOTH",
"444 501 OFFCURVE",
"344 570 OFFCURVE",
"238 570 CURVE SMOOTH",
"130 570 OFFCURVE",
"32 501 OFFCURVE",
"32 389 CURVE SMOOTH",
"32 275 OFFCURVE",
"130 215 OFFCURVE",
"238 215 CURVE SMOOTH"
);
},
{
closed = 1;
nodes = (
"197 296 OFFCURVE",
"176 340 OFFCURVE",
"176 389 CURVE SMOOTH",
"176 439 OFFCURVE",
"196 490 OFFCURVE",
"238 490 CURVE SMOOTH",
"278 490 OFFCURVE",
"300 439 OFFCURVE",
"300 390 CURVE SMOOTH",
"300 340 OFFCURVE",
"278 296 OFFCURVE",
"238 296 CURVE SMOOTH"
);
}
);
};
guideLines = (
{
angle = 108;
position = "{492, 571}";
}
);
layerId = "849A9C4C-BF7C-40C5-8614-1FD725A2A379";
paths = (
{
closed = 1;
nodes = (
"372 -182 OFFCURVE",
"475 -128 OFFCURVE",
"475 -8 CURVE SMOOTH",
"475 82 OFFCURVE",
"423 133 OFFCURVE",
"327 140 CURVE SMOOTH",
"215 149 LINE SMOOTH",
"180 152 OFFCURVE",
"161 168 OFFCURVE",
"161 194 CURVE SMOOTH",
"161 216 OFFCURVE",
"184 233 OFFCURVE",
"215 234 CURVE",
"167 261 LINE",
"110 250 OFFCURVE",
"42 213 OFFCURVE",
"42 140 CURVE SMOOTH",
"42 72 OFFCURVE",
"86 34 OFFCURVE",
"165 28 CURVE SMOOTH",
"273 20 LINE SMOOTH",
"317 17 OFFCURVE",
"349 4 OFFCURVE",
"349 -28 CURVE SMOOTH",
"349 -66 OFFCURVE",
"306 -81 OFFCURVE",
"239 -81 CURVE SMOOTH",
"180 -81 OFFCURVE",
"132 -61 OFFCURVE",
"132 -15 CURVE SMOOTH",
"132 24 OFFCURVE",
"158 51 OFFCURVE",
"196 52 CURVE",
"141 62 LINE",
"71 57 OFFCURVE",
"15 17 OFFCURVE",
"15 -51 CURVE SMOOTH",
"15 -141 OFFCURVE",
"92 -182 OFFCURVE",
"229 -182 CURVE SMOOTH"
);
},
{
closed = 1;
nodes = (
"346 215 OFFCURVE",
"444 275 OFFCURVE",
"444 389 CURVE SMOOTH",
"444 501 OFFCURVE",
"346 570 OFFCURVE",
"238 570 CURVE SMOOTH",
"132 570 OFFCURVE",
"32 501 OFFCURVE",
"32 389 CURVE SMOOTH",
"32 275 OFFCURVE",
"132 215 OFFCURVE",
"238 215 CURVE SMOOTH"
);
},
{
closed = 1;
nodes = (
"198 297 OFFCURVE",
"176 340 OFFCURVE",
"176 390 CURVE SMOOTH",
"176 439 OFFCURVE",
"198 489 OFFCURVE",
"238 489 CURVE SMOOTH",
"280 489 OFFCURVE",
"300 439 OFFCURVE",
"300 389 CURVE SMOOTH",
"300 340 OFFCURVE",
"279 297 OFFCURVE",
"238 297 CURVE SMOOTH"
);
},
{
closed = 1;
nodes = (
"410 531 OFFCURVE",
"450 555 OFFCURVE",
"492 566 CURVE",
"455 680 LINE",
"389 660 OFFCURVE",
"345 581 OFFCURVE",
"344 500 CURVE",
"385 500 LINE"
);
}
);
width = 477;
}
);
leftKerningGroup = small;
rightKerningGroup = small;
unicode = 0067;
},
{
glyphname = gcommaaccent;
lastChange = "2017-10-20 00:39:53 +0000";
layers = (
{
background = {
paths = (
{
closed = 1;
nodes = (
"362 -175 OFFCURVE",
"514 -138 OFFCURVE",
"514 -10 CURVE SMOOTH",
"514 35 OFFCURVE",
"499 71 OFFCURVE",
"469 97 CURVE SMOOTH",
"440 123 OFFCURVE",
"399 133 OFFCURVE",
"349 137 CURVE SMOOTH",
"216 147 LINE",
"196 150 OFFCURVE",
"181 164 OFFCURVE",
"181 183 CURVE SMOOTH",
"181 200 OFFCURVE",
"183 211 OFFCURVE",
"188 216 CURVE SMOOTH",
"194 221 OFFCURVE",
"204 225 OFFCURVE",
"217 229 CURVE",
"231 229 OFFCURVE",
"250 227 OFFCURVE",
"276 227 CURVE",
"308 223 OFFCURVE",
"336 227 OFFCURVE",
"360 237 CURVE SMOOTH",
"384 249 OFFCURVE",
"405 263 OFFCURVE",
"421 280 CURVE SMOOTH",
"454 315 OFFCURVE",
"470 359 OFFCURVE",
"470 400 CURVE SMOOTH",
"470 417 OFFCURVE",
"465 438 OFFCURVE",
"459 455 CURVE SMOOTH",
"456 464 OFFCURVE",
"453 474 OFFCURVE",
"449 484 CURVE",
"451 485 OFFCURVE",
"454 486 OFFCURVE",
"458 488 CURVE SMOOTH",
"463 490 OFFCURVE",
"469 492 OFFCURVE",
"476 492 CURVE SMOOTH",
"484 492 OFFCURVE",
"500 488 OFFCURVE",
"513 482 CURVE SMOOTH",
"538 473 LINE",
"538 591 LINE",
"532 592 LINE SMOOTH",
"529 593 OFFCURVE",
"526 593 OFFCURVE",
"522 593 CURVE SMOOTH",
"471 593 OFFCURVE",
"421 546 OFFCURVE",
"401 528 CURVE",
"374 546 OFFCURVE",
"331 570 OFFCURVE",
"259 570 CURVE SMOOTH",
"159 570 OFFCURVE",
"52 510 OFFCURVE",
"52 398 CURVE SMOOTH",
"52 347 OFFCURVE",
"75 311 OFFCURVE",
"97 286 CURVE",
"110 272 OFFCURVE",
"125 260 OFFCURVE",
"142 250 CURVE",
"122 240 OFFCURVE",
"104 229 OFFCURVE",
"89 215 CURVE SMOOTH",
"63 193 OFFCURVE",
"36 162 OFFCURVE",
"36 125 CURVE SMOOTH",
"36 98 OFFCURVE",
"57 79 OFFCURVE",
"78 67 CURVE SMOOTH",
"90 60 OFFCURVE",
"104 55 OFFCURVE",
"120 50 CURVE",
"102 43 OFFCURVE",
"85 34 OFFCURVE",
"71 23 CURVE SMOOTH",
"46 5 OFFCURVE",
"21 -22 OFFCURVE",
"21 -60 CURVE SMOOTH",
"21 -127 OFFCURVE",
"104 -175 OFFCURVE",
"257 -175 CURVE SMOOTH"
);
},
{
closed = 1;
nodes = (
"183 -71 OFFCURVE",
"149 -50 OFFCURVE",
"149 -18 CURVE SMOOTH",
"149 16 OFFCURVE",
"172 32 OFFCURVE",
"194 39 CURVE",
"276 39 LINE SMOOTH",
"305 39 OFFCURVE",
"377 35 OFFCURVE",
"377 -8 CURVE SMOOTH",
"377 -47 OFFCURVE",
"341 -71 OFFCURVE",
"274 -71 CURVE SMOOTH"
);
},
{
closed = 1;
nodes = (
"203 307 OFFCURVE",
"193 360 OFFCURVE",
"193 403 CURVE SMOOTH",
"193 440 OFFCURVE",
"213 485 OFFCURVE",
"258 485 CURVE SMOOTH",
"292 485 OFFCURVE",
"321 458 OFFCURVE",
"321 400 CURVE SMOOTH",
"321 340 OFFCURVE",
"297 307 OFFCURVE",
"259 307 CURVE SMOOTH"
);
},
{
closed = 1;
nodes = (
"367 642 LINE",
"367 797 LINE",
"272 797 LINE",
"273 806 OFFCURVE",
"276 813 OFFCURVE",
"281 820 CURVE SMOOTH",
"291 832 OFFCURVE",
"308 844 OFFCURVE",
"343 844 CURVE",
"343 938 LINE",
"316 936 OFFCURVE",
"293 930 OFFCURVE",
"272 920 CURVE SMOOTH",
"237 902 OFFCURVE",
"202 868 OFFCURVE",
"202 797 CURVE SMOOTH",
"202 636 LINE"
);
}
);
};
components = (
{
name = g;
}
);
layerId = "849A9C4C-BF7C-40C5-8614-1FD725A2A379";
paths = (
{
closed = 1;
nodes = (
"219 914 OFFCURVE",
"181 859 OFFCURVE",
"181 795 CURVE SMOOTH",
"181 646 LINE",
"317 646 LINE",
"317 797 LINE",
"250 797 LINE",
"250 834 OFFCURVE",
"267 860 OFFCURVE",
"298 872 CURVE",
"272 935 LINE"
);
}
);
width = 492;
}
);
leftKerningGroup = small;
rightKerningGroup = small;
unicode = 0123;
},
{
glyphname = h;
lastChange = "2018-01-11 00:48:57 +0000";
layers = (
{
anchors = (
{
name = bottom;
position = "{259, 0}";
},
{
name = center;
position = "{259, 281}";
},
{
name = top;
position = "{118, 750}";
}
);
background = {
paths = (
{
closed = 1;
nodes = (
"190 6 LINE",
"190 412 LINE",
"229 435 OFFCURVE",
"256 450 OFFCURVE",
"282 450 CURVE SMOOTH",
"310 450 OFFCURVE",
"331 429 OFFCURVE",
"331 377 CURVE SMOOTH",
"331 -6 LINE",
"471 6 LINE",
"471 428 LINE SMOOTH",
"471 515 OFFCURVE",
"421 570 OFFCURVE",
"351 570 CURVE SMOOTH",
"303 570 OFFCURVE",
"249 545 OFFCURVE",
"190 491 CURVE",
"190 760 LINE",
"50 742 LINE",
"50 -6 LINE"
);
}
);
};
components = (
{
name = n_arch;
transform = "{1, 0, 0, 1, 190, 0}";
}
);
guideLines = (
{
angle = 7;
position = "{120, 752}";
}
);
layerId = "849A9C4C-BF7C-40C5-8614-1FD725A2A379";
paths = (
{
closed = 1;
nodes = (
"190 0 LINE",
"190 760 LINE",
"50 743 LINE",
"50 0 LINE"
);
}
);
width = 509;
}
);
leftKerningGroup = straight;
leftMetricsKey = n;
rightKerningGroup = straight;
rightMetricsKey = n;
unicode = 0068;
},
{
glyphname = hbar;
lastChange = "2017-11-16 19:06:39 +0000";
layers = (
{
components = (
{
name = h;
transform = "{1, 0, 0, 1, 1, 0}";
}
);
guideLines = (
{
angle = 83;
position = "{312, 687}";
}
);
layerId = "849A9C4C-BF7C-40C5-8614-1FD725A2A379";
paths = (
{
closed = 1;
nodes = (
"302 603 LINE",
"312 693 LINE",
"-16 693 LINE",
"-16 603 LINE"
);
}
);
width = 539;
}
);
leftKerningGroup = straight;
rightKerningGroup = straight;
unicode = 0127;
},
{
glyphname = i;
lastChange = "2018-01-11 00:48:57 +0000";
layers = (
{
anchors = (
{
name = bottom;
position = "{119, 0}";
},
{
name = ogonek;
position = "{272, 5}";
},
{
name = top;
position = "{122, 563}";
}
);
background = {
paths = (
{
closed = 1;
nodes = (
"193 6 LINE",
"193 563 LINE",
"53 551 LINE",
"53 -6 LINE"
);
}
);
};
components = (
{
name = idotless;
transform = "{1, 0, 0, 1, -9, 0}";
}
);
guideLines = (
{
position = "{233, 566}";
},
{
angle = 7;
position = "{122, 560}";
},
{
angle = 270;
position = "{192, 638}";
},
{
angle = 270;
position = "{52, 625}";
}
);
layerId = "849A9C4C-BF7C-40C5-8614-1FD725A2A379";
paths = (
{
closed = 1;
nodes = (
"194 632 LINE",
"194 760 LINE",
"50 760 LINE",
"50 632 LINE"
);
}
);
width = 244;
}
);
leftKerningGroup = straight;
leftMetricsKey = l;
rightKerningGroup = straight;
rightMetricsKey = l;
unicode = 0069;
},
{
glyphname = idotless;
lastChange = "2017-10-20 00:31:03 +0000";
layers = (
{
anchors = (
{
name = bottom;
position = "{131, 0}";
},
{
name = ogonek;
position = "{131, 5}";
},
{
name = top;
position = "{131, 561}";
}
);
guideLines = (
{
angle = 7;
position = "{111, 560}";
}
);
layerId = "849A9C4C-BF7C-40C5-8614-1FD725A2A379";
paths = (
{
closed = 1;
nodes = (
"201 0 LINE",
"201 567 LINE",
"61 550 LINE",
"61 0 LINE"
);
}
);
width = 262;
}
);
leftKerningGroup = straight;
rightKerningGroup = straight;
unicode = 0131;
userData = {
com.fontlab.hintData = {
vhints = (
{
position = 124;
width = 288;
}
);
};
};
},
{
glyphname = j;
lastChange = "2018-01-16 00:20:14 +0000";
layers = (
{
background = {
components = (
{
name = t;
transform = "{-1, 0, 0, 1, 284, -141}";
}
);
};
guideLines = (
{
angle = 270;
position = "{191, 638}";
},
{
angle = 270;
position = "{52, 625}";
},
{
angle = 7;
position = "{192, 566}";
},
{
angle = 83;
position = "{-48, -154}";
}
);
layerId = "849A9C4C-BF7C-40C5-8614-1FD725A2A379";
paths = (
{
closed = 1;
nodes = (
"136 -168 OFFCURVE",
"192 -93 OFFCURVE",
"192 5 CURVE SMOOTH",
"192 566 LINE",
"52 549 LINE",
"52 33 LINE SMOOTH",
"52 -25 OFFCURVE",
"41 -52 OFFCURVE",
"0 -52 CURVE SMOOTH",
"-14 -52 OFFCURVE",
"-24 -50 OFFCURVE",
"-35 -46 CURVE",
"-48 -154 LINE",
"-17 -164 OFFCURVE",
"11 -168 OFFCURVE",
"41 -168 CURVE SMOOTH"
);
},
{
closed = 1;
nodes = (
"194 632 LINE",
"194 761 LINE",
"49 761 LINE",
"49 632 LINE"
);
}
);
width = 244;
}
);
leftKerningGroup = open;
rightKerningGroup = straight;
unicode = 006A;
},
{
glyphname = jdotless;
lastChange = "2017-10-20 00:59:21 +0000";
layers = (
{
anchors = (
{
name = bottom;
position = "{140, 0}";
},
{
name = top;
position = "{140, 563}";
}
);
layerId = "849A9C4C-BF7C-40C5-8614-1FD725A2A379";
paths = (
{
closed = 1;
nodes = (
"154 -168 OFFCURVE",
"210 -93 OFFCURVE",
"210 5 CURVE SMOOTH",
"210 566 LINE",
"70 553 LINE",
"70 34 LINE SMOOTH",
"70 -29 OFFCURVE",
"59 -56 OFFCURVE",
"16 -56 CURVE SMOOTH",
"4 -56 OFFCURVE",
"-6 -54 OFFCURVE",
"-17 -50 CURVE",
"-30 -154 LINE",
"1 -164 OFFCURVE",
"29 -168 OFFCURVE",
"63 -168 CURVE SMOOTH"
);
}
);
width = 270;
}
);
leftKerningGroup = open;
rightKerningGroup = straight;
unicode = 0237;
},
{
glyphname = k;
lastChange = "2018-01-11 00:49:30 +0000";
layers = (
{
anchors = (
{
name = bottom;
position = "{239, 0}";
},
{
name = top;
position = "{239, 563}";
}
);
background = {
components = (
{
name = n;
transform = "{1, 0, 0, 1, -5, 0}";
}
);
};
guideLines = (
{
angle = 18;
position = "{339, -18}";
},
{
angle = 58;
position = "{301, 306}";
}
);
layerId = "849A9C4C-BF7C-40C5-8614-1FD725A2A379";
paths = (
{
closed = 1;
nodes = (
"224 265 LINE",
"350 -16 LINE",
"474 25 LINE",
"319 373 LINE"
);
},
{
closed = 1;
nodes = (
"190 0 LINE",
"190 760 LINE",
"50 743 LINE",
"50 0 LINE"
);
},
{
closed = 1;
nodes = (
"322 563 LINE",
"190 350 LINE",
"190 165 LINE",
"288 314 LINE",
"301 306 LINE",
"463 563 LINE"
);
}
);
width = 474;
}
);
leftKerningGroup = straight;
leftMetricsKey = l;
rightKerningGroup = void;
unicode = 006B;
},
{
glyphname = kgreenlandic;
lastChange = "2017-10-20 00:51:28 +0000";
layers = (
{
anchors = (
{
name = bottom;
position = "{135, 0}";
},
{
name = top;
position = "{135, 563}";
}
);
background = {
components = (
{
name = idotless;
transform = "{1, 0, 0, 1, -11, 0}";
}
);
};
guideLines = (
{
angle = 58;
position = "{190, 171}";
},
{
angle = 58;
position = "{287, 261}";
},
{
angle = 165;
position = "{340, 578}";
},
{
angle = 20;
position = "{351, -19}";
},
{
angle = 158;
position = "{377, 362}";
showMeasurement = 1;
}
);
layerId = "849A9C4C-BF7C-40C5-8614-1FD725A2A379";
paths = (
{
closed = 1;
nodes = (
"461 536 LINE",
"348 581 LINE",
"190 292 LINE",
"190 563 LINE",
"50 563 LINE",
"50 0 LINE",
"190 0 LINE",
"190 131 LINE",
"255 241 LINE",
"289 221 LINE"
);
},
{
closed = 1;
nodes = (
"356 -16 LINE",
"482 29 LINE",
"328 356 LINE",
"221 281 LINE"
);
}
);
width = 489;
}
);
leftKerningGroup = straight;
leftMetricsKey = n;
rightKerningGroup = void;
unicode = 0138;
},
{
glyphname = l;
lastChange = "2017-11-23 15:47:24 +0000";
layers = (
{
anchors = (
{
name = bottom;
position = "{119, 0}";
},
{
name = center;
position = "{119, 281}";
},
{
name = top;
position = "{119, 753}";
},
{
name = topright;
position = "{241, 563}";
}
);
background = {
paths = (
{
closed = 1;
nodes = (
"190 6 LINE",
"190 750 LINE",
"50 732 LINE",
"50 -6 LINE"
);
}
);
};
layerId = "849A9C4C-BF7C-40C5-8614-1FD725A2A379";
paths = (
{
closed = 1;
nodes = (
"190 0 LINE",
"190 768 LINE",
"50 751 LINE",
"50 0 LINE"
);
}
);
width = 240;
}
);
leftKerningGroup = straight;
rightKerningGroup = straight;
unicode = 006C;
},
{
glyphname = ldot;
lastChange = "2017-11-23 15:47:45 +0000";
layers = (
{
components = (
{
name = l;
},
{
name = periodcentered;
transform = "{1, 0, 0, 1, -6, -25}";
}
);
layerId = "849A9C4C-BF7C-40C5-8614-1FD725A2A379";
paths = (
{
closed = 1;
nodes = (
"436 234 LINE",
"436 375 LINE",
"296 375 LINE",
"296 234 LINE"
);
}
);
width = 486;
}
);
leftKerningGroup = straight;
rightKerningGroup = straight;
unicode = 0140;
},
{
glyphname = lslash;
lastChange = "2017-10-20 00:38:14 +0000";
layers = (
{
guideLines = (
{
angle = 99.5445;
position = "{29, 402}";
}
);
layerId = "849A9C4C-BF7C-40C5-8614-1FD725A2A379";
paths = (
{
closed = 1;
nodes = (
"240 0 LINE",
"240 760 LINE",
"100 743 LINE",
"100 0 LINE"
);
},
{
closed = 1;
nodes = (
"333 375 LINE",
"314 488 LINE",
"30 397 LINE",
"49 284 LINE"
);
}
);
width = 340;
}
);
leftKerningGroup = straight;
rightKerningGroup = straight;
unicode = 0142;
},
{
glyphname = m;
lastChange = "2017-10-26 19:44:25 +0000";
layers = (
{
anchors = (
{
name = bottom;
position = "{361, 0}";
},
{
name = top;
position = "{361, 563}";
}
);
background = {
components = (
{
name = n;
transform = "{1, 0, 0, 1, -11, 0}";
}
);
};
guideLines = (
{
position = "{184, 456}";
},
{
position = "{180, 339}";
},
{
angle = 180;
position = "{379, 447}";
},
{
angle = 7;
position = "{184, 564}";
}
);
layerId = "849A9C4C-BF7C-40C5-8614-1FD725A2A379";
paths = (
{
closed = 1;
nodes = (
"434 334 LINE",
"434 393 OFFCURVE",
"461 447 OFFCURVE",
"496 447 CURVE SMOOTH",
"533 447 OFFCURVE",
"544 414 OFFCURVE",
"544 367 CURVE SMOOTH",
"544 0 LINE",
"676 0 LINE",
"676 410 LINE SMOOTH",
"676 503 OFFCURVE",
"651 570 OFFCURVE",
"562 570 CURVE SMOOTH",
"489 570 OFFCURVE",
"441 513 OFFCURVE",
"421 431 CURVE"
);
},
{
closed = 1;
nodes = (
"434 495 OFFCURVE",
"397 570 OFFCURVE",
"321 570 CURVE SMOOTH",
"252 570 OFFCURVE",
"204 517 OFFCURVE",
"184 437 CURVE",
"190 323 LINE",
"190 374 OFFCURVE",
"219 447 OFFCURVE",
"258 447 CURVE SMOOTH",
"289 447 OFFCURVE",
"302 418 OFFCURVE",
"302 366 CURVE SMOOTH",
"302 0 LINE",
"434 0 LINE",
"434 421 LINE"
);
},
{
closed = 1;
nodes = (
"184 432 LINE",
"184 564 LINE",
"50 547 LINE",
"50 0 LINE",
"190 0 LINE",
"190 390 LINE"
);
}
);
width = 721;
}
);
leftKerningGroup = straight;
leftMetricsKey = n;
rightKerningGroup = straight;
rightMetricsKey = n;
unicode = 006D;
},
{
glyphname = n;
lastChange = "2018-01-11 00:51:17 +0000";
layers = (
{
anchors = (
{
name = bottom;
position = "{259, 0}";
},
{
name = top;
position = "{259, 563}";
}
);
background = {
components = (
{
name = r;
transform = "{1, 0, 0, 1, -11, 0}";
}
);
paths = (
{
closed = 1;
nodes = (
"190 0 LINE",
"190 418 LINE",
"215 446 OFFCURVE",
"247 457 OFFCURVE",
"272 457 CURVE SMOOTH",
"309 457 OFFCURVE",
"331 431 OFFCURVE",
"331 375 CURVE SMOOTH",
"331 -6 LINE",
"471 6 LINE",
"471 415 LINE SMOOTH",
"471 502 OFFCURVE",
"426 568 OFFCURVE",
"342 568 CURVE SMOOTH",
"288 568 OFFCURVE",
"236 540 OFFCURVE",
"190 491 CURVE",
"190 566 LINE",
"50 554 LINE",
"50 0 LINE"
);
}
);
};
components = (
{
name = n_arch;
transform = "{1, 0, 0, 1, 190, 0}";
}
);
guideLines = (
{
angle = 7;
position = "{184, 564}";
},
{
angle = -83;
position = "{250, 615}";
showMeasurement = 1;
}
);
layerId = "849A9C4C-BF7C-40C5-8614-1FD725A2A379";
paths = (
{
closed = 1;
nodes = (
"184 390 LINE",
"184 564 LINE",
"50 547 LINE",
"50 0 LINE",
"190 0 LINE",
"190 390 LINE"
);
}
);
width = 509;
}
);
leftKerningGroup = straight;
rightKerningGroup = straight;
unicode = 006E;
},
{
glyphname = napostrophe;
lastChange = "2017-10-20 00:38:34 +0000";
layers = (
{
components = (
{
name = n;
transform = "{1, 0, 0, 1, 118, 0}";
}
);
layerId = "849A9C4C-BF7C-40C5-8614-1FD725A2A379";
paths = (
{
closed = 1;
nodes = (
"92 482 OFFCURVE",
"130 537 OFFCURVE",
"130 601 CURVE SMOOTH",
"130 750 LINE",
"-6 750 LINE",
"-6 599 LINE",
"61 599 LINE",
"61 562 OFFCURVE",
"44 536 OFFCURVE",
"13 524 CURVE",
"39 461 LINE"
);
}
);
width = 654;
}
);
leftKerningGroup = straight;
rightKerningGroup = straight;
unicode = 0149;
},
{
glyphname = eng;
lastChange = "2017-11-23 15:46:08 +0000";
layers = (
{
layerId = "849A9C4C-BF7C-40C5-8614-1FD725A2A379";
paths = (
{
closed = 1;
nodes = (
"184 390 LINE",
"184 564 LINE",
"50 547 LINE",
"50 0 LINE",
"190 0 LINE",
"190 390 LINE"
);
},
{
closed = 1;
nodes = (
"257 573 OFFCURVE",
"196 526 OFFCURVE",
"180 418 CURVE",
"190 299 LINE",
"190 387 OFFCURVE",
"229 454 OFFCURVE",
"273 454 CURVE SMOOTH",
"321 454 OFFCURVE",
"331 417 OFFCURVE",
"331 347 CURVE SMOOTH",
"331 33 LINE SMOOTH",
"331 -25 OFFCURVE",
"320 -52 OFFCURVE",
"279 -52 CURVE SMOOTH",
"265 -52 OFFCURVE",
"255 -50 OFFCURVE",
"244 -46 CURVE",
"231 -154 LINE",
"262 -164 OFFCURVE",
"290 -168 OFFCURVE",
"320 -168 CURVE SMOOTH",
"413 -168 OFFCURVE",
"469 -96 OFFCURVE",
"471 0 CURVE SMOOTH",
"471 404 LINE SMOOTH",
"471 521 OFFCURVE",
"420 573 OFFCURVE",
"336 573 CURVE SMOOTH"
);
}
);
width = 521;
}
);
leftKerningGroup = straight;
leftMetricsKey = n;
rightKerningGroup = straight;
rightMetricsKey = j;
unicode = 014B;
},
{
glyphname = nhookleft;
lastChange = "2018-01-11 00:49:45 +0000";
layers = (
{
anchors = (
{
name = bottom;
position = "{261, 0}";
},
{
name = top;
position = "{261, 563}";
}
);
background = {
anchors = (
{
name = bottom;
position = "{261, 0}";
},
{
name = top;
position = "{261, 563}";
}
);
components = (
{
name = n_arch;
transform = "{1, 0, 0, 1, 192, 0}";
}
);
paths = (
{
closed = 1;
nodes = (
"186 390 LINE",
"186 564 LINE",
"52 547 LINE",
"52 0 LINE",
"192 0 LINE",
"192 390 LINE"
);
}
);
};
components = (
{
name = n_arch;
transform = "{1, 0, 0, 1, 192, 0}";
}
);
layerId = "849A9C4C-BF7C-40C5-8614-1FD725A2A379";
paths = (
{
closed = 1;
nodes = (
"136 -168 OFFCURVE",
"192 -93 OFFCURVE",
"192 5 CURVE SMOOTH",
"192 390 LINE",
"186 390 LINE",
"186 564 LINE",
"52 547 LINE",
"52 33 LINE SMOOTH",
"52 -25 OFFCURVE",
"41 -52 OFFCURVE",
"0 -52 CURVE SMOOTH",
"-14 -52 OFFCURVE",
"-24 -50 OFFCURVE",
"-35 -46 CURVE",
"-48 -154 LINE",
"-17 -164 OFFCURVE",
"11 -168 OFFCURVE",
"41 -168 CURVE SMOOTH"
);
}
);
width = 511;
}
);
leftKerningGroup = straight;
leftMetricsKey = j;
rightKerningGroup = straight;
rightMetricsKey = n;
unicode = 0272;
},
{
glyphname = o;
lastChange = "2018-01-16 00:29:36 +0000";
layers = (
{
anchors = (
{
name = bottom;
position = "{237, 0}";
},
{
name = center;
position = "{238, 281}";
},
{
name = ogonek;
position = "{415, 5}";
},
{
name = top;
position = "{237, 563}";
},
{
name = topright;
position = "{473, 563}";
}
);
background = {
paths = (
{
closed = 1;
nodes = (
"378 -13 OFFCURVE",
"451 105 OFFCURVE",
"451 282 CURVE SMOOTH",
"451 446 OFFCURVE",
"379 570 OFFCURVE",
"239 570 CURVE SMOOTH",
"101 570 OFFCURVE",
"25 448 OFFCURVE",
"25 282 CURVE SMOOTH",
"25 104 OFFCURVE",
"101 -13 OFFCURVE",
"239 -13 CURVE SMOOTH"
);
},
{
closed = 1;
nodes = (
"176 88 OFFCURVE",
"168 190 OFFCURVE",
"168 279 CURVE SMOOTH",
"168 354 OFFCURVE",
"176 463 OFFCURVE",
"239 463 CURVE SMOOTH",
"302 463 OFFCURVE",
"308 355 OFFCURVE",
"308 279 CURVE SMOOTH",
"308 190 OFFCURVE",
"301 88 OFFCURVE",
"239 88 CURVE SMOOTH"
);
}
);
};
layerId = "849A9C4C-BF7C-40C5-8614-1FD725A2A379";
paths = (
{
closed = 1;
nodes = (
"372 -13 OFFCURVE",
"451 94 OFFCURVE",
"451 279 CURVE SMOOTH",
"451 456 OFFCURVE",
"372 570 OFFCURVE",
"237 570 CURVE SMOOTH",
"101 570 OFFCURVE",
"25 454 OFFCURVE",
"25 279 CURVE SMOOTH",
"25 95 OFFCURVE",
"102 -13 OFFCURVE",
"237 -13 CURVE SMOOTH"
);
},
{
closed = 1;
nodes = (
"178 94 OFFCURVE",
"168 190 OFFCURVE",
"168 279 CURVE SMOOTH",
"168 355 OFFCURVE",
"177 463 OFFCURVE",
"237 463 CURVE SMOOTH",
"297 463 OFFCURVE",
"308 354 OFFCURVE",
"308 279 CURVE SMOOTH",
"308 190 OFFCURVE",
"297 94 OFFCURVE",
"237 94 CURVE SMOOTH"
);
}
);
width = 476;
}
);
leftKerningGroup = round;
rightKerningGroup = round;
unicode = 006F;
},
{
glyphname = oslash;
lastChange = "2017-10-20 00:38:43 +0000";
layers = (
{
anchors = (
{
name = bottom;
position = "{246, 0}";
},
{
name = center;
position = "{247, 281}";
},
{
name = ogonek;
position = "{424, 5}";
},
{
name = top;
position = "{246, 563}";
},
{
name = topright;
position = "{482, 563}";
}
);
layerId = "849A9C4C-BF7C-40C5-8614-1FD725A2A379";
paths = (
{
closed = 1;
nodes = (
"489 517 LINE",
"427 569 LINE",
"355 479 LINE",
"360 475 LINE",
"101 147 LINE",
"99 149 LINE",
"18 47 LINE",
"81 -5 LINE",
"161 97 LINE",
"155 102 LINE",
"414 428 LINE",
"417 426 LINE"
);
},
{
closed = 1;
nodes = (
"384 -13 OFFCURVE",
"460 104 OFFCURVE",
"460 282 CURVE SMOOTH",
"460 442 OFFCURVE",
"384 570 OFFCURVE",
"246 570 CURVE SMOOTH",
"106 570 OFFCURVE",
"34 446 OFFCURVE",
"34 282 CURVE SMOOTH",
"34 108 OFFCURVE",
"111 -13 OFFCURVE",
"246 -13 CURVE SMOOTH"
);
},
{
closed = 1;
nodes = (
"180 92 OFFCURVE",
"177 185 OFFCURVE",
"177 279 CURVE SMOOTH",
"177 355 OFFCURVE",
"183 465 OFFCURVE",
"246 465 CURVE SMOOTH",
"313 465 OFFCURVE",
"317 360 OFFCURVE",
"317 279 CURVE SMOOTH",
"317 190 OFFCURVE",
"309 92 OFFCURVE",
"246 92 CURVE SMOOTH"
);
}
);
width = 500;
}
);
leftKerningGroup = round;
rightKerningGroup = round;
unicode = 00F8;
},
{
glyphname = oe;
lastChange = "2018-01-11 00:49:45 +0000";
layers = (
{
background = {
components = (
{
name = e;
transform = "{1, 0, 0, 1, 270, 0}";
},
{
name = o;
transform = "{1, 0, 0, 1, -11, 0}";
}
);
};
layerId = "849A9C4C-BF7C-40C5-8614-1FD725A2A379";
paths = (
{
closed = 1;
nodes = (
"296 -13 OFFCURVE",
"341 16 OFFCURVE",
"374 57 CURVE",
"410 9 OFFCURVE",
"452 -13 OFFCURVE",
"521 -13 CURVE SMOOTH",
"607 -13 OFFCURVE",
"682 39 OFFCURVE",
"705 151 CURVE",
"587 177 LINE",
"580 139 OFFCURVE",
"565 93 OFFCURVE",
"523 93 CURVE SMOOTH",
"465 93 OFFCURVE",
"446 167 OFFCURVE",
"446 248 CURVE",
"706 248 LINE",
"708 279 OFFCURVE",
"709 297 OFFCURVE",
"709 334 CURVE SMOOTH",
"709 414 OFFCURVE",
"685 570 OFFCURVE",
"517 570 CURVE SMOOTH",
"454 570 OFFCURVE",
"400 536 OFFCURVE",
"377 491 CURVE",
"351 536 OFFCURVE",
"293 570 OFFCURVE",
"230 570 CURVE SMOOTH",
"98 570 OFFCURVE",
"25 451 OFFCURVE",
"25 280 CURVE SMOOTH",
"25 108 OFFCURVE",
"98 -13 OFFCURVE",
"232 -13 CURVE SMOOTH"
);
},
{
closed = 1;
nodes = (
"173 91 OFFCURVE",
"166 191 OFFCURVE",
"166 279 CURVE SMOOTH",
"166 359 OFFCURVE",
"173 465 OFFCURVE",
"235 465 CURVE SMOOTH",
"300 465 OFFCURVE",
"306 347 OFFCURVE",
"306 278 CURVE SMOOTH",
"306 210 OFFCURVE",
"303 91 OFFCURVE",
"235 91 CURVE SMOOTH"
);
},
{
closed = 1;
nodes = (
"450 405 OFFCURVE",
"474 464 OFFCURVE",
"517 464 CURVE SMOOTH",
"564 464 OFFCURVE",
"585 412 OFFCURVE",
"582 330 CURVE",
"448 330 LINE"
);
}
);
width = 734;
}
);
leftKerningGroup = round;
leftMetricsKey = o;
rightKerningGroup = round;
rightMetricsKey = e;
unicode = 0153;
},
{
glyphname = p;
lastChange = "2018-01-14 22:00:08 +0000";
layers = (
{
anchors = (
{
name = bottom;
position = "{241, -140}";
},
{
name = top;
position = "{241, 563}";
}
);
background = {
components = (
{
name = n;
transform = "{1, 0, 0, 1, -23, 0}";
}
);
};
components = (
{
name = d_bowl;
transform = "{-1, 0, 0, -1, 468, 557}";
}
);
guideLines = (
{
angle = 7;
position = "{50, -175}";
}
);
layerId = "849A9C4C-BF7C-40C5-8614-1FD725A2A379";
paths = (
{
closed = 1;
nodes = (
"190 -157 LINE",
"190 426 LINE",
"183 426 LINE",
"183 568 LINE",
"50 551 LINE",
"50 -175 LINE"
);
}
);
width = 505;
}
);
leftKerningGroup = straight;
leftMetricsKey = l;
rightKerningGroup = round;
unicode = 0070;
},
{
glyphname = thorn;
lastChange = "2017-11-23 15:46:13 +0000";
layers = (
{
background = {
paths = (
{
closed = 1;
nodes = (
"191 -175 LINE",
"190 70 LINE",
"195 55 OFFCURVE",
"201 41 OFFCURVE",
"212 28 CURVE SMOOTH",
"229 7 OFFCURVE",
"259 -13 OFFCURVE",
"311 -13 CURVE SMOOTH",
"414 -13 OFFCURVE",
"472 78 OFFCURVE",
"472 281 CURVE SMOOTH",
"472 495 OFFCURVE",
"410 570 OFFCURVE",
"336 570 CURVE SMOOTH",
"287 570 OFFCURVE",
"233 538 OFFCURVE",
"190 491 CURVE",
"190 750 LINE",
"50 732 LINE",
"50 -175 LINE"
);
},
{
closed = 1;
nodes = (
"225 87 OFFCURVE",
"190 117 OFFCURVE",
"190 234 CURVE SMOOTH",
"190 412 LINE",
"201 418 OFFCURVE",
"213 425 OFFCURVE",
"224 431 CURVE SMOOTH",
"243 440 OFFCURVE",
"266 450 OFFCURVE",
"283 450 CURVE SMOOTH",
"329 450 OFFCURVE",
"332 376 OFFCURVE",
"332 281 CURVE SMOOTH",
"332 177 OFFCURVE",
"327 87 OFFCURVE",
"259 87 CURVE SMOOTH"
);
}
);
};
components = (
{
name = d_bowl;
transform = "{-1, 0, 0, -1, 468, 557}";
}
);
guideLines = (
{
angle = 7;
position = "{50, -175}";
},
{
angle = 7;
position = "{50, 741}";
}
);
layerId = "849A9C4C-BF7C-40C5-8614-1FD725A2A379";
paths = (
{
closed = 1;
nodes = (
"190 -158 LINE",
"190 759 LINE",
"50 741 LINE",
"50 -175 LINE"
);
}
);
width = 505;
}
);
leftKerningGroup = straight;
leftMetricsKey = h;
rightKerningGroup = round;
rightMetricsKey = p;
unicode = 00FE;
},
{
glyphname = q;
lastChange = "2018-01-14 22:00:14 +0000";
layers = (
{
anchors = (
{
name = bottom;
position = "{269, 0}";
},
{
name = top;
position = "{269, 563}";
}
);
background = {
paths = (
{
closed = 1;
nodes = (
"456 -157 LINE",
"456 563 LINE",
"320 551 LINE",
"315 508 LINE",
"292 544 OFFCURVE",
"260 570 OFFCURVE",
"207 570 CURVE SMOOTH",
"64 570 OFFCURVE",
"57 393 OFFCURVE",
"57 272 CURVE SMOOTH",
"57 174 OFFCURVE",
"62 -13 OFFCURVE",
"206 -13 CURVE SMOOTH",
"263 -13 OFFCURVE",
"294 16 OFFCURVE",
"315 48 CURVE",
"315 -175 LINE"
);
},
{
closed = 1;
nodes = (
"222 94 OFFCURVE",
"198 125 OFFCURVE",
"198 275 CURVE SMOOTH",
"198 421 OFFCURVE",
"221 469 OFFCURVE",
"263 469 CURVE SMOOTH",
"288 469 OFFCURVE",
"302 453 OFFCURVE",
"315 430 CURVE",
"315 139 LINE",
"305 117 OFFCURVE",
"286 94 OFFCURVE",
"256 94 CURVE SMOOTH"
);
}
);
};
components = (
{
name = d_bowl;
transform = "{1, 0, 0, 1, 37, 0}";
}
);
guideLines = (
{
angle = 7;
position = "{455, 569}";
},
{
position = "{226, -175}";
}
);
layerId = "849A9C4C-BF7C-40C5-8614-1FD725A2A379";
paths = (
{
closed = 1;
nodes = (
"455 563 LINE",
"325 563 LINE",
"325 423 LINE",
"315 423 LINE",
"315 -175 LINE",
"455 -158 LINE"
);
}
);
width = 505;
}
);
leftKerningGroup = round;
rightKerningGroup = straight;
rightMetricsKey = l;
unicode = 0071;
},
{
glyphname = r;
lastChange = "2018-01-15 23:05:48 +0000";
layers = (
{
anchors = (
{
name = bottom;
position = "{191, 0}";
},
{
name = top;
position = "{196, 563}";
}
);
background = {
components = (
{
name = n;
transform = "{1, 0, 0, 1, -4, 0}";
}
);
paths = (
{
closed = 1;
nodes = (
"190 6 LINE",
"190 375 LINE",
"245 423 OFFCURVE",
"354 431 OFFCURVE",
"378 431 CURVE",
"378 568 LINE",
"278 568 OFFCURVE",
"224 521 OFFCURVE",
"190 472 CURVE",
"190 563 LINE",
"50 551 LINE",
"50 -6 LINE"
);
}
);
};
guideLines = (
{
angle = 7;
position = "{181, 564}";
},
{
angle = 78;
position = "{328, 400}";
showMeasurement = 1;
}
);
layerId = "849A9C4C-BF7C-40C5-8614-1FD725A2A379";
paths = (
{
closed = 1;
nodes = (
"184 401 LINE",
"184 563 LINE",
"50 547 LINE",
"50 0 LINE",
"190 0 LINE",
"190 401 LINE"
);
},
{
closed = 1;
nodes = (
"190 360 OFFCURVE",
"235 429 OFFCURVE",
"290 429 CURVE SMOOTH",
"313 429 OFFCURVE",
"325 424 OFFCURVE",
"343 414 CURVE",
"373 551 LINE",
"354 565 OFFCURVE",
"337 570 OFFCURVE",
"310 570 CURVE SMOOTH",
"246 570 OFFCURVE",
"189 496 OFFCURVE",
"180 395 CURVE",
"190 271 LINE"
);
}
);
width = 375;
}
);
leftKerningGroup = straight;
leftMetricsKey = n;
rightKerningGroup = superopen;
unicode = 0072;
},
{
glyphname = s;
lastChange = "2018-01-16 00:22:38 +0000";
layers = (
{
anchors = (
{
name = bottom;
position = "{215, 0}";
},
{
name = top;
position = "{215, 563}";
}
);
background = {
components = (
{
name = a;
transform = "{1, 0, 0, 1, -18, 0}";
}
);
paths = (
{
closed = 1;
nodes = (
"314 -13 OFFCURVE",
"414 46 OFFCURVE",
"414 167 CURVE SMOOTH",
"414 259 OFFCURVE",
"364 303 OFFCURVE",
"301 332 CURVE",
"201 373 LINE SMOOTH",
"183 381 OFFCURVE",
"152 396 OFFCURVE",
"152 421 CURVE SMOOTH",
"152 453 OFFCURVE",
"183 466 OFFCURVE",
"213 466 CURVE SMOOTH",
"240 466 OFFCURVE",
"258 449 OFFCURVE",
"269 432 CURVE SMOOTH",
"275 422 OFFCURVE",
"280 411 OFFCURVE",
"283 398 CURVE",
"399 434 LINE",
"374 521 OFFCURVE",
"293 570 OFFCURVE",
"212 570 CURVE SMOOTH",
"114 570 OFFCURVE",
"22 509 OFFCURVE",
"22 397 CURVE SMOOTH",
"22 319 OFFCURVE",
"56 265 OFFCURVE",
"119 239 CURVE SMOOTH",
"237 191 LINE SMOOTH",
"260 182 OFFCURVE",
"280 167 OFFCURVE",
"280 143 CURVE SMOOTH",
"280 108 OFFCURVE",
"235 98 OFFCURVE",
"209 98 CURVE SMOOTH",
"174 98 OFFCURVE",
"154 114 OFFCURVE",
"142 131 CURVE",
"135 141 OFFCURVE",
"130 152 OFFCURVE",
"127 165 CURVE",
"18 129 LINE",
"38 42 OFFCURVE",
"104 -13 OFFCURVE",
"218 -13 CURVE SMOOTH"
);
}
);
};
guideLines = (
{
angle = 12;
position = "{282, 392}";
},
{
angle = 12;
position = "{13, 130}";
},
{
angle = 6.2484;
position = "{137, 172}";
}
);
layerId = "849A9C4C-BF7C-40C5-8614-1FD725A2A379";
paths = (
{
closed = 1;
nodes = (
"320 -15 OFFCURVE",
"402 55 OFFCURVE",
"402 155 CURVE SMOOTH",
"402 238 OFFCURVE",
"358 280 OFFCURVE",
"296 314 CURVE SMOOTH",
"220 356 LINE SMOOTH",
"182 377 OFFCURVE",
"161 389 OFFCURVE",
"161 419 CURVE SMOOTH",
"161 445 OFFCURVE",
"182 470 OFFCURVE",
"217 470 CURVE SMOOTH",
"251 470 OFFCURVE",
"274 443 OFFCURVE",
"276 393 CURVE",
"387 417 LINE",
"381 526 OFFCURVE",
"307 573 OFFCURVE",
"214 573 CURVE SMOOTH",
"107 573 OFFCURVE",
"31 500 OFFCURVE",
"31 408 CURVE SMOOTH",
"31 335 OFFCURVE",
"70 285 OFFCURVE",
"127 253 CURVE SMOOTH",
"208 208 LINE SMOOTH",
"251 184 OFFCURVE",
"271 172 OFFCURVE",
"271 138 CURVE SMOOTH",
"271 108 OFFCURVE",
"249 90 OFFCURVE",
"217 90 CURVE SMOOTH",
"168 90 OFFCURVE",
"142 125 OFFCURVE",
"138 172 CURVE",
"25 160 LINE",
"29 41 OFFCURVE",
"105 -15 OFFCURVE",
"218 -15 CURVE SMOOTH"
);
}
);
width = 427;
}
);
leftKerningGroup = small;
rightKerningGroup = small;
unicode = 0073;
},
{
glyphname = germandbls;
lastChange = "2017-10-20 00:42:37 +0000";
layers = (
{
background = {
components = (
{
name = s;
transform = "{1, 0, 0, 1, 184, 0}";
}
);
};
guideLines = (
{
angle = 263;
position = "{259, 114}";
}
);
layerId = "849A9C4C-BF7C-40C5-8614-1FD725A2A379";
paths = (
{
closed = 1;
nodes = (
"219 -8 LINE",
"237 -13 OFFCURVE",
"255 -15 OFFCURVE",
"274 -15 CURVE SMOOTH",
"425 -15 OFFCURVE",
"505 67 OFFCURVE",
"505 195 CURVE SMOOTH",
"505 291 OFFCURVE",
"462 348 OFFCURVE",
"386 384 CURVE",
"447 422 OFFCURVE",
"474 489 OFFCURVE",
"474 560 CURVE SMOOTH",
"474 687 OFFCURVE",
"394 766 OFFCURVE",
"263 766 CURVE SMOOTH",
"118 766 OFFCURVE",
"50 675 OFFCURVE",
"50 531 CURVE SMOOTH",
"50 -97 LINE",
"190 -80 LINE",
"190 548 LINE SMOOTH",
"190 608 OFFCURVE",
"212 651 OFFCURVE",
"263 651 CURVE SMOOTH",
"309 651 OFFCURVE",
"338 610 OFFCURVE",
"338 552 CURVE SMOOTH",
"338 489 OFFCURVE",
"309 435 OFFCURVE",
"239 428 CURVE",
"239 336 LINE",
"313 318 OFFCURVE",
"369 269 OFFCURVE",
"369 195 CURVE SMOOTH",
"369 135 OFFCURVE",
"334 99 OFFCURVE",
"272 99 CURVE SMOOTH",
"260 99 OFFCURVE",
"250 100 OFFCURVE",
"236 103 CURVE"
);
}
);
width = 534;
}
);
leftKerningGroup = straight;
leftMetricsKey = l;
rightKerningGroup = round;
unicode = 00DF;
},
{
glyphname = t;
lastChange = "2018-01-16 00:24:24 +0000";
layers = (
{
anchors = (
{
name = bottom;
position = "{178, 0}";
},
{
name = center;
position = "{166, 281}";
},
{
name = top;
position = "{166, 563}";
},
{
name = topright;
position = "{337, 563}";
}
);
background = {
paths = (
{
closed = 1;
nodes = (
"278 -11 OFFCURVE",
"314 -3 OFFCURVE",
"331 0 CURVE",
"331 97 LINE",
"312 94 OFFCURVE",
"292 91 OFFCURVE",
"277 91 CURVE SMOOTH",
"240 91 OFFCURVE",
"218 105 OFFCURVE",
"218 147 CURVE SMOOTH",
"218 457 LINE",
"327 457 LINE",
"333 563 LINE",
"217 563 LINE",
"217 702 LINE",
"95 685 LINE",
"81 563 LINE",
"5 563 LINE",
"-1 457 LINE",
"77 457 LINE",
"77 146 LINE SMOOTH",
"77 16 OFFCURVE",
"165 -11 OFFCURVE",
"239 -11 CURVE SMOOTH"
);
}
);
};
guideLines = (
{
angle = 7;
position = "{110, 685}";
},
{
angle = 83;
position = "{324, 100}";
},
{
angle = 83;
position = "{86, 683}";
},
{
angle = 83;
position = "{333, 563}";
},
{
angle = 83;
position = "{28, 563}";
}
);
layerId = "849A9C4C-BF7C-40C5-8614-1FD725A2A379";
paths = (
{
closed = 1;
nodes = (
"261 -10 OFFCURVE",
"288 -4 OFFCURVE",
"312 7 CURVE",
"324 109 LINE",
"309 106 OFFCURVE",
"297 104 OFFCURVE",
"280 104 CURVE SMOOTH",
"241 104 OFFCURVE",
"218 127 OFFCURVE",
"218 178 CURVE SMOOTH",
"218 706 LINE",
"98 691 LINE",
"77 514 LINE",
"77 140 LINE SMOOTH",
"77 38 OFFCURVE",
"137 -10 OFFCURVE",
"225 -10 CURVE SMOOTH"
);
},
{
closed = 1;
nodes = (
"315 458 LINE",
"328 563 LINE",
"10 563 LINE",
"10 458 LINE"
);
}
);
width = 343;
}
);
leftKerningGroup = open;
rightKerningGroup = open;
unicode = 0074;
},
{
glyphname = tbar;
lastChange = "2017-10-20 01:00:20 +0000";
layers = (
{
background = {
paths = (
{
closed = 1;
nodes = (
"270 -13 OFFCURVE",
"296 -10 OFFCURVE",
"314 -6 CURVE SMOOTH",
"324 -4 OFFCURVE",
"333 -2 OFFCURVE",
"340 0 CURVE",
"340 97 LINE",
"330 95 LINE SMOOTH",
"324 94 OFFCURVE",
"315 94 OFFCURVE",
"305 94 CURVE SMOOTH",
"274 94 OFFCURVE",
"233 102 OFFCURVE",
"233 147 CURVE SMOOTH",
"233 457 LINE",
"342 457 LINE",
"348 563 LINE",
"233 563 LINE",
"233 702 LINE",
"111 685 LINE",
"97 563 LINE",
"20 563 LINE",
"14 457 LINE",
"93 457 LINE",
"93 119 LINE SMOOTH",
"93 19 OFFCURVE",
"172 -13 OFFCURVE",
"233 -13 CURVE SMOOTH"
);
},
{
closed = 1;
nodes = (
"310 282 LINE",
"310 375 LINE",
"28 375 LINE",
"28 282 LINE"
);
}
);
};
components = (
{
name = t;
}
);
guideLines = (
{
angle = 83;
position = "{301, 262}";
}
);
layerId = "849A9C4C-BF7C-40C5-8614-1FD725A2A379";
paths = (
{
closed = 1;
nodes = (
"327 274 LINE",
"339 368 LINE",
"11 368 LINE",
"11 274 LINE"
);
}
);
width = 358;
}
);
leftKerningGroup = open;
rightKerningGroup = open;
unicode = 0167;
},
{
glyphname = u;
lastChange = "2018-01-14 22:17:37 +0000";
layers = (
{
anchors = (
{
name = bottom;
position = "{248, 0}";
},
{
name = ogonek;
position = "{505, 5}";
},
{
name = top;
position = "{252, 563}";
},
{
name = topright;
position = "{510, 563}";
}
);
components = (
{
name = n_arch;
transform = "{-1, 0, 0, -1, 319, 563}";
}
);
guideLines = (
{
angle = 7;
position = "{459, 566}";
}
);
layerId = "849A9C4C-BF7C-40C5-8614-1FD725A2A379";
paths = (
{
closed = 1;
nodes = (
"319 563 LINE",
"319 138 LINE",
"322 124 LINE",
"322 -7 LINE",
"459 10 LINE",
"459 563 LINE"
);
}
);
width = 509;
}
);
leftKerningGroup = straight;
rightKerningGroup = straight;
rightMetricsKey = l;
unicode = 0075;
},
{
glyphname = v;
lastChange = "2018-01-16 00:28:46 +0000";
layers = (
{
anchors = (
{
name = bottom;
position = "{222, 0}";
},
{
name = top;
position = "{225, 563}";
}
);
guideLines = (
{
angle = 7;
position = "{145, 567}";
},
{
angle = 76.2275;
position = "{293, 0}";
}
);
layerId = "849A9C4C-BF7C-40C5-8614-1FD725A2A379";
paths = (
{
closed = 1;
nodes = (
"293 0 LINE",
"431 563 LINE",
"310 565 LINE",
"222 172 LINE",
"142 569 LINE",
"10 553 LINE",
"146 0 LINE"
);
}
);
width = 441;
}
);
leftKerningGroup = angle;
rightKerningGroup = angle;
unicode = 0076;
},
{
glyphname = w;
lastChange = "2018-01-15 23:44:20 +0000";
layers = (
{
anchors = (
{
name = bottom;
position = "{315, 0}";
},
{
name = top;
position = "{315, 563}";
}
);
guideLines = (
{
angle = 7;
position = "{145, 566}";
}
);
layerId = "849A9C4C-BF7C-40C5-8614-1FD725A2A379";
paths = (
{
closed = 1;
nodes = (
"259 0 LINE",
"313 330 LINE",
"320 392 LINE",
"326 330 LINE",
"378 0 LINE",
"512 0 LINE",
"624 565 LINE",
"509 565 LINE",
"446 167 LINE",
"439 228 LINE",
"386 563 LINE",
"263 563 LINE",
"207 221 LINE",
"199 160 LINE",
"143 571 LINE",
"10 555 LINE",
"122 0 LINE"
);
}
);
width = 634;
}
);
leftKerningGroup = angle;
leftMetricsKey = v;
rightKerningGroup = angle;
rightMetricsKey = v;
unicode = 0077;
},
{
glyphname = x;
lastChange = "2018-01-16 00:22:18 +0000";
layers = (
{
anchors = (
{
name = bottom;
position = "{213, 0}";
},
{
name = top;
position = "{213, 563}";
}
);
background = {
paths = (
{
closed = 1;
nodes = (
"289 310 LINE",
"425 563 LINE",
"292 563 LINE",
"220 425 LINE",
"153 563 LINE",
"-1 563 LINE",
"146 283 LINE",
"-6 0 LINE",
"128 0 LINE",
"214 166 LINE",
"297 -6 LINE",
"451 6 LINE"
);
}
);
};
guideLines = (
{
angle = 7;
position = "{166, 573}";
},
{
angle = 173;
position = "{121, -9}";
},
{
position = "{424, -6}";
},
{
angle = 15;
position = "{289, -15}";
},
{
angle = 15;
position = "{149, 567}";
showMeasurement = 1;
}
);
layerId = "849A9C4C-BF7C-40C5-8614-1FD725A2A379";
paths = (
{
closed = 1;
nodes = (
"202 332 LINE",
"160 332 LINE",
"10 0 LINE",
"143 0 LINE",
"231 235 LINE",
"275 235 LINE",
"423 564 LINE",
"289 564 LINE"
);
},
{
closed = 1;
nodes = (
"155 232 LINE",
"193 232 LINE",
"291 -15 LINE",
"424 21 LINE",
"269 348 LINE",
"230 348 LINE",
"148 576 LINE",
"15 540 LINE"
);
}
);
width = 434;
}
);
leftKerningGroup = void;
rightKerningGroup = void;
unicode = 0078;
},
{
glyphname = y;
lastChange = "2018-01-15 23:44:10 +0000";
layers = (
{
anchors = (
{
name = bottom;
position = "{359, 49}";
},
{
name = top;
position = "{213, 563}";
}
);
guideLines = (
{
angle = 7;
position = "{5, 549}";
showMeasurement = 1;
},
{
angle = 76.2275;
position = "{423, 564}";
}
);
layerId = "849A9C4C-BF7C-40C5-8614-1FD725A2A379";
paths = (
{
closed = 1;
nodes = (
"145 572 LINE",
"4 553 LINE",
"144 40 LINE",
"219 178 LINE"
);
},
{
closed = 1;
nodes = (
"141 27 LINE SMOOTH",
"141 -13 OFFCURVE",
"110 -51 OFFCURVE",
"68 -51 CURVE SMOOTH",
"52 -51 OFFCURVE",
"39 -49 OFFCURVE",
"24 -42 CURVE",
"0 -155 LINE",
"26 -165 OFFCURVE",
"45 -168 OFFCURVE",
"80 -168 CURVE SMOOTH",
"192 -168 OFFCURVE",
"254 -97 OFFCURVE",
"283 16 CURVE SMOOTH",
"423 564 LINE",
"293 566 LINE",
"217 178 LINE",
"141 74 LINE"
);
}
);
width = 433;
}
);
leftKerningGroup = angle;
rightKerningGroup = angle;
rightMetricsKey = v;
unicode = 0079;
},
{
glyphname = z;
lastChange = "2018-01-15 23:01:07 +0000";
layers = (
{
anchors = (
{
name = bottom;
position = "{188, 0}";
},
{
name = top;
position = "{203, 563}";
}
);
guideLines = (
{
angle = -83;
position = "{20, 88}";
},
{
angle = -83;
position = "{365, 479}";
},
{
angle = 263;
position = "{380, 111}";
},
{
angle = 263;
position = "{15, 453}";
}
);
layerId = "849A9C4C-BF7C-40C5-8614-1FD725A2A379";
paths = (
{
closed = 1;
nodes = (
"369 0 LINE",
"382 111 LINE",
"174 111 LINE",
"375 479 LINE",
"365 563 LINE",
"20 563 LINE",
"20 453 LINE",
"219 453 LINE",
"10 88 LINE",
"21 0 LINE"
);
}
);
width = 392;
}
);
leftKerningGroup = void;
rightKerningGroup = void;
unicode = 007A;
},
{
glyphname = g.001;
lastChange = "2017-11-23 15:46:20 +0000";
layers = (
{
anchors = (
{
name = bottom;
position = "{260, 0}";
},
{
name = top;
position = "{260, 563}";
}
);
background = {
components = (
{
name = a;
transform = "{1, 0, 0, 1, 25, 0}";
}
);
paths = (
{
closed = 1;
nodes = (
"142 570 OFFCURVE",
"44 510 OFFCURVE",
"44 399 CURVE SMOOTH",
"44 289 OFFCURVE",
"142 227 OFFCURVE",
"250 227 CURVE SMOOTH",
"356 227 OFFCURVE",
"456 289 OFFCURVE",
"456 399 CURVE SMOOTH",
"456 510 OFFCURVE",
"356 570 OFFCURVE",
"250 570 CURVE SMOOTH"
);
},
{
closed = 1;
nodes = (
"290 489 OFFCURVE",
"316 446 OFFCURVE",
"316 399 CURVE SMOOTH",
"316 352 OFFCURVE",
"290 308 OFFCURVE",
"250 308 CURVE SMOOTH",
"210 308 OFFCURVE",
"184 352 OFFCURVE",
"184 399 CURVE SMOOTH",
"184 446 OFFCURVE",
"210 489 OFFCURVE",
"250 489 CURVE SMOOTH"
);
}
);
};
components = (
{
name = d_bowl;
transform = "{1, 0, 0, 1, 37, 0}";
}
);
guideLines = (
{
angle = -78;
position = "{489, 547}";
},
{
angle = 78;
position = "{97, -24}";
}
);
layerId = "849A9C4C-BF7C-40C5-8614-1FD725A2A379";
paths = (
{
closed = 1;
nodes = (
"358 -192 OFFCURVE",
"455 -110 OFFCURVE",
"455 28 CURVE",
"455 553 LINE",
"325 553 LINE",
"325 415 LINE",
"315 415 LINE",
"315 25 LINE SMOOTH",
"315 -39 OFFCURVE",
"282 -74 OFFCURVE",
"214 -74 CURVE SMOOTH",
"162 -74 OFFCURVE",
"122 -63 OFFCURVE",
"72 -37 CURVE",
"46 -160 LINE",
"98 -183 OFFCURVE",
"146 -192 OFFCURVE",
"217 -192 CURVE SMOOTH"
);
}
);
width = 505;
}
);
leftKerningGroup = round;
leftMetricsKey = q;
rightKerningGroup = straight;
rightMetricsKey = u;
},
{
glyphname = germandbls.001;
lastChange = "2017-10-20 00:40:53 +0000";
layers = (
{
background = {
components = (
{
name = s;
transform = "{1, 0, 0, 1, 196, 0}";
}
);
};
guideLines = (
{
angle = 70;
position = "{279, 115}";
}
);
layerId = "849A9C4C-BF7C-40C5-8614-1FD725A2A379";
paths = (
{
closed = 1;
nodes = (
"202 -80 LINE",
"202 525 LINE SMOOTH",
"202 610 OFFCURVE",
"230 662 OFFCURVE",
"282 662 CURVE SMOOTH",
"330 662 OFFCURVE",
"355 622 OFFCURVE",
"355 568 CURVE SMOOTH",
"355 505 OFFCURVE",
"316 465 OFFCURVE",
"251 432 CURVE",
"251 363 OFFCURVE",
"286 304 OFFCURVE",
"340 270 CURVE SMOOTH",
"364 255 LINE SMOOTH",
"405 230 OFFCURVE",
"419 208 OFFCURVE",
"419 166 CURVE SMOOTH",
"419 123 OFFCURVE",
"391 99 OFFCURVE",
"357 99 CURVE SMOOTH",
"336 99 OFFCURVE",
"313 104 OFFCURVE",
"286 118 CURVE",
"247 14 LINE",
"280 -5 OFFCURVE",
"322 -14 OFFCURVE",
"368 -14 CURVE SMOOTH",
"467 -14 OFFCURVE",
"560 56 OFFCURVE",
"560 171 CURVE SMOOTH",
"560 239 OFFCURVE",
"530 290 OFFCURVE",
"471 328 CURVE SMOOTH",
"450 342 LINE SMOOTH",
"409 368 OFFCURVE",
"373 391 OFFCURVE",
"373 422 CURVE",
"442 446 OFFCURVE",
"498 510 OFFCURVE",
"498 585 CURVE SMOOTH",
"498 706 OFFCURVE",
"406 766 OFFCURVE",
"278 766 CURVE SMOOTH",
"120 766 OFFCURVE",
"62 656 OFFCURVE",
"62 514 CURVE SMOOTH",
"62 -97 LINE"
);
}
);
width = 571;
}
);
leftKerningGroup = straight;
rightKerningGroup = small;
},
{
export = 0;
glyphname = d_bowl;
lastChange = "2017-10-20 00:33:38 +0000";
layers = (
{
background = {
paths = (
{
closed = 1;
nodes = (
"165 91 OFFCURVE",
"140 163 OFFCURVE",
"140 278 CURVE SMOOTH",
"140 394 OFFCURVE",
"165 466 OFFCURVE",
"215 466 CURVE SMOOTH",
"254 466 OFFCURVE",
"278 417 OFFCURVE",
"278 349 CURVE",
"301 412 LINE",
"301 503 OFFCURVE",
"255 570 OFFCURVE",
"165 570 CURVE SMOOTH",
"50 570 OFFCURVE",
"0 459 OFFCURVE",
"0 279 CURVE SMOOTH",
"0 115 OFFCURVE",
"50 -13 OFFCURVE",
"174 -13 CURVE SMOOTH",
"269 -13 OFFCURVE",
"301 69 OFFCURVE",
"301 149 CURVE",
"278 204 LINE",
"278 143 OFFCURVE",
"254 91 OFFCURVE",
"215 91 CURVE SMOOTH"
);
}
);
};
layerId = "849A9C4C-BF7C-40C5-8614-1FD725A2A379";
paths = (
{
closed = 1;
nodes = (
"262 466 OFFCURVE",
"278 404 OFFCURVE",
"278 320 CURVE",
"301 408 LINE",
"301 488 OFFCURVE",
"267 570 OFFCURVE",
"172 570 CURVE SMOOTH",
"50 570 OFFCURVE",
"-2 442 OFFCURVE",
"-2 278 CURVE SMOOTH",
"-2 98 OFFCURVE",
"50 -13 OFFCURVE",
"165 -13 CURVE SMOOTH",
"255 -13 OFFCURVE",
"301 54 OFFCURVE",
"301 145 CURVE",
"278 235 LINE",
"278 149 OFFCURVE",
"262 91 OFFCURVE",
"211 91 CURVE SMOOTH",
"161 91 OFFCURVE",
"141 167 OFFCURVE",
"141 279 CURVE SMOOTH",
"141 390 OFFCURVE",
"161 466 OFFCURVE",
"214 466 CURVE SMOOTH"
);
}
);
width = 278;
}
);
},
{
export = 0;
glyphname = n_arch;
lastChange = "2017-10-20 00:38:20 +0000";
layers = (
{
guideLines = (
{
angle = 201.8014;
position = "{204, 376}";
}
);
layerId = "849A9C4C-BF7C-40C5-8614-1FD725A2A379";
paths = (
{
closed = 1;
nodes = (
"0 287 LINE",
"0 382 OFFCURVE",
"32 454 OFFCURVE",
"79 454 CURVE SMOOTH",
"128 454 OFFCURVE",
"134 408 OFFCURVE",
"134 348 CURVE SMOOTH",
"134 0 LINE",
"274 0 LINE",
"274 404 LINE SMOOTH",
"274 521 OFFCURVE",
"223 573 OFFCURVE",
"144 573 CURVE SMOOTH",
"67 573 OFFCURVE",
"6 526 OFFCURVE",
"-10 418 CURVE"
);
}
);
width = 274;
}
);
},
{
glyphname = f_f;
lastChange = "2017-11-02 17:30:31 +0000";
layers = (
{
background = {
components = (
{
name = f;
transform = "{1, 0, 0, 1, -13, 0}";
},
{
name = f;
transform = "{1, 0, 0, 1, 330, 0}";
}
);
};
guideLines = (
{
angle = 258;
position = "{371, 745}";
}
);
layerId = "849A9C4C-BF7C-40C5-8614-1FD725A2A379";
paths = (
{
closed = 1;
nodes = (
"220 0 LINE",
"220 598 LINE SMOOTH",
"220 652 OFFCURVE",
"239 680 OFFCURVE",
"281 680 CURVE SMOOTH",
"308 680 OFFCURVE",
"329 676 OFFCURVE",
"351 669 CURVE",
"371 765 LINE",
"336 782 OFFCURVE",
"287 791 OFFCURVE",
"243 791 CURVE SMOOTH",
"127 791 OFFCURVE",
"80 719 OFFCURVE",
"80 616 CURVE SMOOTH",
"80 0 LINE"
);
},
{
closed = 1;
nodes = (
"635 458 LINE",
"648 563 LINE",
"15 563 LINE",
"15 458 LINE"
);
},
{
closed = 1;
nodes = (
"542 0 LINE",
"542 563 LINE",
"542 603 LINE SMOOTH",
"542 662 OFFCURVE",
"555 690 OFFCURVE",
"596 690 CURVE SMOOTH",
"614 690 OFFCURVE",
"629 687 OFFCURVE",
"642 680 CURVE",
"655 778 LINE",
"622 793 OFFCURVE",
"587 801 OFFCURVE",
"543 801 CURVE SMOOTH",
"449 801 OFFCURVE",
"402 729 OFFCURVE",
"402 626 CURVE SMOOTH",
"402 0 LINE"
);
}
);
width = 662;
}
);
leftKerningGroup = open;
leftMetricsKey = f;
rightKerningGroup = straight;
rightMetricsKey = f;
},
{
glyphname = f_f_i;
lastChange = "2017-10-20 00:40:43 +0000";
layers = (
{
anchors = (
{
name = bottom;
position = "{804, 0}";
},
{
name = caret_1;
position = "{312, 0}";
},
{
name = caret_2;
position = "{653, 0}";
},
{
name = ogonek;
position = "{958, 5}";
},
{
name = top;
position = "{808, 563}";
}
);
background = {
components = (
{
name = f;
},
{
name = i;
transform = "{1, 0, 0, 1, 675, 0}";
}
);
};
guideLines = (
{
angle = 83;
position = "{28, 458}";
}
);
layerId = "849A9C4C-BF7C-40C5-8614-1FD725A2A379";
paths = (
{
closed = 1;
nodes = (
"555 0 LINE",
"555 563 LINE",
"555 603 LINE SMOOTH",
"555 662 OFFCURVE",
"568 690 OFFCURVE",
"609 690 CURVE SMOOTH",
"627 690 OFFCURVE",
"642 687 OFFCURVE",
"655 680 CURVE",
"668 778 LINE",
"635 793 OFFCURVE",
"600 801 OFFCURVE",
"556 801 CURVE SMOOTH",
"462 801 OFFCURVE",
"415 729 OFFCURVE",
"415 626 CURVE SMOOTH",
"415 0 LINE"
);
},
{
closed = 1;
nodes = (
"877 632 LINE",
"877 761 LINE",
"733 761 LINE",
"733 632 LINE"
);
},
{
closed = 1;
nodes = (
"875 0 LINE",
"875 563 LINE",
"735 563 LINE",
"735 0 LINE"
);
},
{
closed = 1;
nodes = (
"33 563 LINE",
"20 458 LINE",
"870 458 LINE",
"870 563 LINE"
);
},
{
closed = 1;
nodes = (
"233 0 LINE",
"233 598 LINE SMOOTH",
"233 652 OFFCURVE",
"252 680 OFFCURVE",
"294 680 CURVE SMOOTH",
"321 680 OFFCURVE",
"342 676 OFFCURVE",
"364 669 CURVE",
"384 765 LINE",
"349 782 OFFCURVE",
"300 791 OFFCURVE",
"256 791 CURVE SMOOTH",
"140 791 OFFCURVE",
"93 719 OFFCURVE",
"93 616 CURVE SMOOTH",
"93 0 LINE"
);
}
);
width = 927;
}
);
leftKerningGroup = open;
rightKerningGroup = straight;
rightMetricsKey = i;
},
{
glyphname = f_f_l;
lastChange = "2017-11-02 17:30:18 +0000";
layers = (
{
background = {
paths = (
{
closed = 1;
nodes = (
"589 6 LINE",
"589 457 LINE",
"682 457 LINE",
"688 563 LINE",
"589 563 LINE",
"589 573 LINE SMOOTH",
"589 614 OFFCURVE",
"594 656 OFFCURVE",
"652 656 CURVE SMOOTH",
"683 656 LINE",
"683 740 LINE",
"677 743 OFFCURVE",
"670 745 OFFCURVE",
"661 748 CURVE SMOOTH",
"646 751 OFFCURVE",
"622 755 OFFCURVE",
"588 755 CURVE SMOOTH",
"452 755 OFFCURVE",
"448 664 OFFCURVE",
"448 573 CURVE SMOOTH",
"448 563 LINE",
"385 563 LINE",
"379 457 LINE",
"448 457 LINE",
"448 -6 LINE"
);
},
{
closed = 1;
nodes = (
"221 6 LINE",
"221 457 LINE",
"314 457 LINE",
"320 563 LINE",
"221 563 LINE",
"221 573 LINE SMOOTH",
"221 614 OFFCURVE",
"225 656 OFFCURVE",
"284 656 CURVE SMOOTH",
"315 656 LINE",
"315 740 LINE",
"309 743 OFFCURVE",
"302 745 OFFCURVE",
"293 748 CURVE SMOOTH",
"278 751 OFFCURVE",
"254 755 OFFCURVE",
"220 755 CURVE SMOOTH",
"84 755 OFFCURVE",
"80 664 OFFCURVE",
"80 573 CURVE SMOOTH",
"80 563 LINE",
"16 563 LINE",
"11 457 LINE",
"80 457 LINE",
"80 -6 LINE"
);
},
{
closed = 1;
nodes = (
"956 6 LINE",
"956 750 LINE",
"815 732 LINE",
"815 -6 LINE"
);
}
);
};
components = (
{
name = l;
transform = "{1, 0, 0, 1, 653, 0}";
}
);
layerId = "849A9C4C-BF7C-40C5-8614-1FD725A2A379";
paths = (
{
closed = 1;
nodes = (
"542 0 LINE",
"542 563 LINE",
"542 583 LINE SMOOTH",
"542 635 OFFCURVE",
"558 663 OFFCURVE",
"600 663 CURVE SMOOTH",
"632 663 OFFCURVE",
"649 659 OFFCURVE",
"672 652 CURVE",
"672 750 LINE",
"637 766 OFFCURVE",
"600 776 OFFCURVE",
"546 776 CURVE SMOOTH",
"449 776 OFFCURVE",
"402 704 OFFCURVE",
"402 601 CURVE SMOOTH",
"402 0 LINE"
);
},
{
closed = 1;
nodes = (
"220 0 LINE",
"220 598 LINE SMOOTH",
"220 652 OFFCURVE",
"239 680 OFFCURVE",
"281 680 CURVE SMOOTH",
"308 680 OFFCURVE",
"329 676 OFFCURVE",
"351 669 CURVE",
"371 765 LINE",
"336 782 OFFCURVE",
"287 791 OFFCURVE",
"243 791 CURVE SMOOTH",
"127 791 OFFCURVE",
"80 719 OFFCURVE",
"80 616 CURVE SMOOTH",
"80 0 LINE"
);
},
{
closed = 1;
nodes = (
"15 563 LINE",
"15 458 LINE",
"636 458 LINE",
"649 563 LINE"
);
}
);
width = 893;
}
);
leftKerningGroup = open;
leftMetricsKey = f;
rightKerningGroup = straight;
rightMetricsKey = l;
},
{
glyphname = fi;
lastChange = "2017-11-02 17:30:20 +0000";
layers = (
{
anchors = (
{
name = bottom;
position = "{461, 0}";
},
{
name = caret_1;
position = "{281, 0}";
},
{
name = ogonek;
position = "{615, 5}";
},
{
name = top;
position = "{465, 563}";
}
);
background = {
paths = (
{
closed = 1;
nodes = (
"194 6 LINE",
"194 447 LINE",
"394 447 LINE",
"394 -6 LINE",
"535 6 LINE",
"535 563 LINE",
"194 563 LINE",
"194 573 LINE SMOOTH",
"194 614 OFFCURVE",
"199 656 OFFCURVE",
"258 656 CURVE SMOOTH",
"288 656 LINE",
"288 740 LINE",
"282 743 OFFCURVE",
"275 745 OFFCURVE",
"266 748 CURVE SMOOTH",
"251 751 OFFCURVE",
"228 755 OFFCURVE",
"193 755 CURVE SMOOTH",
"57 755 OFFCURVE",
"53 664 OFFCURVE",
"53 573 CURVE SMOOTH",
"53 563 LINE",
"-4 563 LINE",
"-16 448 LINE",
"53 448 LINE",
"53 -6 LINE"
);
},
{
closed = 1;
nodes = (
"535 635 LINE",
"535 781 LINE",
"394 781 LINE",
"394 629 LINE"
);
},
{
closed = 1;
nodes = (
"220 0 LINE",
"220 563 LINE",
"220 603 LINE SMOOTH",
"220 662 OFFCURVE",
"233 690 OFFCURVE",
"274 690 CURVE SMOOTH",
"292 690 OFFCURVE",
"307 687 OFFCURVE",
"320 680 CURVE",
"333 778 LINE",
"300 793 OFFCURVE",
"265 801 OFFCURVE",
"221 801 CURVE SMOOTH",
"127 801 OFFCURVE",
"80 729 OFFCURVE",
"80 626 CURVE SMOOTH",
"80 0 LINE"
);
}
);
};
guideLines = (
{
angle = 7;
position = "{535, 563}";
}
);
layerId = "849A9C4C-BF7C-40C5-8614-1FD725A2A379";
paths = (
{
closed = 1;
nodes = (
"544 632 LINE",
"544 761 LINE",
"400 761 LINE",
"400 632 LINE"
);
},
{
closed = 1;
nodes = (
"527 458 LINE",
"527 563 LINE",
"28 563 LINE",
"15 458 LINE"
);
},
{
closed = 1;
nodes = (
"542 0 LINE",
"542 563 LINE",
"402 563 LINE",
"402 0 LINE"
);
},
{
closed = 1;
nodes = (
"220 0 LINE",
"220 563 LINE",
"220 573 LINE SMOOTH",
"220 632 OFFCURVE",
"233 662 OFFCURVE",
"274 662 CURVE SMOOTH",
"292 662 OFFCURVE",
"307 660 OFFCURVE",
"326 655 CURVE",
"333 753 LINE",
"298 764 OFFCURVE",
"264 771 OFFCURVE",
"221 771 CURVE SMOOTH",
"127 771 OFFCURVE",
"80 699 OFFCURVE",
"80 596 CURVE SMOOTH",
"80 0 LINE"
);
}
);
width = 594;
}
);
leftKerningGroup = open;
leftMetricsKey = f;
rightKerningGroup = straight;
rightMetricsKey = i;
unicode = FB01;
},
{
glyphname = fl;
lastChange = "2017-11-02 17:30:21 +0000";
layers = (
{
anchors = (
{
name = bottom;
position = "{167, 0}";
},
{
name = center;
position = "{467, 281}";
},
{
name = top;
position = "{167, 563}";
},
{
name = topright;
position = "{589, 563}";
}
);
background = {
components = (
{
name = f;
transform = "{1, 0, 0, 1, -5, 0}";
}
);
paths = (
{
closed = 1;
nodes = (
"225 0 LINE",
"225 447 LINE",
"307 447 LINE",
"318 563 LINE",
"225 563 LINE",
"225 573 LINE SMOOTH",
"225 614 OFFCURVE",
"227 656 OFFCURVE",
"269 656 CURVE SMOOTH",
"425 656 LINE",
"425 0 LINE",
"566 0 LINE",
"566 750 LINE",
"273 750 LINE SMOOTH",
"88 750 OFFCURVE",
"84 664 OFFCURVE",
"84 573 CURVE SMOOTH",
"84 563 LINE",
"27 563 LINE",
"15 448 LINE",
"84 448 LINE",
"84 0 LINE"
);
},
{
closed = 1;
nodes = (
"224 0 LINE",
"224 578 LINE SMOOTH",
"224 632 OFFCURVE",
"243 668 OFFCURVE",
"295 668 CURVE SMOOTH",
"329 668 OFFCURVE",
"363 667 OFFCURVE",
"392 663 CURVE",
"532 760 LINE",
"457 770 OFFCURVE",
"371 779 OFFCURVE",
"287 779 CURVE SMOOTH",
"146 779 OFFCURVE",
"84 712 OFFCURVE",
"84 596 CURVE SMOOTH",
"84 0 LINE"
);
}
);
};
layerId = "849A9C4C-BF7C-40C5-8614-1FD725A2A379";
paths = (
{
closed = 1;
nodes = (
"537 0 LINE",
"537 767 LINE",
"397 750 LINE",
"397 0 LINE"
);
},
{
closed = 1;
nodes = (
"224 0 LINE",
"224 578 LINE SMOOTH",
"224 632 OFFCURVE",
"243 660 OFFCURVE",
"285 660 CURVE SMOOTH",
"309 660 OFFCURVE",
"328 657 OFFCURVE",
"350 650 CURVE",
"350 750 LINE",
"312 765 OFFCURVE",
"278 771 OFFCURVE",
"236 771 CURVE SMOOTH",
"114 771 OFFCURVE",
"84 678 OFFCURVE",
"84 596 CURVE SMOOTH",
"84 0 LINE"
);
},
{
closed = 1;
nodes = (
"313 458 LINE",
"326 563 LINE",
"15 563 LINE",
"15 458 LINE"
);
}
);
width = 587;
}
);
leftKerningGroup = open;
leftMetricsKey = f;
rightKerningGroup = straight;
rightMetricsKey = l;
unicode = FB02;
},
{
glyphname = ordfeminine;
lastChange = "2017-10-13 00:32:11 +0000";
layers = (
{
anchors = (
{
name = bottom;
position = "{187.464, 332}";
},
{
name = ogonek;
position = "{386.454, 328.996}";
},
{
name = top;
position = "{194.222, 754.762}";
}
);
background = {
paths = (
{
closed = 1;
nodes = (
"163 331 OFFCURVE",
"203 357 OFFCURVE",
"218 387 CURVE",
"229 336 LINE",
"330 345 LINE",
"326 358 OFFCURVE",
"319 393 OFFCURVE",
"319 419 CURVE SMOOTH",
"319 633 LINE SMOOTH",
"319 704 OFFCURVE",
"280 760 OFFCURVE",
"186 760 CURVE SMOOTH",
"126 760 OFFCURVE",
"58 737 OFFCURVE",
"48 655 CURVE",
"148 637 LINE",
"151 661 OFFCURVE",
"162 684 OFFCURVE",
"185 684 CURVE SMOOTH",
"215 684 OFFCURVE",
"216 645 OFFCURVE",
"216 607 CURVE",
"141 601 OFFCURVE",
"33 576 OFFCURVE",
"33 457 CURVE SMOOTH",
"33 385 OFFCURVE",
"72 331 OFFCURVE",
"125 331 CURVE SMOOTH"
);
},
{
closed = 1;
nodes = (
"148 405 OFFCURVE",
"135 426 OFFCURVE",
"135 462 CURVE SMOOTH",
"135 522 OFFCURVE",
"169 544 OFFCURVE",
"216 544 CURVE",
"216 429 LINE",
"207 419 OFFCURVE",
"193 405 OFFCURVE",
"173 405 CURVE SMOOTH"
);
}
);
};
layerId = "849A9C4C-BF7C-40C5-8614-1FD725A2A379";
paths = (
{
closed = 1;
nodes = (
"114 600 OFFCURVE",
"23 561 OFFCURVE",
"23 448 CURVE SMOOTH",
"23 372 OFFCURVE",
"65 324 OFFCURVE",
"131.145 324.491 CURVE SMOOTH",
"184 325 OFFCURVE",
"222 356 OFFCURVE",
"230 403 CURVE",
"218 453 LINE",
"218.251 429.618 OFFCURVE",
"199 407 OFFCURVE",
"173 407 CURVE SMOOTH",
"148 407 OFFCURVE",
"130 425 OFFCURVE",
"130 463 CURVE SMOOTH",
"130 507 OFFCURVE",
"164 540 OFFCURVE",
"218 540 CURVE",
"218 600 LINE"
);
},
{
closed = 1;
nodes = (
"225.009 372.549 OFFCURVE",
"228.013 353.025 OFFCURVE",
"235.522 332 CURVE",
"346 332 LINE",
"334 366 OFFCURVE",
"331 395 OFFCURVE",
"331 436 CURVE SMOOTH",
"331 606 LINE SMOOTH",
"331 706 OFFCURVE",
"287 768 OFFCURVE",
"185 768 CURVE SMOOTH",
"94 768 OFFCURVE",
"45 717 OFFCURVE",
"38 643 CURVE",
"144 625 LINE",
"146 655 OFFCURVE",
"154 682 OFFCURVE",
"181 682 CURVE SMOOTH",
"212 682 OFFCURVE",
"218.251 649.634 OFFCURVE",
"218.251 617.345 CURVE SMOOTH",
"218.251 396.578 LINE",
"225.009 396.578 LINE"
);
}
);
width = 378;
}
);
unicode = 00AA;
},
{
glyphname = ordmasculine;
lastChange = "2017-10-13 00:32:11 +0000";
layers = (
{
anchors = (
{
name = bottom;
position = "{223, 331}";
},
{
name = center;
position = "{227, 544}";
},
{
name = ogonek;
position = "{359, 335}";
},
{
name = top;
position = "{227, 759}";
},
{
name = topright;
position = "{402, 759}";
}
);
background = {
paths = (
{
closed = 1;
nodes = (
"354 376 OFFCURVE",
"421 458 OFFCURVE",
"421 573 CURVE SMOOTH",
"421 686 OFFCURVE",
"355 769 OFFCURVE",
"228 769 CURVE SMOOTH",
"102 769 OFFCURVE",
"38 686 OFFCURVE",
"38 573 CURVE SMOOTH",
"38 458 OFFCURVE",
"103 376 OFFCURVE",
"228 376 CURVE SMOOTH"
);
},
{
closed = 1;
nodes = (
"183 471 OFFCURVE",
"159 525 OFFCURVE",
"159 576 CURVE SMOOTH",
"159 628 OFFCURVE",
"182 679 OFFCURVE",
"229 679 CURVE SMOOTH",
"276 679 OFFCURVE",
"299 627 OFFCURVE",
"299 575 CURVE SMOOTH",
"299 522 OFFCURVE",
"275 471 OFFCURVE",
"229 471 CURVE SMOOTH"
);
}
);
};
layerId = "849A9C4C-BF7C-40C5-8614-1FD725A2A379";
paths = (
{
closed = 1;
nodes = (
"334 325 OFFCURVE",
"404 407 OFFCURVE",
"404 547 CURVE SMOOTH",
"404 679 OFFCURVE",
"334 766 OFFCURVE",
"226 766 CURVE SMOOTH",
"118 766 OFFCURVE",
"50 677 OFFCURVE",
"50 547 CURVE SMOOTH",
"50 408 OFFCURVE",
"118 325 OFFCURVE",
"226 325 CURVE SMOOTH"
);
},
{
closed = 1;
nodes = (
"184 407 OFFCURVE",
"168 465 OFFCURVE",
"168 545 CURVE SMOOTH",
"168 615 OFFCURVE",
"184 679 OFFCURVE",
"226 679 CURVE SMOOTH",
"271 679 OFFCURVE",
"287 615 OFFCURVE",
"287 545 CURVE SMOOTH",
"287 465 OFFCURVE",
"271 407 OFFCURVE",
"226 407 CURVE SMOOTH"
);
}
);
width = 454;
}
);
unicode = 00BA;
},
{
glyphname = Delta;
lastChange = "2017-10-13 00:32:11 +0000";
layers = (
{
guideLines = (
{
angle = 7;
position = "{182, 741}";
}
);
layerId = "849A9C4C-BF7C-40C5-8614-1FD725A2A379";
paths = (
{
closed = 1;
nodes = (
"284 644 LINE",
"409 0 LINE",
"540 0 LINE",
"388 762 LINE",
"175 736 LINE",
"37 0 LINE",
"168 0 LINE"
);
},
{
closed = 1;
nodes = (
"150 0 LINE",
"447 0 LINE",
"447 122 LINE",
"150 122 LINE"
);
}
);
width = 600;
}
);
unicode = 0394;
},
{
glyphname = Omega;
lastChange = "2017-10-13 00:32:11 +0000";
layers = (
{
guideLines = (
{
angle = -83;
position = "{40, 120}";
}
);
layerId = "849A9C4C-BF7C-40C5-8614-1FD725A2A379";
paths = (
{
closed = 1;
nodes = (
"494 225 OFFCURVE",
"536 338 OFFCURVE",
"536 465 CURVE SMOOTH",
"536 622 OFFCURVE",
"460 764 OFFCURVE",
"292 764 CURVE SMOOTH",
"125 764 OFFCURVE",
"48 622 OFFCURVE",
"48 465 CURVE SMOOTH",
"48 338 OFFCURVE",
"91 226 OFFCURVE",
"150 120 CURVE",
"40 120 LINE",
"55 0 LINE",
"249 0 LINE",
"260 92 LINE",
"212 225 OFFCURVE",
"203 346 OFFCURVE",
"203 444 CURVE SMOOTH",
"203 542 OFFCURVE",
"214 641 OFFCURVE",
"292 641 CURVE SMOOTH",
"371 641 OFFCURVE",
"381 542 OFFCURVE",
"381 444 CURVE SMOOTH",
"381 346 OFFCURVE",
"373 223 OFFCURVE",
"324 91 CURVE",
"335 0 LINE",
"529 0 LINE",
"544 120 LINE",
"435 120 LINE"
);
}
);
width = 584;
}
);
unicode = 03A9;
},
{
glyphname = mu;
lastChange = "2017-10-13 00:32:11 +0000";
layers = (
{
layerId = "849A9C4C-BF7C-40C5-8614-1FD725A2A379";
paths = (
{
closed = 1;
nodes = (
"203 -164 LINE",
"203 19 LINE",
"217 3 OFFCURVE",
"238 -5 OFFCURVE",
"264 -5 CURVE SMOOTH",
"308 -5 OFFCURVE",
"338 37 OFFCURVE",
"350 114 CURVE",
"350 -17 LINE",
"484 0 LINE",
"484 563 LINE",
"344 563 LINE",
"344 264 LINE SMOOTH",
"344 184 OFFCURVE",
"322 112 OFFCURVE",
"272 117 CURVE SMOOTH",
"225 117 OFFCURVE",
"203 148 OFFCURVE",
"203 211 CURVE SMOOTH",
"203 563 LINE",
"63 563 LINE",
"63 -181 LINE"
);
}
);
width = 600;
}
);
leftMetricsKey = mu;
rightMetricsKey = mu;
unicode = 03BC;
},
{
glyphname = pi;
lastChange = "2017-10-13 00:32:11 +0000";
layers = (
{
background = {
components = (
{
name = t;
transform = "{1, 0, 0, 1, 24, 0}";
}
);
};
guideLines = (
{
angle = 263;
position = "{566, 563}";
}
);
layerId = "849A9C4C-BF7C-40C5-8614-1FD725A2A379";
paths = (
{
closed = 1;
nodes = (
"42 445 LINE",
"552 445 LINE",
"566 563 LINE",
"42 563 LINE"
);
},
{
closed = 1;
nodes = (
"523 -9 OFFCURVE",
"537 -7 OFFCURVE",
"562 1 CURVE",
"574 97 LINE",
"565 94 OFFCURVE",
"554 92 OFFCURVE",
"543 92 CURVE SMOOTH",
"504 92 OFFCURVE",
"479 115 OFFCURVE",
"479 163 CURVE SMOOTH",
"479 514 LINE",
"345 514 LINE",
"345 152 LINE SMOOTH",
"345 45 OFFCURVE",
"410 -9 OFFCURVE",
"489 -9 CURVE SMOOTH"
);
},
{
closed = 1;
nodes = (
"243 0 LINE",
"243 515 LINE",
"107 515 LINE",
"107 0 LINE"
);
}
);
width = 600;
}
);
unicode = 03C0;
},
{
glyphname = zero;
lastChange = "2018-01-11 00:55:39 +0000";
layers = (
{
anchors = (
{
name = center;
position = "{272, 383}";
}
);
background = {
paths = (
{
closed = 1;
nodes = (
"79 764 OFFCURVE",
"40 557 OFFCURVE",
"40 375 CURVE SMOOTH",
"40 188 OFFCURVE",
"79 -14 OFFCURVE",
"270 -14 CURVE SMOOTH",
"461 -14 OFFCURVE",
"500 189 OFFCURVE",
"500 375 CURVE SMOOTH",
"500 558 OFFCURVE",
"461 764 OFFCURVE",
"270 764 CURVE SMOOTH"
);
},
{
closed = 1;
nodes = (
"338 648 OFFCURVE",
"352 534 OFFCURVE",
"352 375 CURVE SMOOTH",
"352 220 OFFCURVE",
"338 102 OFFCURVE",
"270 102 CURVE SMOOTH",
"202 102 OFFCURVE",
"188 219 OFFCURVE",
"188 375 CURVE SMOOTH",
"188 533 OFFCURVE",
"202 648 OFFCURVE",
"270 648 CURVE SMOOTH"
);
}
);
};
layerId = "849A9C4C-BF7C-40C5-8614-1FD725A2A379";
paths = (
{
closed = 1;
nodes = (
"461 -14 OFFCURVE",
"500 193 OFFCURVE",
"500 375 CURVE SMOOTH",
"500 562 OFFCURVE",
"461 764 OFFCURVE",
"270 764 CURVE SMOOTH",
"79 764 OFFCURVE",
"40 561 OFFCURVE",
"40 375 CURVE SMOOTH",
"40 192 OFFCURVE",
"79 -14 OFFCURVE",
"270 -14 CURVE SMOOTH"
);
},
{
closed = 1;
nodes = (
"202 102 OFFCURVE",
"188 216 OFFCURVE",
"188 375 CURVE SMOOTH",
"188 530 OFFCURVE",
"202 648 OFFCURVE",
"270 648 CURVE SMOOTH",
"338 648 OFFCURVE",
"352 531 OFFCURVE",
"352 375 CURVE SMOOTH",
"352 217 OFFCURVE",
"338 102 OFFCURVE",
"270 102 CURVE SMOOTH"
);
}
);
width = 540;
}
);
unicode = 0030;
},
{
glyphname = one;
lastChange = "2018-01-11 00:53:54 +0000";
layers = (
{
guideLines = (
{
angle = 7;
position = "{287, 750}";
},
{
angle = -7;
position = "{217, 758}";
},
{
angle = -78;
position = "{58, 536}";
}
);
layerId = "849A9C4C-BF7C-40C5-8614-1FD725A2A379";
paths = (
{
closed = 1;
nodes = (
"284 0 LINE",
"284 749 LINE",
"213 758 LINE",
"164 705 OFFCURVE",
"114 683 OFFCURVE",
"20 668 CURVE",
"44 556 LINE",
"83 558 OFFCURVE",
"114 563 OFFCURVE",
"147 574 CURVE",
"147 0 LINE"
);
}
);
width = 374;
}
);
unicode = 0031;
},
{
glyphname = two;
lastChange = "2018-01-12 16:53:57 +0000";
layers = (
{
guideLines = (
{
angle = -12;
position = "{152, 505}";
},
{
angle = 97;
position = "{56, 0}";
},
{
angle = 83;
position = "{442, 0}";
}
);
layerId = "849A9C4C-BF7C-40C5-8614-1FD725A2A379";
paths = (
{
closed = 1;
nodes = (
"447 0 LINE",
"462 118 LINE",
"197 118 LINE",
"343 238 OFFCURVE",
"443 373 OFFCURVE",
"443 531 CURVE SMOOTH",
"443 666 OFFCURVE",
"376 764 OFFCURVE",
"240 764 CURVE SMOOTH",
"93 764 OFFCURVE",
"30 666 OFFCURVE",
"30 512 CURVE",
"152 486 LINE",
"152 580 OFFCURVE",
"171 644 OFFCURVE",
"226 644 CURVE SMOOTH",
"281 644 OFFCURVE",
"296 581 OFFCURVE",
"296 515 CURVE SMOOTH",
"296 373 OFFCURVE",
"178 225 OFFCURVE",
"40 108 CURVE",
"54 0 LINE"
);
}
);
width = 492;
}
);
unicode = 0032;
},
{
glyphname = three;
lastChange = "2018-01-11 00:53:42 +0000";
layers = (
{
guideLines = (
{
angle = -12;
position = "{149, 547}";
},
{
angle = 192;
position = "{19, 192}";
},
{
position = "{328, 382}";
}
);
layerId = "849A9C4C-BF7C-40C5-8614-1FD725A2A379";
paths = (
{
closed = 1;
nodes = (
"359 -14 OFFCURVE",
"441 86 OFFCURVE",
"441 207 CURVE SMOOTH",
"441 288 OFFCURVE",
"400 352 OFFCURVE",
"334 382 CURVE",
"399 413 OFFCURVE",
"431 478 OFFCURVE",
"431 555 CURVE SMOOTH",
"431 696 OFFCURVE",
"340 764 OFFCURVE",
"222 764 CURVE SMOOTH",
"101 764 OFFCURVE",
"27 692 OFFCURVE",
"17 558 CURVE",
"135 531 LINE",
"139 598 OFFCURVE",
"165 647 OFFCURVE",
"216 647 CURVE SMOOTH",
"261 647 OFFCURVE",
"291 611 OFFCURVE",
"291 551 CURVE SMOOTH",
"291 467 OFFCURVE",
"243 429 OFFCURVE",
"157 429 CURVE",
"157 331 LINE",
"239 330 OFFCURVE",
"304 292 OFFCURVE",
"304 210 CURVE SMOOTH",
"304 155 OFFCURVE",
"283 104 OFFCURVE",
"216 104 CURVE SMOOTH",
"161 104 OFFCURVE",
"131 152 OFFCURVE",
"129 217 CURVE",
"10 192 LINE",
"13 63 OFFCURVE",
"100 -14 OFFCURVE",
"218 -14 CURVE SMOOTH"
);
}
);
width = 476;
}
);
unicode = 0033;
},
{
glyphname = four;
lastChange = "2018-01-11 00:54:31 +0000";
layers = (
{
guideLines = (
{
angle = 187;
position = "{409, 758}";
},
{
angle = 97;
position = "{30, 163}";
}
);
layerId = "849A9C4C-BF7C-40C5-8614-1FD725A2A379";
paths = (
{
closed = 1;
nodes = (
"409 0 LINE",
"409 163 LINE",
"491 163 LINE",
"503 275 LINE",
"408 275 LINE",
"408 750 LINE",
"269 750 LINE",
"203 599 OFFCURVE",
"114 424 OFFCURVE",
"10 252 CURVE",
"24 163 LINE",
"272 163 LINE",
"272 0 LINE"
);
},
{
closed = 1;
nodes = (
"183 375 OFFCURVE",
"236 481 OFFCURVE",
"274 574 CURVE",
"274 275 LINE",
"123 275 LINE"
);
}
);
width = 503;
}
);
unicode = 0034;
},
{
glyphname = five;
lastChange = "2018-01-11 00:54:07 +0000";
layers = (
{
background = {
components = (
{
name = three;
transform = "{1, 0, 0, 1, 3, 0}";
},
{
name = zero;
transform = "{1, 0, 0, 1, -31, 0}";
}
);
};
guideLines = (
{
angle = 192;
position = "{32, 191}";
},
{
angle = 168;
position = "{159, 319}";
},
{
angle = 83;
position = "{434, 633}";
},
{
angle = 265.4622;
position = "{182, 623}";
},
{
angle = 83;
position = "{94, 750}";
}
);
layerId = "849A9C4C-BF7C-40C5-8614-1FD725A2A379";
paths = (
{
closed = 1;
nodes = (
"385 -14 OFFCURVE",
"467 99 OFFCURVE",
"467 257 CURVE SMOOTH",
"467 393 OFFCURVE",
"391 489 OFFCURVE",
"282 489 CURVE SMOOTH",
"226 489 OFFCURVE",
"187 466 OFFCURVE",
"166 439 CURVE",
"181 623 LINE",
"423 623 LINE",
"438 750 LINE",
"78 750 LINE",
"45 350 LINE",
"157 326 LINE",
"175 354 OFFCURVE",
"202 378 OFFCURVE",
"239 378 CURVE SMOOTH",
"302 378 OFFCURVE",
"325 316 OFFCURVE",
"325 246 CURVE SMOOTH",
"325 175 OFFCURVE",
"303 103 OFFCURVE",
"236 103 CURVE SMOOTH",
"184 103 OFFCURVE",
"152 154 OFFCURVE",
"151 216 CURVE",
"30 190 LINE",
"36 52 OFFCURVE",
"129 -14 OFFCURVE",
"244 -14 CURVE SMOOTH"
);
}
);
width = 497;
}
);
unicode = 0035;
},
{
glyphname = six;
lastChange = "2018-01-11 00:54:12 +0000";
layers = (
{
background = {
paths = (
{
closed = 1;
nodes = (
"415 -13 OFFCURVE",
"488 100 OFFCURVE",
"488 245 CURVE SMOOTH",
"488 377 OFFCURVE",
"419 475 OFFCURVE",
"296 475 CURVE SMOOTH",
"238 475 OFFCURVE",
"195 452 OFFCURVE",
"167 409 CURVE",
"167 514 OFFCURVE",
"176 649 OFFCURVE",
"263 649 CURVE SMOOTH",
"322 649 OFFCURVE",
"346 598 OFFCURVE",
"359 541 CURVE",
"483 567 LINE",
"463 689 OFFCURVE",
"388 765 OFFCURVE",
"271 765 CURVE SMOOTH",
"69 765 OFFCURVE",
"34 581 OFFCURVE",
"34 363 CURVE SMOOTH",
"34 130 OFFCURVE",
"96 -13 OFFCURVE",
"269 -13 CURVE SMOOTH"
);
},
{
closed = 1;
nodes = (
"194 101 OFFCURVE",
"177 182 OFFCURVE",
"177 265 CURVE SMOOTH",
"177 325 OFFCURVE",
"215 372 OFFCURVE",
"261 372 CURVE SMOOTH",
"319 372 OFFCURVE",
"347 321 OFFCURVE",
"347 239 CURVE SMOOTH",
"347 163 OFFCURVE",
"322 101 OFFCURVE",
"260 101 CURVE SMOOTH"
);
}
);
};
layerId = "849A9C4C-BF7C-40C5-8614-1FD725A2A379";
paths = (
{
closed = 1;
nodes = (
"407 -14 OFFCURVE",
"488 101 OFFCURVE",
"488 245 CURVE SMOOTH",
"488 387 OFFCURVE",
"419 474 OFFCURVE",
"295 474 CURVE SMOOTH",
"245 474 OFFCURVE",
"201 446 OFFCURVE",
"174 401 CURVE",
"174 534 OFFCURVE",
"196 649 OFFCURVE",
"270 649 CURVE SMOOTH",
"323 649 OFFCURVE",
"343 595 OFFCURVE",
"353 533 CURVE",
"475 560 LINE",
"458 689 OFFCURVE",
"396 764 OFFCURVE",
"270 764 CURVE SMOOTH",
"94 764 OFFCURVE",
"35 602 OFFCURVE",
"35 369 CURVE SMOOTH",
"35 135 OFFCURVE",
"94 -14 OFFCURVE",
"273 -14 CURVE SMOOTH"
);
},
{
closed = 1;
nodes = (
"201 101 OFFCURVE",
"180 159 OFFCURVE",
"180 245 CURVE SMOOTH",
"180 313 OFFCURVE",
"207 366 OFFCURVE",
"265 366 CURVE SMOOTH",
"323 366 OFFCURVE",
"346 313 OFFCURVE",
"346 245 CURVE SMOOTH",
"346 159 OFFCURVE",
"322 101 OFFCURVE",
"272 101 CURVE SMOOTH"
);
}
);
width = 523;
}
);
unicode = 0036;
},
{
glyphname = seven;
lastChange = "2018-01-11 00:55:02 +0000";
layers = (
{
guideLines = (
{
angle = 83;
position = "{8, 634}";
}
);
layerId = "849A9C4C-BF7C-40C5-8614-1FD725A2A379";
paths = (
{
closed = 1;
nodes = (
"258 0 LINE",
"259 260 OFFCURVE",
"314 466 OFFCURVE",
"443 648 CURVE",
"421 750 LINE",
"10 750 LINE",
"10 634 LINE",
"313 634 LINE",
"195 466 OFFCURVE",
"116 271 OFFCURVE",
"109 0 CURVE"
);
}
);
width = 458;
}
);
unicode = 0037;
},
{
glyphname = eight;
lastChange = "2018-01-11 00:55:20 +0000";
layers = (
{
layerId = "849A9C4C-BF7C-40C5-8614-1FD725A2A379";
paths = (
{
closed = 1;
nodes = (
"400 -14 OFFCURVE",
"497 75 OFFCURVE",
"497 196 CURVE SMOOTH",
"497 301 OFFCURVE",
"443 363 OFFCURVE",
"351 411 CURVE",
"351 384 LINE",
"433 427 OFFCURVE",
"475 488 OFFCURVE",
"475 573 CURVE SMOOTH",
"475 689 OFFCURVE",
"388 764 OFFCURVE",
"272 764 CURVE SMOOTH",
"153 764 OFFCURVE",
"54 683 OFFCURVE",
"54 564 CURVE SMOOTH",
"54 475 OFFCURVE",
"95 409 OFFCURVE",
"176 369 CURVE",
"176 397 LINE",
"95 359 OFFCURVE",
"35 292 OFFCURVE",
"35 203 CURVE SMOOTH",
"35 52 OFFCURVE",
"145 -14 OFFCURVE",
"263 -14 CURVE SMOOTH"
);
},
{
closed = 1;
nodes = (
"208 104 OFFCURVE",
"174 148 OFFCURVE",
"174 200 CURVE SMOOTH",
"174 261 OFFCURVE",
"207 306 OFFCURVE",
"270 340 CURVE",
"220 340 LINE",
"302 307 OFFCURVE",
"354 261 OFFCURVE",
"354 196 CURVE SMOOTH",
"354 149 OFFCURVE",
"323 104 OFFCURVE",
"269 104 CURVE SMOOTH"
);
},
{
closed = 1;
nodes = (
"307 435 LINE",
"231 469 OFFCURVE",
"191 506 OFFCURVE",
"191 564 CURVE SMOOTH",
"191 616 OFFCURVE",
"226 650 OFFCURVE",
"271 650 CURVE SMOOTH",
"320 650 OFFCURVE",
"352 616 OFFCURVE",
"352 563 CURVE SMOOTH",
"352 516 OFFCURVE",
"322 469 OFFCURVE",
"259 435 CURVE"
);
}
);
width = 532;
}
);
unicode = 0038;
},
{
glyphname = nine;
lastChange = "2018-01-11 00:54:18 +0000";
layers = (
{
background = {
paths = (
{
closed = 1;
nodes = (
"427 -13 OFFCURVE",
"489 130 OFFCURVE",
"489 363 CURVE SMOOTH",
"489 581 OFFCURVE",
"451 765 OFFCURVE",
"247 765 CURVE SMOOTH",
"135 765 OFFCURVE",
"60 689 OFFCURVE",
"47 564 CURVE",
"171 538 LINE",
"177 598 OFFCURVE",
"201 649 OFFCURVE",
"260 649 CURVE SMOOTH",
"347 649 OFFCURVE",
"356 514 OFFCURVE",
"356 409 CURVE",
"328 452 OFFCURVE",
"285 475 OFFCURVE",
"227 475 CURVE SMOOTH",
"104 475 OFFCURVE",
"35 377 OFFCURVE",
"35 245 CURVE SMOOTH",
"35 100 OFFCURVE",
"108 -13 OFFCURVE",
"254 -13 CURVE SMOOTH"
);
},
{
closed = 1;
nodes = (
"201 101 OFFCURVE",
"176 163 OFFCURVE",
"176 239 CURVE SMOOTH",
"176 321 OFFCURVE",
"204 372 OFFCURVE",
"262 372 CURVE SMOOTH",
"308 372 OFFCURVE",
"346 325 OFFCURVE",
"346 265 CURVE SMOOTH",
"346 182 OFFCURVE",
"329 101 OFFCURVE",
"263 101 CURVE SMOOTH"
);
}
);
};
layerId = "849A9C4C-BF7C-40C5-8614-1FD725A2A379";
paths = (
{
closed = 1;
nodes = (
"108 765 OFFCURVE",
"35 658 OFFCURVE",
"35 507 CURVE SMOOTH",
"35 375 OFFCURVE",
"104 277 OFFCURVE",
"227 277 CURVE SMOOTH",
"286 277 OFFCURVE",
"330 300 OFFCURVE",
"356 346 CURVE",
"356 238 OFFCURVE",
"347 103 OFFCURVE",
"261 103 CURVE SMOOTH",
"201 103 OFFCURVE",
"177 153 OFFCURVE",
"168 211 CURVE",
"44 185 LINE",
"62 63 OFFCURVE",
"135 -13 OFFCURVE",
"253 -13 CURVE SMOOTH",
"451 -13 OFFCURVE",
"491 171 OFFCURVE",
"491 389 CURVE SMOOTH",
"491 637 OFFCURVE",
"421 765 OFFCURVE",
"254 765 CURVE SMOOTH"
);
},
{
closed = 1;
nodes = (
"320 650 OFFCURVE",
"345 588 OFFCURVE",
"345 515 CURVE SMOOTH",
"345 431 OFFCURVE",
"314 380 OFFCURVE",
"262 380 CURVE SMOOTH",
"204 380 OFFCURVE",
"176 431 OFFCURVE",
"176 515 CURVE SMOOTH",
"176 589 OFFCURVE",
"199 650 OFFCURVE",
"259 650 CURVE SMOOTH"
);
}
);
width = 526;
}
);
unicode = 0039;
},
{
glyphname = three.001;
lastChange = "2017-10-13 00:32:11 +0000";
layers = (
{
guideLines = (
{
angle = -12;
position = "{161, 547}";
},
{
angle = 192;
position = "{31, 192}";
}
);
layerId = "849A9C4C-BF7C-40C5-8614-1FD725A2A379";
paths = (
{
closed = 1;
nodes = (
"371 -14 OFFCURVE",
"453 86 OFFCURVE",
"453 207 CURVE SMOOTH",
"453 283 OFFCURVE",
"419 347 OFFCURVE",
"346 379 CURVE",
"410 414 OFFCURVE",
"443 478 OFFCURVE",
"443 555 CURVE SMOOTH",
"443 696 OFFCURVE",
"352 764 OFFCURVE",
"234 764 CURVE SMOOTH",
"113 764 OFFCURVE",
"39 692 OFFCURVE",
"29 568 CURVE",
"147 541 LINE",
"151 600 OFFCURVE",
"174 647 OFFCURVE",
"230 647 CURVE SMOOTH",
"273 647 OFFCURVE",
"303 611 OFFCURVE",
"303 551 CURVE SMOOTH",
"303 467 OFFCURVE",
"255 429 OFFCURVE",
"169 429 CURVE",
"169 331 LINE",
"251 330 OFFCURVE",
"316 293 OFFCURVE",
"316 210 CURVE SMOOTH",
"316 155 OFFCURVE",
"295 104 OFFCURVE",
"230 104 CURVE SMOOTH",
"173 104 OFFCURVE",
"143 152 OFFCURVE",
"141 217 CURVE",
"22 192 LINE",
"25 63 OFFCURVE",
"112 -14 OFFCURVE",
"230 -14 CURVE SMOOTH"
);
}
);
width = 488;
}
);
},
{
glyphname = six.osf.001;
lastChange = "2017-10-20 01:10:11 +0000";
layers = (
{
layerId = "849A9C4C-BF7C-40C5-8614-1FD725A2A379";
paths = (
{
closed = 1;
nodes = (
"405 -14 OFFCURVE",
"477 96 OFFCURVE",
"477 248 CURVE SMOOTH",
"477 377 OFFCURVE",
"409 474 OFFCURVE",
"296 474 CURVE SMOOTH",
"238 474 OFFCURVE",
"194 443 OFFCURVE",
"174 401 CURVE",
"213 525 OFFCURVE",
"284 585 OFFCURVE",
"383 647 CURVE",
"315 745 LINE",
"145 650 OFFCURVE",
"35 504 OFFCURVE",
"35 275 CURVE SMOOTH",
"35 120 OFFCURVE",
"89 -14 OFFCURVE",
"259 -14 CURVE SMOOTH"
);
},
{
closed = 1;
nodes = (
"184 96 OFFCURVE",
"174 184 OFFCURVE",
"174 265 CURVE SMOOTH",
"174 331 OFFCURVE",
"211 371 OFFCURVE",
"259 371 CURVE SMOOTH",
"315 371 OFFCURVE",
"342 313 OFFCURVE",
"342 248 CURVE SMOOTH",
"342 170 OFFCURVE",
"319 96 OFFCURVE",
"258 96 CURVE SMOOTH"
);
}
);
width = 512;
}
);
leftMetricsKey = six;
rightMetricsKey = six;
},
{
glyphname = nine.osf.001;
lastChange = "2017-10-20 01:10:15 +0000";
layers = (
{
background = {
paths = (
{
closed = 1;
nodes = (
"372 -175 OFFCURVE",
"473 -86 OFFCURVE",
"473 80 CURVE SMOOTH",
"473 219 OFFCURVE",
"404 307 OFFCURVE",
"291 307 CURVE SMOOTH",
"241 307 OFFCURVE",
"207 290 OFFCURVE",
"179 260 CURVE",
"193 441 LINE",
"423 441 LINE",
"438 563 LINE",
"89 563 LINE",
"59 177 LINE",
"173 144 LINE",
"186 179 OFFCURVE",
"215 205 OFFCURVE",
"253 205 CURVE SMOOTH",
"320 205 OFFCURVE",
"342 137 OFFCURVE",
"342 68 CURVE SMOOTH",
"342 -14 OFFCURVE",
"308 -66 OFFCURVE",
"254 -66 CURVE SMOOTH",
"200 -66 OFFCURVE",
"173 -34 OFFCURVE",
"165 26 CURVE",
"48 1 LINE",
"59 -117 OFFCURVE",
"143 -175 OFFCURVE",
"249 -175 CURVE SMOOTH"
);
}
);
};
guideLines = (
{
angle = 12;
position = "{165, 27}";
}
);
layerId = "849A9C4C-BF7C-40C5-8614-1FD725A2A379";
paths = (
{
closed = 1;
nodes = (
"107 573 OFFCURVE",
"35 463 OFFCURVE",
"35 311 CURVE SMOOTH",
"35 182 OFFCURVE",
"103 89 OFFCURVE",
"216 89 CURVE SMOOTH",
"274 89 OFFCURVE",
"318 120 OFFCURVE",
"340 157 CURVE",
"299 52 OFFCURVE",
"217 -21 OFFCURVE",
"110 -75 CURVE",
"179 -175 LINE",
"379 -87 OFFCURVE",
"477 75 OFFCURVE",
"477 284 CURVE SMOOTH",
"477 439 OFFCURVE",
"423 573 OFFCURVE",
"253 573 CURVE SMOOTH"
);
},
{
closed = 1;
nodes = (
"328 463 OFFCURVE",
"338 375 OFFCURVE",
"338 294 CURVE SMOOTH",
"338 228 OFFCURVE",
"301 192 OFFCURVE",
"253 192 CURVE SMOOTH",
"197 192 OFFCURVE",
"170 246 OFFCURVE",
"170 311 CURVE SMOOTH",
"170 389 OFFCURVE",
"193 463 OFFCURVE",
"254 463 CURVE SMOOTH"
);
}
);
width = 512;
}
);
leftMetricsKey = nine;
rightMetricsKey = nine;
},
{
glyphname = zero.osf;
lastChange = "2018-01-11 00:49:45 +0000";
layers = (
{
layerId = "849A9C4C-BF7C-40C5-8614-1FD725A2A379";
paths = (
{
closed = 1;
nodes = (
"386 -13 OFFCURVE",
"457 105 OFFCURVE",
"457 281 CURVE SMOOTH",
"457 449 OFFCURVE",
"386 570 OFFCURVE",
"240 570 CURVE SMOOTH",
"92 570 OFFCURVE",
"25 447 OFFCURVE",
"25 281 CURVE SMOOTH",
"25 106 OFFCURVE",
"93 -13 OFFCURVE",
"240 -13 CURVE SMOOTH"
);
},
{
closed = 1;
nodes = (
"178 88 OFFCURVE",
"161 171 OFFCURVE",
"161 278 CURVE SMOOTH",
"161 376 OFFCURVE",
"177 463 OFFCURVE",
"240 463 CURVE SMOOTH",
"303 463 OFFCURVE",
"321 375 OFFCURVE",
"321 278 CURVE SMOOTH",
"321 171 OFFCURVE",
"303 88 OFFCURVE",
"240 88 CURVE SMOOTH"
);
}
);
width = 482;
}
);
leftMetricsKey = o;
rightMetricsKey = o;
},
{
glyphname = one.osf;
lastChange = "2017-11-02 17:31:06 +0000";
layers = (
{
guideLines = (
{
angle = -78;
position = "{42, 386}";
}
);
layerId = "849A9C4C-BF7C-40C5-8614-1FD725A2A379";
paths = (
{
closed = 1;
nodes = (
"278 0 LINE",
"278 563 LINE",
"206 572 LINE",
"163 529 OFFCURVE",
"101 500 OFFCURVE",
"20 491 CURVE",
"43 381 LINE",
"81 382 OFFCURVE",
"113 388 OFFCURVE",
"144 399 CURVE",
"144 0 LINE"
);
}
);
width = 368;
}
);
leftMetricsKey = one;
rightMetricsKey = one;
},
{
glyphname = two.osf;
lastChange = "2017-11-23 15:46:33 +0000";
layers = (
{
guideLines = (
{
angle = -11.7456;
position = "{41, 372}";
}
);
layerId = "849A9C4C-BF7C-40C5-8614-1FD725A2A379";
paths = (
{
closed = 1;
nodes = (
"420 0 LINE",
"435 118 LINE",
"219 118 LINE",
"327 184 OFFCURVE",
"412 274 OFFCURVE",
"412 391 CURVE SMOOTH",
"412 506 OFFCURVE",
"343 572 OFFCURVE",
"227 572 CURVE SMOOTH",
"103 572 OFFCURVE",
"33 488 OFFCURVE",
"30 373 CURVE",
"146 349 LINE",
"148 400 OFFCURVE",
"162 462 OFFCURVE",
"214 462 CURVE SMOOTH",
"256 462 OFFCURVE",
"278 433 OFFCURVE",
"278 384 CURVE SMOOTH",
"278 284 OFFCURVE",
"154 165 OFFCURVE",
"39 86 CURVE",
"48 0 LINE"
);
}
);
width = 465;
}
);
leftMetricsKey = two;
rightMetricsKey = two;
},
{
glyphname = three.osf;
lastChange = "2017-11-02 17:31:09 +0000";
layers = (
{
guideLines = (
{
angle = 12;
position = "{126, 27}";
}
);
layerId = "849A9C4C-BF7C-40C5-8614-1FD725A2A379";
paths = (
{
closed = 1;
nodes = (
"10 2 LINE",
"23 -111 OFFCURVE",
"98 -174 OFFCURVE",
"209 -174 CURVE SMOOTH",
"336 -174 OFFCURVE",
"426 -80 OFFCURVE",
"426 41 CURVE SMOOTH",
"426 130 OFFCURVE",
"386 194 OFFCURVE",
"322 218 CURVE",
"382 253 OFFCURVE",
"412 310 OFFCURVE",
"412 377 CURVE SMOOTH",
"412 494 OFFCURVE",
"347 572 OFFCURVE",
"213 572 CURVE SMOOTH",
"100 572 OFFCURVE",
"21 503 OFFCURVE",
"16 387 CURVE",
"134 363 LINE",
"137 424 OFFCURVE",
"160 463 OFFCURVE",
"205 463 CURVE SMOOTH",
"252 463 OFFCURVE",
"273 428 OFFCURVE",
"273 377 CURVE SMOOTH",
"273 313 OFFCURVE",
"226 258 OFFCURVE",
"150 258 CURVE",
"150 166 LINE",
"240 165 OFFCURVE",
"287 121 OFFCURVE",
"287 38 CURVE SMOOTH",
"287 -16 OFFCURVE",
"261 -64 OFFCURVE",
"213 -64 CURVE SMOOTH",
"158 -64 OFFCURVE",
"133 -28 OFFCURVE",
"128 28 CURVE"
);
}
);
width = 461;
}
);
leftMetricsKey = three;
rightMetricsKey = three;
},
{
glyphname = four.osf;
lastChange = "2017-11-02 17:31:12 +0000";
layers = (
{
guideLines = (
{
angle = 12;
position = "{313, 540}";
},
{
angle = 97;
position = "{20, 0}";
}
);
layerId = "849A9C4C-BF7C-40C5-8614-1FD725A2A379";
paths = (
{
closed = 1;
nodes = (
"280 243 LINE",
"280 106 LINE",
"153 106 LINE",
"235 234 OFFCURVE",
"309 395 OFFCURVE",
"316 564 CURVE",
"184 564 LINE",
"171 383 OFFCURVE",
"103 238 OFFCURVE",
"10 84 CURVE",
"20 0 LINE",
"280 0 LINE",
"280 -173 LINE",
"415 -157 LINE",
"415 0 LINE",
"487 0 LINE",
"497 106 LINE",
"414 106 LINE",
"414 260 LINE"
);
}
);
width = 497;
}
);
leftMetricsKey = four;
rightMetricsKey = four;
},
{
glyphname = five.osf;
lastChange = "2017-10-20 01:10:34 +0000";
layers = (
{
background = {
components = (
{
name = three.osf;
transform = "{1, 0, 0, 1, 8, 0}";
}
);
};
layerId = "849A9C4C-BF7C-40C5-8614-1FD725A2A379";
paths = (
{
closed = 1;
nodes = (
"354 -175 OFFCURVE",
"455 -86 OFFCURVE",
"455 80 CURVE SMOOTH",
"455 219 OFFCURVE",
"386 307 OFFCURVE",
"273 307 CURVE SMOOTH",
"223 307 OFFCURVE",
"189 290 OFFCURVE",
"161 260 CURVE",
"175 441 LINE",
"405 441 LINE",
"420 563 LINE",
"71 563 LINE",
"41 177 LINE",
"155 144 LINE",
"168 179 OFFCURVE",
"197 205 OFFCURVE",
"235 205 CURVE SMOOTH",
"302 205 OFFCURVE",
"324 137 OFFCURVE",
"324 68 CURVE SMOOTH",
"324 -14 OFFCURVE",
"290 -66 OFFCURVE",
"236 -66 CURVE SMOOTH",
"182 -66 OFFCURVE",
"155 -34 OFFCURVE",
"147 26 CURVE",
"30 1 LINE",
"41 -117 OFFCURVE",
"125 -175 OFFCURVE",
"231 -175 CURVE SMOOTH"
);
}
);
width = 485;
}
);
leftMetricsKey = five;
rightMetricsKey = five;
},
{
glyphname = six.osf;
lastChange = "2017-10-20 01:10:38 +0000";
layers = (
{
layerId = "849A9C4C-BF7C-40C5-8614-1FD725A2A379";
paths = (
{
closed = 1;
nodes = (
"400 -14 OFFCURVE",
"481 95 OFFCURVE",
"481 235 CURVE SMOOTH",
"481 381 OFFCURVE",
"401 455 OFFCURVE",
"290 455 CURVE SMOOTH",
"231 455 OFFCURVE",
"190 423 OFFCURVE",
"166 378 CURVE",
"172 511 OFFCURVE",
"191 624 OFFCURVE",
"270 624 CURVE SMOOTH",
"323 624 OFFCURVE",
"346 591 OFFCURVE",
"353 528 CURVE",
"469 557 LINE",
"446 681 OFFCURVE",
"384 734 OFFCURVE",
"283 734 CURVE SMOOTH",
"104 734 OFFCURVE",
"35 553 OFFCURVE",
"35 342 CURVE SMOOTH",
"35 106 OFFCURVE",
"110 -14 OFFCURVE",
"265 -14 CURVE SMOOTH"
);
},
{
closed = 1;
nodes = (
"211 96 OFFCURVE",
"177 153 OFFCURVE",
"177 241 CURVE SMOOTH",
"177 300 OFFCURVE",
"211 363 OFFCURVE",
"265 363 CURVE SMOOTH",
"323 363 OFFCURVE",
"346 301 OFFCURVE",
"346 230 CURVE SMOOTH",
"346 153 OFFCURVE",
"319 96 OFFCURVE",
"267 96 CURVE SMOOTH"
);
}
);
width = 516;
}
);
leftMetricsKey = six;
rightMetricsKey = six;
},
{
glyphname = seven.osf;
lastChange = "2017-10-20 01:10:40 +0000";
layers = (
{
guideLines = (
{
angle = 168;
position = "{158, -176}";
}
);
layerId = "849A9C4C-BF7C-40C5-8614-1FD725A2A379";
paths = (
{
closed = 1;
nodes = (
"70 -159 LINE",
"206 -188 LINE",
"416 492 LINE",
"401 563 LINE",
"10 563 LINE",
"10 441 LINE",
"282 441 LINE"
);
}
);
width = 431;
}
);
leftMetricsKey = seven;
rightMetricsKey = seven;
},
{
glyphname = eight.osf;
lastChange = "2017-11-02 17:31:16 +0000";
layers = (
{
background = {
paths = (
{
closed = 1;
nodes = (
"386 -14 OFFCURVE",
"472 86 OFFCURVE",
"472 197 CURVE SMOOTH",
"472 306 OFFCURVE",
"404 354 OFFCURVE",
"331 397 CURVE",
"329 376 LINE",
"407 419 OFFCURVE",
"450 475 OFFCURVE",
"450 556 CURVE SMOOTH",
"450 670 OFFCURVE",
"354 735 OFFCURVE",
"254 735 CURVE SMOOTH",
"142 735 OFFCURVE",
"54 655 OFFCURVE",
"54 535 CURVE SMOOTH",
"54 456 OFFCURVE",
"97 396 OFFCURVE",
"172 354 CURVE",
"172 376 LINE",
"87 330 OFFCURVE",
"33 265 OFFCURVE",
"33 173 CURVE SMOOTH",
"33 54 OFFCURVE",
"131 -14 OFFCURVE",
"247 -14 CURVE SMOOTH"
);
},
{
closed = 1;
nodes = (
"198 94 OFFCURVE",
"167 134 OFFCURVE",
"167 193 CURVE SMOOTH",
"167 248 OFFCURVE",
"193 286 OFFCURVE",
"238 318 CURVE",
"218 318 LINE",
"292 278 OFFCURVE",
"330 248 OFFCURVE",
"330 184 CURVE SMOOTH",
"330 131 OFFCURVE",
"300 94 OFFCURVE",
"250 94 CURVE SMOOTH"
);
},
{
closed = 1;
nodes = (
"277 432 LINE",
"221 464 OFFCURVE",
"185 494 OFFCURVE",
"185 550 CURVE SMOOTH",
"185 595 OFFCURVE",
"213 629 OFFCURVE",
"256 629 CURVE SMOOTH",
"300 629 OFFCURVE",
"328 593 OFFCURVE",
"328 550 CURVE SMOOTH",
"328 500 OFFCURVE",
"308 466 OFFCURVE",
"260 430 CURVE"
);
}
);
};
layerId = "849A9C4C-BF7C-40C5-8614-1FD725A2A379";
paths = (
{
closed = 1;
nodes = (
"385 -13 OFFCURVE",
"474 72 OFFCURVE",
"474 192 CURVE SMOOTH",
"474 293 OFFCURVE",
"420 351 OFFCURVE",
"339 395 CURVE",
"339 366 LINE",
"411 411 OFFCURVE",
"458 465 OFFCURVE",
"458 545 CURVE SMOOTH",
"458 660 OFFCURVE",
"375 733 OFFCURVE",
"261 733 CURVE SMOOTH",
"150 733 OFFCURVE",
"53 654 OFFCURVE",
"53 541 CURVE SMOOTH",
"53 451 OFFCURVE",
"96 388 OFFCURVE",
"172 351 CURVE",
"172 382 LINE",
"89 340 OFFCURVE",
"35 276 OFFCURVE",
"35 186 CURVE SMOOTH",
"35 57 OFFCURVE",
"141 -13 OFFCURVE",
"247 -13 CURVE SMOOTH"
);
},
{
closed = 1;
nodes = (
"202 98 OFFCURVE",
"167 139 OFFCURVE",
"167 197 CURVE SMOOTH",
"167 252 OFFCURVE",
"195 294 OFFCURVE",
"253 327 CURVE",
"212 327 LINE",
"288 294 OFFCURVE",
"341 248 OFFCURVE",
"341 188 CURVE SMOOTH",
"341 138 OFFCURVE",
"310 98 OFFCURVE",
"260 98 CURVE SMOOTH"
);
},
{
closed = 1;
nodes = (
"296 418 LINE",
"227 451 OFFCURVE",
"185 482 OFFCURVE",
"185 541 CURVE SMOOTH",
"185 591 OFFCURVE",
"219 624 OFFCURVE",
"263 624 CURVE SMOOTH",
"311 624 OFFCURVE",
"340 591 OFFCURVE",
"340 540 CURVE SMOOTH",
"340 495 OFFCURVE",
"307 450 OFFCURVE",
"246 418 CURVE"
);
}
);
width = 509;
}
);
leftMetricsKey = eight;
rightMetricsKey = eight;
},
{
glyphname = nine.osf;
lastChange = "2017-10-20 01:10:47 +0000";
layers = (
{
background = {
paths = (
{
closed = 1;
nodes = (
"372 -175 OFFCURVE",
"473 -86 OFFCURVE",
"473 80 CURVE SMOOTH",
"473 219 OFFCURVE",
"404 307 OFFCURVE",
"291 307 CURVE SMOOTH",
"241 307 OFFCURVE",
"207 290 OFFCURVE",
"179 260 CURVE",
"193 441 LINE",
"423 441 LINE",
"438 563 LINE",
"89 563 LINE",
"59 177 LINE",
"173 144 LINE",
"186 179 OFFCURVE",
"215 205 OFFCURVE",
"253 205 CURVE SMOOTH",
"320 205 OFFCURVE",
"342 137 OFFCURVE",
"342 68 CURVE SMOOTH",
"342 -14 OFFCURVE",
"308 -66 OFFCURVE",
"254 -66 CURVE SMOOTH",
"200 -66 OFFCURVE",
"173 -34 OFFCURVE",
"165 26 CURVE",
"48 1 LINE",
"59 -117 OFFCURVE",
"143 -175 OFFCURVE",
"249 -175 CURVE SMOOTH"
);
}
);
};
guideLines = (
{
angle = 12;
position = "{165, 27}";
}
);
layerId = "849A9C4C-BF7C-40C5-8614-1FD725A2A379";
paths = (
{
closed = 1;
nodes = (
"45 2 LINE",
"65 -101 OFFCURVE",
"131 -175 OFFCURVE",
"243 -175 CURVE SMOOTH",
"426 -175 OFFCURVE",
"477 5 OFFCURVE",
"477 207 CURVE SMOOTH",
"477 418 OFFCURVE",
"436 573 OFFCURVE",
"254 573 CURVE SMOOTH",
"112 573 OFFCURVE",
"35 457 OFFCURVE",
"35 317 CURVE SMOOTH",
"35 182 OFFCURVE",
"103 85 OFFCURVE",
"216 85 CURVE SMOOTH",
"274 85 OFFCURVE",
"329 116 OFFCURVE",
"349 160 CURVE",
"349 65 OFFCURVE",
"338 -65 OFFCURVE",
"253 -65 CURVE SMOOTH",
"198 -65 OFFCURVE",
"175 -23 OFFCURVE",
"163 27 CURVE"
);
},
{
closed = 1;
nodes = (
"323 463 OFFCURVE",
"338 377 OFFCURVE",
"338 292 CURVE SMOOTH",
"338 229 OFFCURVE",
"301 188 OFFCURVE",
"253 188 CURVE SMOOTH",
"197 188 OFFCURVE",
"170 246 OFFCURVE",
"170 317 CURVE SMOOTH",
"170 389 OFFCURVE",
"193 463 OFFCURVE",
"255 463 CURVE SMOOTH"
);
}
);
width = 512;
}
);
leftMetricsKey = nine;
rightMetricsKey = nine;
},
{
glyphname = one.tf;
lastChange = "2017-10-20 01:08:30 +0000";
layers = (
{
background = {
components = (
{
name = one;
transform = "{1, 0, 0, 1, 28, 0}";
}
);
};
guideLines = (
{
angle = -83;
position = "{-5, 0}";
}
);
layerId = "849A9C4C-BF7C-40C5-8614-1FD725A2A379";
paths = (
{
closed = 1;
nodes = (
"322 0 LINE",
"322 749 LINE",
"251 758 LINE",
"197 700 OFFCURVE",
"127 674 OFFCURVE",
"30 660 CURVE",
"52 552 LINE",
"105 553 OFFCURVE",
"145 561 OFFCURVE",
"185 574 CURVE",
"185 0 LINE"
);
},
{
closed = 1;
nodes = (
"50 0 LINE",
"441 0 LINE",
"456 118 LINE",
"52 118 LINE"
);
}
);
width = 486;
}
);
},
{
glyphname = zero.zero;
lastChange = "2017-10-20 01:09:16 +0000";
layers = (
{
anchors = (
{
name = center;
position = "{273, 383}";
}
);
background = {
paths = (
{
closed = 1;
nodes = (
"97 -42 LINE",
"188 133 LINE",
"203 148 LINE",
"417 608 LINE",
"436 624 LINE",
"505 763 LINE",
"443 796 LINE",
"359 627 LINE",
"340 602 LINE",
"125 141 LINE",
"101 118 LINE",
"34 -9 LINE"
);
}
);
};
guideLines = (
{
angle = 152.0029;
position = "{141, 16}";
showMeasurement = 1;
},
{
angle = 152.0029;
position = "{444, 704}";
showMeasurement = 1;
},
{
angle = 152.0029;
position = "{440, 797}";
},
{
angle = 152.0029;
position = "{107, -48}";
}
);
layerId = "849A9C4C-BF7C-40C5-8614-1FD725A2A379";
paths = (
{
closed = 1;
nodes = (
"188 136 LINE",
"203 151 LINE",
"417 611 LINE",
"436 627 LINE",
"359 630 LINE",
"340 605 LINE",
"125 144 LINE",
"101 121 LINE"
);
},
{
closed = 1;
nodes = (
"464 -14 OFFCURVE",
"502 193 OFFCURVE",
"502 368 CURVE SMOOTH",
"502 567 OFFCURVE",
"457 764 OFFCURVE",
"270 764 CURVE SMOOTH",
"75 764 OFFCURVE",
"40 567 OFFCURVE",
"40 368 CURVE SMOOTH",
"40 193 OFFCURVE",
"82 -14 OFFCURVE",
"270 -14 CURVE SMOOTH"
);
},
{
closed = 1;
nodes = (
"204 105 OFFCURVE",
"182 217 OFFCURVE",
"182 368 CURVE SMOOTH",
"182 533 OFFCURVE",
"204 645 OFFCURVE",
"270 645 CURVE SMOOTH",
"335 645 OFFCURVE",
"362 533 OFFCURVE",
"362 368 CURVE SMOOTH",
"362 217 OFFCURVE",
"335 105 OFFCURVE",
"270 105 CURVE SMOOTH"
);
}
);
width = 542;
}
);
leftMetricsKey = zero;
rightMetricsKey = zero;
},
{
glyphname = onesuperior;
lastChange = "2017-10-13 00:32:11 +0000";
layers = (
{
background = {
paths = (
{
closed = 1;
nodes = (
"289 166 LINE",
"289 729 LINE",
"217 738 LINE",
"174 695 OFFCURVE",
"112 666 OFFCURVE",
"31 657 CURVE",
"53 552 LINE",
"89 554 OFFCURVE",
"123 560 OFFCURVE",
"155 570 CURVE",
"155 166 LINE"
);
}
);
};
guideLines = (
{
angle = -78;
position = "{48, 577}";
}
);
layerId = "849A9C4C-BF7C-40C5-8614-1FD725A2A379";
paths = (
{
closed = 1;
nodes = (
"142 283 LINE",
"257 283 LINE",
"257 750 LINE",
"193 758 LINE",
"152 715 OFFCURVE",
"102 690 OFFCURVE",
"27 681 CURVE",
"45 590 LINE",
"81 591 OFFCURVE",
"109 596 OFFCURVE",
"142 608 CURVE"
);
}
);
width = 362;
}
);
unicode = 00B9;
},
{
glyphname = twosuperior;
lastChange = "2017-10-13 00:32:11 +0000";
layers = (
{
guideLines = (
{
angle = -12;
position = "{149, 598}";
}
);
layerId = "849A9C4C-BF7C-40C5-8614-1FD725A2A379";
paths = (
{
closed = 1;
nodes = (
"65 283 LINE",
"344 283 LINE",
"355 377 LINE",
"195 377 LINE",
"279 429 OFFCURVE",
"352 514 OFFCURVE",
"352 609 CURVE SMOOTH",
"352 704 OFFCURVE",
"297 767 OFFCURVE",
"205 767 CURVE SMOOTH",
"105 767 OFFCURVE",
"49 701 OFFCURVE",
"44 608 CURVE",
"141 587 LINE",
"143 633 OFFCURVE",
"158 672 OFFCURVE",
"191 672 CURVE SMOOTH",
"223 672 OFFCURVE",
"234 643 OFFCURVE",
"234 608 CURVE SMOOTH",
"234 523 OFFCURVE",
"160 434 OFFCURVE",
"55 354 CURVE"
);
}
);
width = 413;
}
);
unicode = 00B2;
},
{
glyphname = threesuperior;
lastChange = "2017-10-13 00:32:11 +0000";
layers = (
{
guideLines = (
{
angle = -12;
position = "{150, 622}";
},
{
angle = 12;
position = "{143, 399}";
}
);
layerId = "849A9C4C-BF7C-40C5-8614-1FD725A2A379";
paths = (
{
closed = 1;
nodes = (
"297 269 OFFCURVE",
"357 331 OFFCURVE",
"357 412 CURVE SMOOTH",
"357 470 OFFCURVE",
"333 500 OFFCURVE",
"290 520 CURVE",
"328 542 OFFCURVE",
"349 583 OFFCURVE",
"349 631 CURVE SMOOTH",
"349 716 OFFCURVE",
"286 767 OFFCURVE",
"199 767 CURVE SMOOTH",
"122 767 OFFCURVE",
"62 717 OFFCURVE",
"56 635 CURVE",
"152 614 LINE",
"155 651 OFFCURVE",
"168 676 OFFCURVE",
"198 676 CURVE SMOOTH",
"224 676 OFFCURVE",
"242 661 OFFCURVE",
"242 625 CURVE SMOOTH",
"242 582 OFFCURVE",
"210 556 OFFCURVE",
"153 556 CURVE",
"153 479 LINE",
"212 479 OFFCURVE",
"252 467 OFFCURVE",
"252 414 CURVE SMOOTH",
"252 380 OFFCURVE",
"230 360 OFFCURVE",
"200 360 CURVE SMOOTH",
"165 360 OFFCURVE",
"146 385 OFFCURVE",
"143 425 CURVE",
"49 403 LINE",
"56 315 OFFCURVE",
"119 269 OFFCURVE",
"200 269 CURVE SMOOTH"
);
}
);
width = 423;
}
);
unicode = 00B3;
},
{
glyphname = foursuperior;
lastChange = "2017-10-13 00:32:11 +0000";
layers = (
{
guideLines = (
{
angle = -12;
position = "{157, 622}";
},
{
angle = 7;
position = "{322, 276}";
}
);
layerId = "849A9C4C-BF7C-40C5-8614-1FD725A2A379";
paths = (
{
closed = 1;
nodes = (
"220 467 LINE",
"220 658 LINE",
"190 594 OFFCURVE",
"156 525 OFFCURVE",
"116 467 CURVE"
);
},
{
closed = 1;
nodes = (
"219 382 LINE",
"42 382 LINE",
"33 453 LINE",
"101 555 OFFCURVE",
"155 655 OFFCURVE",
"206 756 CURVE",
"322 756 LINE",
"322 467 LINE",
"386 467 LINE",
"375 382 LINE",
"322 382 LINE",
"322 283 LINE",
"219 283 LINE"
);
}
);
width = 414;
}
);
unicode = 2074;
},
{
glyphname = fraction;
lastChange = "2017-10-13 00:32:11 +0000";
layers = (
{
layerId = "849A9C4C-BF7C-40C5-8614-1FD725A2A379";
paths = (
{
closed = 1;
nodes = (
"0 3 LINE",
"80 -28 LINE",
"399 743 LINE",
"320 776 LINE"
);
}
);
width = 399;
}
);
unicode = 2044;
},
{
glyphname = asterisk;
lastChange = "2018-01-15 23:51:52 +0000";
layers = (
{
layerId = "849A9C4C-BF7C-40C5-8614-1FD725A2A379";
paths = (
{
closed = 1;
nodes = (
"257 470 LINE",
"335 308 LINE",
"446 390 LINE",
"315 516 LINE",
"475 534 LINE",
"436 667 LINE",
"295 586 LINE",
"321 759 LINE",
"193 759 LINE",
"218 588 LINE",
"78 667 LINE",
"39 534 LINE",
"197 516 LINE",
"67 390 LINE",
"178 308 LINE"
);
}
);
width = 513;
}
);
leftKerningGroup = asterisk;
rightKerningGroup = asterisk;
unicode = 002A;
},
{
glyphname = backslash;
lastChange = "2017-10-13 00:32:11 +0000";
layers = (
{
layerId = "849A9C4C-BF7C-40C5-8614-1FD725A2A379";
paths = (
{
closed = 1;
nodes = (
"172 785 LINE",
"44 769 LINE",
"162 -37 LINE",
"290 -21 LINE"
);
}
);
width = 332;
}
);
unicode = 005C;
},
{
glyphname = periodcentered;
lastChange = "2017-11-23 15:47:52 +0000";
layers = (
{
anchors = (
{
name = _center;
position = "{125, 306}";
}
);
layerId = "849A9C4C-BF7C-40C5-8614-1FD725A2A379";
paths = (
{
closed = 1;
nodes = (
"195 234 LINE",
"195 375 LINE",
"55 375 LINE",
"55 234 LINE"
);
}
);
width = 250;
}
);
unicode = 00B7;
},
{
glyphname = bullet;
lastChange = "2017-10-13 00:32:11 +0000";
layers = (
{
background = {
paths = (
{
closed = 1;
nodes = (
"96 517 OFFCURVE",
"38 442 OFFCURVE",
"38 352 CURVE SMOOTH",
"38 263 OFFCURVE",
"96 187 OFFCURVE",
"200 187 CURVE SMOOTH",
"305 187 OFFCURVE",
"363 263 OFFCURVE",
"363 352 CURVE SMOOTH",
"363 442 OFFCURVE",
"305 517 OFFCURVE",
"200 517 CURVE SMOOTH"
);
}
);
};
layerId = "849A9C4C-BF7C-40C5-8614-1FD725A2A379";
paths = (
{
closed = 1;
nodes = (
"305 167 OFFCURVE",
"363 242 OFFCURVE",
"363 332 CURVE SMOOTH",
"363 421 OFFCURVE",
"305 497 OFFCURVE",
"201 497 CURVE SMOOTH",
"96 497 OFFCURVE",
"38 421 OFFCURVE",
"38 332 CURVE SMOOTH",
"38 242 OFFCURVE",
"96 167 OFFCURVE",
"201 167 CURVE SMOOTH"
);
}
);
width = 401;
}
);
unicode = 2022;
},
{
glyphname = colon;
lastChange = "2018-01-15 23:45:41 +0000";
layers = (
{
background = {
paths = (
{
closed = 1;
nodes = (
"196 7 LINE",
"196 153 LINE",
"56 153 LINE",
"56 7 LINE"
);
},
{
closed = 1;
nodes = (
"196 276 LINE",
"196 422 LINE",
"56 422 LINE",
"56 276 LINE"
);
}
);
};
components = (
{
name = period;
transform = "{1, 0, 0, 1, 9, 270}";
},
{
name = period;
transform = "{1, 0, 0, 1, 9, 0}";
}
);
layerId = "849A9C4C-BF7C-40C5-8614-1FD725A2A379";
width = 252;
}
);
leftKerningGroup = colon;
rightKerningGroup = colon;
unicode = 003A;
},
{
glyphname = comma;
lastChange = "2018-01-15 23:50:40 +0000";
layers = (
{
layerId = "849A9C4C-BF7C-40C5-8614-1FD725A2A379";
paths = (
{
closed = 1;
nodes = (
"150 -113 OFFCURVE",
"188 -58 OFFCURVE",
"188 6 CURVE SMOOTH",
"188 155 LINE",
"52 155 LINE",
"52 4 LINE",
"119 4 LINE",
"119 -33 OFFCURVE",
"102 -59 OFFCURVE",
"71 -71 CURVE",
"97 -134 LINE"
);
}
);
width = 238;
}
);
leftKerningGroup = period;
rightKerningGroup = period;
unicode = 002C;
},
{
glyphname = exclam;
lastChange = "2017-10-13 00:32:11 +0000";
layers = (
{
components = (
{
name = period;
transform = "{1, 0, 0, 1, 17, -6}";
}
);
guideLines = (
{
angle = 172.725;
position = "{207, 750}";
}
);
layerId = "849A9C4C-BF7C-40C5-8614-1FD725A2A379";
paths = (
{
closed = 1;
nodes = (
"180 211 LINE",
"205 436 LINE",
"210 750 LINE",
"72 750 LINE",
"72 419 LINE",
"85 199 LINE"
);
}
);
width = 272;
}
);
unicode = 0021;
},
{
glyphname = numbersign;
lastChange = "2017-10-13 00:32:11 +0000";
layers = (
{
background = {
paths = (
{
closed = 1;
nodes = (
"29 173 LINE",
"29 278 LINE",
"114 278 LINE",
"236 278 LINE",
"356 278 LINE",
"478 278 LINE",
"572 278 LINE",
"572 173 LINE",
"463 173 LINE",
"341 173 LINE",
"210 173 LINE",
"109 173 LINE"
);
},
{
closed = 1;
nodes = (
"246 278 LINE",
"230 173 LINE",
"205 0 LINE",
"64 0 LINE",
"89 173 LINE",
"104 278 LINE",
"128 464 LINE",
"143 569 LINE",
"164 750 LINE",
"308 750 LINE",
"284 569 LINE",
"269 464 LINE"
);
},
{
closed = 1;
nodes = (
"488 278 LINE",
"473 173 LINE",
"452 0 LINE",
"306 0 LINE",
"331 173 LINE",
"346 278 LINE",
"370 464 LINE",
"383 569 LINE",
"409 750 LINE",
"551 750 LINE",
"528 569 LINE",
"512 464 LINE"
);
},
{
closed = 1;
nodes = (
"53 464 LINE",
"53 569 LINE",
"158 569 LINE",
"270 569 LINE",
"400 569 LINE",
"502 569 LINE",
"594 569 LINE",
"594 464 LINE",
"487 464 LINE",
"385 464 LINE",
"244 464 LINE",
"153 464 LINE"
);
}
);
};
layerId = "849A9C4C-BF7C-40C5-8614-1FD725A2A379";
paths = (
{
closed = 1;
nodes = (
"210 173 LINE",
"361 173 LINE",
"463 173 LINE",
"572 173 LINE",
"572 278 LINE",
"478 278 LINE",
"376 278 LINE",
"216 278 LINE",
"114 278 LINE",
"29 278 LINE",
"29 173 LINE",
"109 173 LINE"
);
},
{
closed = 1;
nodes = (
"274 541 LINE",
"296 750 LINE",
"171 750 LINE",
"149 542 LINE",
"145 542 LINE",
"112 238 LINE",
"108 238 LINE",
"80 0 LINE",
"205 0 LINE",
"233 238 LINE",
"237 238 LINE",
"270 541 LINE"
);
},
{
closed = 1;
nodes = (
"244 464 LINE",
"385 464 LINE",
"487 464 LINE",
"594 464 LINE",
"594 569 LINE",
"502 569 LINE",
"410 569 LINE",
"260 569 LINE",
"158 569 LINE",
"53 569 LINE",
"53 464 LINE",
"153 464 LINE"
);
},
{
closed = 1;
nodes = (
"508 541 LINE",
"530 750 LINE",
"405 750 LINE",
"383 542 LINE",
"379 542 LINE",
"346 238 LINE",
"342 238 LINE",
"314 0 LINE",
"439 0 LINE",
"467 238 LINE",
"471 238 LINE",
"504 541 LINE"
);
}
);
width = 625;
}
);
unicode = 0023;
},
{
glyphname = period;
lastChange = "2018-01-16 00:24:50 +0000";
layers = (
{
layerId = "849A9C4C-BF7C-40C5-8614-1FD725A2A379";
paths = (
{
closed = 1;
nodes = (
"184 6 LINE",
"184 156 LINE",
"48 156 LINE",
"48 6 LINE"
);
}
);
width = 239;
}
);
leftKerningGroup = period;
rightKerningGroup = period;
unicode = 002E;
},
{
glyphname = question;
lastChange = "2018-01-15 23:41:26 +0000";
layers = (
{
background = {
components = (
{
name = O;
transform = "{1, 0, 0, 1, -68, 0}";
}
);
paths = (
{
closed = 1;
nodes = (
"204 188 LINE",
"204 193 LINE SMOOTH",
"204 381 OFFCURVE",
"400 298 OFFCURVE",
"400 535 CURVE SMOOTH",
"400 642 OFFCURVE",
"341 755 OFFCURVE",
"206 755 CURVE SMOOTH",
"96 755 OFFCURVE",
"20 672 OFFCURVE",
"16 553 CURVE",
"150 547 LINE",
"154 580 OFFCURVE",
"159 644 OFFCURVE",
"202 644 CURVE SMOOTH",
"259 644 OFFCURVE",
"259 565 OFFCURVE",
"259 540 CURVE SMOOTH",
"259 360 OFFCURVE",
"61 470 OFFCURVE",
"87 188 CURVE"
);
},
{
closed = 1;
nodes = (
"216 0 LINE",
"216 141 LINE",
"75 141 LINE",
"75 -6 LINE"
);
}
);
};
components = (
{
name = period;
transform = "{1, 0, 0, 1, 78, -7}";
}
);
guideLines = (
{
angle = 168;
position = "{139, 547}";
},
{
angle = 12;
position = "{140, 197}";
},
{
angle = 230.6307;
position = "{184, 418}";
}
);
layerId = "849A9C4C-BF7C-40C5-8614-1FD725A2A379";
paths = (
{
closed = 1;
nodes = (
"262 223 LINE",
"252 237 OFFCURVE",
"246 253 OFFCURVE",
"246 276 CURVE SMOOTH",
"246 326 OFFCURVE",
"282 360 OFFCURVE",
"321 397 CURVE SMOOTH",
"379 452 OFFCURVE",
"401 516 OFFCURVE",
"401 582 CURVE SMOOTH",
"401 691 OFFCURVE",
"314 764 OFFCURVE",
"209 764 CURVE SMOOTH",
"95 764 OFFCURVE",
"17 693 OFFCURVE",
"14 573 CURVE",
"133 548 LINE",
"138 601 OFFCURVE",
"153 648 OFFCURVE",
"207 648 CURVE SMOOTH",
"238 648 OFFCURVE",
"265 620 OFFCURVE",
"265 572 CURVE SMOOTH",
"265 519 OFFCURVE",
"230 473 OFFCURVE",
"180 425 CURVE SMOOTH",
"142 388 OFFCURVE",
"114 347 OFFCURVE",
"114 288 CURVE SMOOTH",
"114 253 OFFCURVE",
"124 218 OFFCURVE",
"139 197 CURVE"
);
}
);
width = 414;
}
);
unicode = 003F;
},
{
glyphname = quotedbl;
lastChange = "2018-01-15 23:40:36 +0000";
layers = (
{
layerId = "849A9C4C-BF7C-40C5-8614-1FD725A2A379";
paths = (
{
closed = 1;
nodes = (
"345 458 LINE",
"368 751 LINE",
"228 751 LINE",
"251 452 LINE"
);
},
{
closed = 1;
nodes = (
"157 458 LINE",
"181 751 LINE",
"40 751 LINE",
"63 452 LINE"
);
}
);
width = 408;
}
);
leftKerningGroup = asterisk;
rightKerningGroup = asterisk;
unicode = 0022;
},
{
glyphname = quotesingle;
lastChange = "2018-01-16 00:25:49 +0000";
layers = (
{
layerId = "849A9C4C-BF7C-40C5-8614-1FD725A2A379";
paths = (
{
closed = 1;
nodes = (
"157 470 LINE",
"181 751 LINE",
"40 751 LINE",
"63 464 LINE"
);
}
);
width = 220;
}
);
leftKerningGroup = asterisk;
rightKerningGroup = asterisk;
unicode = 0027;
},
{
glyphname = slash;
lastChange = "2017-10-13 00:32:11 +0000";
layers = (
{
layerId = "849A9C4C-BF7C-40C5-8614-1FD725A2A379";
paths = (
{
closed = 1;
nodes = (
"170 -37 LINE",
"288 769 LINE",
"160 785 LINE",
"42 -21 LINE"
);
}
);
width = 332;
}
);
unicode = 002F;
},
{
glyphname = underscore;
lastChange = "2017-10-13 00:32:11 +0000";
layers = (
{
layerId = "849A9C4C-BF7C-40C5-8614-1FD725A2A379";
paths = (
{
closed = 1;
nodes = (
"356 -116 LINE",
"356 0 LINE",
"-5 0 LINE",
"-5 -116 LINE"
);
}
);
width = 351;
}
);
unicode = 005F;
},
{
glyphname = braceleft;
lastChange = "2018-01-15 23:38:07 +0000";
layers = (
{
background = {
paths = (
{
closed = 1;
nodes = (
"314 -13 LINE",
"220 -13 OFFCURVE",
"220 60 OFFCURVE",
"220 258 CURVE SMOOTH",
"220 297 OFFCURVE",
"220 342 OFFCURVE",
"127 373 CURVE",
"220 406 OFFCURVE",
"220 449 OFFCURVE",
"220 489 CURVE SMOOTH",
"220 676 OFFCURVE",
"220 760 OFFCURVE",
"314 760 CURVE",
"314 839 LINE",
"87 839 OFFCURVE",
"80 739 OFFCURVE",
"80 489 CURVE SMOOTH",
"80 458 OFFCURVE",
"80 420 OFFCURVE",
"33 420 CURVE",
"33 327 LINE",
"80 327 OFFCURVE",
"80 289 OFFCURVE",
"80 258 CURVE SMOOTH",
"80 -11 OFFCURVE",
"87 -92 OFFCURVE",
"314 -92 CURVE"
);
}
);
};
layerId = "849A9C4C-BF7C-40C5-8614-1FD725A2A379";
paths = (
{
closed = 1;
nodes = (
"314 -3 LINE",
"228 -3 OFFCURVE",
"220 60 OFFCURVE",
"220 168 CURVE SMOOTH",
"220 297 OFFCURVE",
"220 342 OFFCURVE",
"127 373 CURVE",
"220 406 OFFCURVE",
"220 449 OFFCURVE",
"220 579 CURVE SMOOTH",
"220 676 OFFCURVE",
"228 750 OFFCURVE",
"314 750 CURVE",
"314 839 LINE",
"301 840 OFFCURVE",
"288 841 OFFCURVE",
"276 841 CURVE SMOOTH",
"100 841 OFFCURVE",
"80 706 OFFCURVE",
"80 509 CURVE SMOOTH",
"80 458 OFFCURVE",
"80 420 OFFCURVE",
"22 420 CURVE",
"22 327 LINE",
"80 327 OFFCURVE",
"80 289 OFFCURVE",
"80 238 CURVE SMOOTH",
"80 25 OFFCURVE",
"100 -94 OFFCURVE",
"272 -94 CURVE SMOOTH",
"285 -94 OFFCURVE",
"299 -93 OFFCURVE",
"314 -92 CURVE"
);
}
);
width = 330;
}
);
leftKerningGroup = parenleft;
rightKerningGroup = parenleft;
unicode = 007B;
},
{
glyphname = braceright;
lastChange = "2018-01-15 23:41:00 +0000";
layers = (
{
layerId = "849A9C4C-BF7C-40C5-8614-1FD725A2A379";
paths = (
{
closed = 1;
nodes = (
"16 750 LINE",
"102 750 OFFCURVE",
"110 687 OFFCURVE",
"110 579 CURVE SMOOTH",
"110 450 OFFCURVE",
"110 404 OFFCURVE",
"203 373 CURVE",
"110 340 OFFCURVE",
"110 298 OFFCURVE",
"110 168 CURVE SMOOTH",
"110 71 OFFCURVE",
"102 -3 OFFCURVE",
"16 -3 CURVE",
"16 -92 LINE",
"29 -93 OFFCURVE",
"42 -94 OFFCURVE",
"54 -94 CURVE SMOOTH",
"230 -94 OFFCURVE",
"250 41 OFFCURVE",
"250 238 CURVE SMOOTH",
"250 289 OFFCURVE",
"250 327 OFFCURVE",
"308 327 CURVE",
"308 420 LINE",
"250 420 OFFCURVE",
"250 458 OFFCURVE",
"250 509 CURVE SMOOTH",
"250 722 OFFCURVE",
"230 841 OFFCURVE",
"58 841 CURVE SMOOTH",
"45 841 OFFCURVE",
"31 840 OFFCURVE",
"16 839 CURVE"
);
}
);
width = 330;
}
);
leftKerningGroup = parenright;
rightKerningGroup = parenright;
unicode = 007D;
},
{
glyphname = bracketleft;
lastChange = "2018-01-15 23:38:11 +0000";
layers = (
{
layerId = "849A9C4C-BF7C-40C5-8614-1FD725A2A379";
paths = (
{
closed = 1;
nodes = (
"310 -87 LINE",
"310 16 LINE",
"205 16 LINE",
"205 733 LINE",
"310 733 LINE",
"310 837 LINE",
"70 837 LINE",
"70 -87 LINE"
);
}
);
width = 326;
}
);
leftKerningGroup = parenleft;
rightKerningGroup = parenleft;
unicode = 005B;
},
{
glyphname = bracketright;
lastChange = "2018-01-15 23:37:51 +0000";
layers = (
{
layerId = "849A9C4C-BF7C-40C5-8614-1FD725A2A379";
paths = (
{
closed = 1;
nodes = (
"257 -87 LINE",
"257 837 LINE",
"16 837 LINE",
"16 733 LINE",
"122 733 LINE",
"122 16 LINE",
"16 16 LINE",
"16 -87 LINE"
);
}
);
width = 327;
}
);
leftKerningGroup = parenright;
rightKerningGroup = parenright;
unicode = 005D;
},
{
glyphname = parenleft;
lastChange = "2018-01-15 23:37:58 +0000";
layers = (
{
layerId = "849A9C4C-BF7C-40C5-8614-1FD725A2A379";
paths = (
{
closed = 1;
nodes = (
"128 839 OFFCURVE",
"44 693 OFFCURVE",
"44 377 CURVE SMOOTH",
"44 62 OFFCURVE",
"128 -92 OFFCURVE",
"320 -92 CURVE",
"320 -10 LINE",
"210 9 OFFCURVE",
"185 143 OFFCURVE",
"185 377 CURVE SMOOTH",
"185 611 OFFCURVE",
"210 738 OFFCURVE",
"320 756 CURVE",
"321 839 LINE"
);
}
);
width = 331;
}
);
leftKerningGroup = parenleft;
rightKerningGroup = parenleft;
unicode = 0028;
},
{
glyphname = parenright;
lastChange = "2018-01-15 23:37:40 +0000";
layers = (
{
layerId = "849A9C4C-BF7C-40C5-8614-1FD725A2A379";
paths = (
{
closed = 1;
nodes = (
"11 756 LINE",
"121 738 OFFCURVE",
"146 611 OFFCURVE",
"146 377 CURVE SMOOTH",
"146 143 OFFCURVE",
"121 9 OFFCURVE",
"11 -10 CURVE",
"11 -92 LINE",
"203 -92 OFFCURVE",
"287 62 OFFCURVE",
"287 377 CURVE SMOOTH",
"287 693 OFFCURVE",
"203 839 OFFCURVE",
"10 839 CURVE"
);
}
);
width = 332;
}
);
leftKerningGroup = parenright;
rightKerningGroup = parenright;
unicode = 0029;
},
{
glyphname = emdash;
lastChange = "2018-01-15 23:47:32 +0000";
layers = (
{
layerId = "849A9C4C-BF7C-40C5-8614-1FD725A2A379";
paths = (
{
closed = 1;
nodes = (
"613 247 LINE",
"618 347 LINE",
"61 347 LINE",
"56 247 LINE"
);
}
);
width = 673;
}
);
leftKerningGroup = hyphen;
rightKerningGroup = hyphen;
unicode = 2014;
},
{
glyphname = endash;
lastChange = "2018-01-15 23:47:26 +0000";
layers = (
{
layerId = "849A9C4C-BF7C-40C5-8614-1FD725A2A379";
paths = (
{
closed = 1;
nodes = (
"342 245 LINE",
"349 349 LINE",
"55 349 LINE",
"48 245 LINE"
);
}
);
width = 393;
}
);
leftKerningGroup = hyphen;
rightKerningGroup = hyphen;
unicode = 2013;
},
{
glyphname = hyphen;
lastChange = "2018-01-15 23:48:14 +0000";
layers = (
{
guideLines = (
{
angle = 83;
position = "{325, 287}";
}
);
layerId = "849A9C4C-BF7C-40C5-8614-1FD725A2A379";
paths = (
{
closed = 1;
nodes = (
"325 269 LINE",
"339 384 LINE",
"50 384 LINE",
"50 269 LINE"
);
}
);
width = 371;
}
);
leftKerningGroup = hyphen;
rightKerningGroup = hyphen;
unicode = 002D;
},
{
glyphname = guillemetleft;
lastChange = "2017-10-13 00:32:11 +0000";
layers = (
{
background = {
paths = (
{
closed = 1;
nodes = (
"508 88 LINE",
"385 280 LINE",
"509 470 LINE",
"453 526 LINE",
"259 312 LINE",
"265 249 LINE",
"453 33 LINE"
);
},
{
closed = 1;
nodes = (
"268 80 LINE",
"142 280 LINE",
"268 478 LINE",
"212 534 LINE",
"26 346 LINE",
"42 211 LINE",
"213 25 LINE"
);
}
);
};
layerId = "849A9C4C-BF7C-40C5-8614-1FD725A2A379";
paths = (
{
closed = 1;
nodes = (
"265 312 LINE",
"259 249 LINE",
"453 33 LINE",
"509 89 LINE",
"385 279 LINE",
"508 471 LINE",
"453 526 LINE"
);
},
{
closed = 1;
nodes = (
"50 352 LINE",
"34 217 LINE",
"220 25 LINE",
"276 81 LINE",
"150 279 LINE",
"276 479 LINE",
"221 534 LINE"
);
}
);
width = 545;
}
);
leftMetricsKey = guilsinglleft;
rightMetricsKey = guilsinglleft;
unicode = 00AB;
},
{
glyphname = guillemetright;
lastChange = "2017-10-13 00:32:11 +0000";
layers = (
{
guideLines = (
{
angle = 86.3861;
position = "{285, 308}";
},
{
angle = 83.2409;
position = "{504, 281}";
}
);
layerId = "849A9C4C-BF7C-40C5-8614-1FD725A2A379";
paths = (
{
closed = 1;
nodes = (
"37 471 LINE",
"160 279 LINE",
"36 89 LINE",
"92 33 LINE",
"281 243 LINE",
"285 306 LINE",
"92 526 LINE"
);
},
{
closed = 1;
nodes = (
"269 479 LINE",
"395 279 LINE",
"269 81 LINE",
"325 25 LINE",
"495 200 LINE",
"511 335 LINE",
"324 534 LINE"
);
}
);
width = 545;
}
);
leftMetricsKey = guilsinglright;
rightMetricsKey = guilsinglright;
unicode = 00BB;
},
{
glyphname = guilsinglleft;
lastChange = "2017-10-13 00:32:11 +0000";
layers = (
{
guideLines = (
{
angle = 45;
position = "{288, 37}";
},
{
angle = -30;
position = "{288, 526}";
}
);
layerId = "849A9C4C-BF7C-40C5-8614-1FD725A2A379";
paths = (
{
closed = 1;
nodes = (
"50 350 LINE",
"34 215 LINE",
"220 27 LINE",
"276 83 LINE",
"150 280 LINE",
"276 481 LINE",
"221 536 LINE"
);
}
);
width = 312;
}
);
unicode = 2039;
},
{
glyphname = guilsinglright;
lastChange = "2017-10-13 00:32:11 +0000";
layers = (
{
layerId = "849A9C4C-BF7C-40C5-8614-1FD725A2A379";
paths = (
{
closed = 1;
nodes = (
"262 210 LINE",
"278 345 LINE",
"92 533 LINE",
"36 477 LINE",
"162 280 LINE",
"36 79 LINE",
"91 24 LINE"
);
}
);
width = 312;
}
);
unicode = 203A;
},
{
glyphname = "leftanglebracket-math";
lastChange = "2017-10-13 00:32:11 +0000";
layers = (
{
layerId = "849A9C4C-BF7C-40C5-8614-1FD725A2A379";
paths = (
{
closed = 1;
nodes = (
"128 -74 LINE",
"238 -58 LINE",
"170 374 LINE",
"238 806 LINE",
"128 821 LINE",
"44 374 LINE"
);
}
);
width = 278;
}
);
unicode = 27E8;
},
{
glyphname = "rightanglebracket-math";
lastChange = "2017-10-13 00:32:11 +0000";
layers = (
{
layerId = "849A9C4C-BF7C-40C5-8614-1FD725A2A379";
paths = (
{
closed = 1;
nodes = (
"150 821 LINE",
"40 806 LINE",
"108 374 LINE",
"40 -58 LINE",
"150 -74 LINE",
"234 374 LINE"
);
}
);
width = 278;
}
);
unicode = 27E9;
},
{
glyphname = cedi;
lastChange = "2017-10-13 00:32:11 +0000";
layers = (
{
background = {
components = (
{
name = C;
transform = "{1, 0, 0, 1, -21, 0}";
}
);
paths = (
{
closed = 1;
nodes = (
"311 78 LINE",
"311 797 LINE",
"240 797 LINE",
"240 78 LINE"
);
},
{
closed = 1;
nodes = (
"240 22 LINE",
"240 -47 LINE",
"311 -47 LINE",
"311 23 LINE"
);
},
{
closed = 1;
nodes = (
"427 11 OFFCURVE",
"499 128 OFFCURVE",
"499 255 CURVE",
"374 267 LINE",
"368 212 OFFCURVE",
"354 128 OFFCURVE",
"285 128 CURVE SMOOTH",
"192 128 OFFCURVE",
"178 261 OFFCURVE",
"178 391 CURVE SMOOTH",
"178 489 OFFCURVE",
"192 617 OFFCURVE",
"271 617 CURVE SMOOTH",
"353 617 OFFCURVE",
"356 499 OFFCURVE",
"356 486 CURVE",
"498 493 LINE",
"498 611 OFFCURVE",
"417 734 OFFCURVE",
"279 734 CURVE SMOOTH",
"96 734 OFFCURVE",
"32 546 OFFCURVE",
"32 391 CURVE SMOOTH",
"32 212 OFFCURVE",
"80 11 OFFCURVE",
"276 11 CURVE SMOOTH"
);
}
);
};
guideLines = (
{
angle = 12;
position = "{499, 501}";
},
{
angle = 7;
position = "{244, -45}";
}
);
layerId = "849A9C4C-BF7C-40C5-8614-1FD725A2A379";
paths = (
{
closed = 1;
nodes = (
"417 17 OFFCURVE",
"499 115 OFFCURVE",
"504 261 CURVE",
"374 274 LINE",
"372 198 OFFCURVE",
"350 133 OFFCURVE",
"278 133 CURVE SMOOTH",
"191 133 OFFCURVE",
"176 240 OFFCURVE",
"176 378 CURVE SMOOTH",
"176 515 OFFCURVE",
"201 611 OFFCURVE",
"277 611 CURVE SMOOTH",
"341 611 OFFCURVE",
"360 556 OFFCURVE",
"365 472 CURVE",
"499 501 LINE",
"495 636 OFFCURVE",
"423 733 OFFCURVE",
"277 733 CURVE SMOOTH",
"101 733 OFFCURVE",
"32 565 OFFCURVE",
"32 378 CURVE SMOOTH",
"32 200 OFFCURVE",
"83 17 OFFCURVE",
"280 17 CURVE SMOOTH"
);
},
{
closed = 1;
nodes = (
"309 -37 LINE",
"309 79 LINE",
"305 99 LINE",
"305 659 LINE",
"309 675 LINE",
"309 797 LINE",
"244 797 LINE",
"244 675 LINE",
"247 659 LINE",
"247 99 LINE",
"244 79 LINE",
"244 -45 LINE"
);
}
);
width = 532;
}
);
unicode = 20B5;
},
{
glyphname = cent;
lastChange = "2017-10-13 00:32:11 +0000";
layers = (
{
anchors = (
{
name = bottom;
position = "{225, 0}";
},
{
name = top;
position = "{225, 563}";
}
);
background = {
components = (
{
name = c;
transform = "{1, 0, 0, 1, 2, 0}";
}
);
};
guideLines = (
{
angle = 173.7516;
position = "{442, 229}";
},
{
angle = 7;
position = "{217, 11}";
}
);
layerId = "849A9C4C-BF7C-40C5-8614-1FD725A2A379";
paths = (
{
closed = 1;
nodes = (
"352 81 OFFCURVE",
"430 147 OFFCURVE",
"441 279 CURVE",
"321 292 LINE",
"317 242 OFFCURVE",
"306 181 OFFCURVE",
"254 181 CURVE SMOOTH",
"196 181 OFFCURVE",
"175 261 OFFCURVE",
"175 372 CURVE SMOOTH",
"175 479 OFFCURVE",
"194 564 OFFCURVE",
"250 564 CURVE SMOOTH",
"297 564 OFFCURVE",
"313 507 OFFCURVE",
"317 447 CURVE",
"442 472 LINE",
"436 593 OFFCURVE",
"362 664 OFFCURVE",
"250 664 CURVE SMOOTH",
"109 664 OFFCURVE",
"30 556 OFFCURVE",
"30 372 CURVE SMOOTH",
"30 193 OFFCURVE",
"106 81 OFFCURVE",
"250 81 CURVE SMOOTH"
);
},
{
closed = 1;
nodes = (
"225 169 LINE",
"225 143 LINE",
"220 124 LINE",
"220 -8 LINE",
"285 0 LINE",
"285 124 LINE",
"280 144 LINE",
"280 169 LINE"
);
},
{
closed = 1;
nodes = (
"280 589 LINE",
"280 612 LINE",
"285 649 LINE",
"285 752 LINE",
"220 752 LINE",
"220 646 LINE",
"225 611 LINE",
"225 589 LINE"
);
}
);
width = 472;
}
);
unicode = 00A2;
},
{
glyphname = colonsign;
lastChange = "2017-10-13 00:32:11 +0000";
layers = (
{
background = {
paths = (
{
closed = 1;
nodes = (
"468 448 LINE",
"398 448 LINE",
"398 26 LINE",
"468 26 LINE"
);
},
{
closed = 1;
nodes = (
"332 448 LINE",
"261 448 LINE",
"261 26 LINE",
"332 26 LINE"
);
}
);
};
guideLines = (
{
angle = -12;
position = "{398, 267}";
},
{
angle = 12;
position = "{380, 486}";
},
{
angle = 173.7516;
position = "{390, 251}";
}
);
layerId = "849A9C4C-BF7C-40C5-8614-1FD725A2A379";
paths = (
{
closed = 1;
nodes = (
"413 17 OFFCURVE",
"491 88 OFFCURVE",
"512 238 CURVE",
"390 251 LINE",
"385 169 OFFCURVE",
"358 124 OFFCURVE",
"288 124 CURVE SMOOTH",
"215 124 OFFCURVE",
"185 210 OFFCURVE",
"185 365 CURVE SMOOTH",
"185 517 OFFCURVE",
"224 615 OFFCURVE",
"288 615 CURVE SMOOTH",
"370 615 OFFCURVE",
"390 552 OFFCURVE",
"390 466 CURVE",
"512 493 LINE",
"498 658 OFFCURVE",
"434 724 OFFCURVE",
"288 724 CURVE SMOOTH",
"129 724 OFFCURVE",
"50 568 OFFCURVE",
"50 365 CURVE SMOOTH",
"50 150 OFFCURVE",
"130 17 OFFCURVE",
"288 17 CURVE SMOOTH"
);
},
{
closed = 1;
nodes = (
"221 103 LINE",
"174 -31 LINE",
"218 -43 LINE",
"264 88 LINE",
"268 88 LINE",
"454 621 LINE",
"458 621 LINE",
"503 750 LINE",
"459 763 LINE",
"415 636 LINE",
"229 103 LINE"
);
},
{
closed = 1;
nodes = (
"369 650 LINE",
"373 650 LINE",
"417 778 LINE",
"374 790 LINE",
"330 665 LINE",
"143 130 LINE",
"136 131 LINE",
"89 -4 LINE",
"132 -16 LINE",
"178 117 LINE",
"182 116 LINE"
);
}
);
width = 574;
}
);
unicode = 20A1;
},
{
glyphname = currency;
lastChange = "2017-10-13 00:32:11 +0000";
layers = (
{
layerId = "849A9C4C-BF7C-40C5-8614-1FD725A2A379";
paths = (
{
closed = 1;
nodes = (
"159 279 LINE",
"188 252 OFFCURVE",
"236 233 OFFCURVE",
"296 233 CURVE SMOOTH",
"352 233 OFFCURVE",
"400 249 OFFCURVE",
"435 280 CURVE",
"504 218 LINE",
"551 271 LINE",
"479 334 LINE",
"498 364 OFFCURVE",
"507 402 OFFCURVE",
"507 445 CURVE SMOOTH",
"507 489 OFFCURVE",
"497 529 OFFCURVE",
"478 560 CURVE",
"551 624 LINE",
"504 677 LINE",
"432 613 LINE",
"402 639 OFFCURVE",
"355 658 OFFCURVE",
"296 658 CURVE SMOOTH",
"238 658 OFFCURVE",
"191 639 OFFCURVE",
"161 614 CURVE",
"89 677 LINE",
"43 624 LINE",
"115 560 LINE",
"95 531 OFFCURVE",
"86 490 OFFCURVE",
"86 446 CURVE SMOOTH",
"86 402 OFFCURVE",
"95 363 OFFCURVE",
"113 334 CURVE",
"43 271 LINE",
"89 218 LINE"
);
},
{
closed = 1;
nodes = (
"238 341 OFFCURVE",
"203 383 OFFCURVE",
"203 445 CURVE SMOOTH",
"203 508 OFFCURVE",
"238 552 OFFCURVE",
"296 552 CURVE SMOOTH",
"355 552 OFFCURVE",
"390 508 OFFCURVE",
"390 445 CURVE SMOOTH",
"390 383 OFFCURVE",
"355 341 OFFCURVE",
"296 341 CURVE SMOOTH"
);
}
);
width = 592;
}
);
unicode = 00A4;
},
